<svg width="20" height="20" viewBox="0 0 20 20" fill="none" xmlns="http://www.w3.org/2000/svg">
<path d="M1.89594 19.8749C1.40559 19.9034 0.923356 19.7404 0.550919 19.4202C-0.183599 18.6813 -0.183599 17.488 0.550919 16.7491L16.6345 0.665488C17.3984 -0.0493789 18.5972 -0.00963981 19.3121 0.754324C19.9585 1.44517 19.9962 2.50702 19.4003 3.24192L3.22199 19.4202C2.85435 19.7358 2.37985 19.8985 1.89594 19.8749Z" fill="#818B99"/>
<path d="M17.9606 19.8749C17.4636 19.8728 16.9873 19.6755 16.6345 19.3256L0.550858 3.2419C-0.129635 2.44724 -0.0371186 1.25132 0.757539 0.570768C1.46679 -0.0366102 2.5128 -0.0366102 3.22199 0.570768L19.4003 16.6544C20.1641 17.3694 20.2036 18.5683 19.4885 19.3321C19.4601 19.3624 19.4307 19.3918 19.4003 19.4203C19.0042 19.7648 18.4828 19.9294 17.9606 19.8749Z" fill="#818B99"/>
</svg>
