<svg width="121" height="120" viewBox="0 0 121 120" fill="none" xmlns="http://www.w3.org/2000/svg">
<g clip-path="url(#clip0_384_4160)">
<path d="M60.3738 103.455C84.3513 103.455 103.78 84.0017 103.78 59.9968C103.78 35.9905 84.3513 16.5 60.3738 16.5C36.3968 16.5 16.9297 35.9905 16.9297 59.9966C16.9297 84.0017 36.3968 103.455 60.3738 103.455Z" fill="#A5A5A5"/>
<path d="M60.3738 102.365C83.7497 102.365 102.691 83.4005 102.691 59.9965C102.691 36.5923 83.7498 17.5908 60.3738 17.5908C36.998 17.5908 18.0571 36.5924 18.0571 59.9965C18.0571 83.4005 36.9981 102.365 60.3738 102.365Z" fill="white"/>
<path d="M60.374 101.084C83.0355 101.084 101.451 82.6853 101.451 59.9966C101.451 37.2697 83.0356 18.8701 60.374 18.8701C37.7122 18.8701 19.2974 37.2696 19.2974 59.9966C19.2975 82.6853 37.7123 101.084 60.374 101.084Z" fill="#A5A5A5"/>
<path d="M60.3738 85.6577C74.5421 85.6577 86.0045 74.145 86.0045 59.9968C86.0045 45.8112 74.5422 34.2973 60.3738 34.2973C46.2057 34.2973 34.7058 45.8112 34.7058 59.9968C34.7058 74.1449 46.2057 85.6577 60.3738 85.6577ZM65.1094 23.0091C66.1987 24.5523 66.3497 26.697 66.0489 28.5401C65.7112 30.2338 64.358 31.2873 62.8169 31.7766C60.4116 32.0775 57.4805 32.6794 55.3383 30.3844C54.1357 28.6911 54.1357 26.5462 54.5862 24.4015C55.1879 22.1064 57.8185 21.5045 59.9606 21.3535C61.84 21.3537 63.7562 21.6549 65.1094 23.0091Z" fill="white"/>
<path d="M62.3654 24.8906C62.516 26.2831 62.9672 28.4279 61.9148 29.6319C60.9753 30.3093 59.6601 30.5724 58.7204 29.9328C57.4803 28.7288 57.6681 26.885 57.969 25.3424C58.1187 24.4391 58.7204 23.4985 59.6601 23.3482C60.6746 23.1976 62.0653 23.6491 62.3654 24.8906Z" fill="#A5A5A5"/>
<path d="M83.3741 30.0457C84.0129 31.8896 83.3741 33.5829 82.4716 35.0879C81.7202 36.4802 79.6157 37.6085 78.488 37.4209C76.0079 36.9695 73.9025 35.4268 71.4602 33.9219L76.3086 25.1543C78.789 26.5087 81.833 27.2989 83.3741 30.0457Z" fill="white"/>
<path d="M80.4805 30.4973C80.6309 31.8894 80.0294 33.4321 78.789 34.3354C77.5863 35.2759 75.106 33.4321 75.106 33.4321L77.8491 28.3525C78.9394 28.9921 80.1798 29.2932 80.4805 30.4973Z" fill="#A5A5A5"/>
<path d="M30.7223 38.7745C29.82 39.8284 28.7301 40.7691 28.58 42.1234C28.58 42.5752 28.993 43.1393 29.5192 43.0641C31.023 41.8222 32.5635 39.2264 34.7057 39.8284C35.7954 39.8284 36.8479 40.9195 37.1484 41.8221C37.7875 44.569 35.7954 46.9022 33.954 48.708L32.2632 47.6545C33.5032 46.5631 35.3071 44.9081 34.555 43.2146C32.1879 42.0481 31.8119 46.4129 29.3691 46.4129C28.2791 46.4129 26.8134 45.6602 26.4377 44.4188C26.4377 44.4188 26.2873 43.6661 26.2873 43.1769C26.2498 42.3114 26.6255 41.3707 27.0391 40.5806C27.4899 39.8283 27.9787 39.2263 27.9787 39.2263L29.3692 37.6836L30.7223 38.7745ZM26.2874 41.3707C25.9491 41.4085 25.3478 41.4839 24.9722 41.5213C25.0473 41.258 25.3855 40.4305 25.3855 40.4305L26.5882 40.2424L26.0243 39.2637C26.2873 38.8876 26.4751 38.4737 26.7385 38.0975L27.4147 39.339L26.2874 41.3707ZM94.9869 43.3278L87.4703 51.7182L86.0424 48.6705L87.8467 46.9394L85.8164 43.4407L83.5245 43.967L81.795 41.5213L92.8069 39.6775L94.9869 43.3278Z" fill="white"/>
<path d="M89.0487 45.3975L87.6956 42.952L92.3179 42.0488L89.0487 45.3975Z" fill="#A5A5A5"/>
<path d="M44.7777 93.6346L42.4854 92.1671L42.974 90.5498L40.9067 89.0067L39.4035 90.0231C38.8023 89.4963 38.2384 88.9695 37.6748 88.4428L43.6502 84.002L46.732 85.8461L44.7777 93.6346ZM81.1564 87.3893C81.7204 88.6683 81.3068 90.023 80.3673 90.7752C79.1646 92.017 77.7743 92.7692 76.0835 92.6194C74.5801 92.468 73.3397 90.9251 72.8891 89.7216C72.5882 88.4797 72.5882 87.1622 73.49 86.3358C74.7296 85.2438 75.9331 84.5286 77.6239 84.3416C79.1646 84.3416 80.5556 86.0347 81.1564 87.3893Z" fill="white"/>
<path d="M43.6124 89.0821L42.1846 88.0657L44.2141 86.3726L43.6124 89.0821ZM78.8644 88.518C79.3528 89.6089 78.8265 90.6251 77.6613 90.8121C76.0835 91.1135 75.5568 89.3832 75.0307 88.4795C74.5801 87.576 75.1812 86.3355 76.2341 86.1841C77.7745 85.883 78.2628 87.6146 78.8644 88.518Z" fill="#A5A5A5"/>
<path d="M52.8199 93.6728C52.7825 94.4622 54.2482 94.9891 54.7742 94.161C54.9621 93.5971 55.4508 90.8121 55.7515 89.1192C56.5404 89.3075 57.4426 89.496 58.0436 89.6473C57.856 90.9248 57.6682 94.4993 56.1272 95.8553C55.0747 96.6447 53.3838 96.1936 52.294 95.8553C49.8509 94.9889 50.2645 92.9575 50.2645 92.9575L51.3919 88.2168L53.722 88.705L52.8199 93.6728ZM66.838 90.4366L67.9279 95.8925L65.5226 96.3822L64.4328 90.8877L62.5536 91.3388L62.1779 89.6831L68.4164 88.2912L68.8675 89.9471L66.838 90.4366Z" fill="white"/>
<path d="M64.8464 38.3987C71.3855 45.4351 74.9935 54.9545 72.1748 65.0383C72.1748 65.0383 71.3479 67.4464 71.1226 68.4249C70.9343 69.4031 70.9721 70.1553 70.9721 70.1553C71.2723 70.7956 72.2496 70.9832 72.889 70.8327C73.5271 70.1932 72.4 69.3656 73.0388 68.5755C76.1961 68.2743 78.8265 70.4946 81.1942 72.5638C79.1275 75.0856 76.0081 77.4925 72.8135 76.703C72.363 76.0633 73.828 75.2356 72.8514 74.596L49.5882 74.5576C48.9117 74.596 47.6717 76.5904 46.9574 76.7788C45.9429 77.0042 44.2517 76.9658 43.8007 76.7031C42.8233 75.7239 42.598 74.145 41.9594 73.0153C41.3203 71.6235 38.4263 70.1934 38.915 69.1399C39.1406 68.7637 44.7029 67.9359 48.273 69.2148C49.6257 69.8172 51.0166 71.0587 52.4445 70.6821C52.5193 70.6446 52.6324 70.6073 52.7075 70.4192C53.0832 66.0542 49.9265 61.2381 45.3038 59.0183C43.9508 58.3784 42.9741 58.2278 41.6585 58.3409C40.268 58.4158 38.8023 58.5663 37.8631 57.8896C37.0736 57.2875 37.224 55.2554 37.8252 53.2613C38.1257 52.3584 38.5392 51.3798 38.9527 50.5901C40.8319 46.4508 46.7698 50.8531 47.5587 51.2671C48.5738 51.7939 49.6257 52.9226 49.9265 51.4552C49.8513 50.5146 48.0099 49.6117 46.8073 48.9719C43.2745 47.0908 41.0197 47.5423 42.1471 45.3973C42.4854 44.7579 43.6125 43.2905 45.1536 41.9733C46.732 40.5812 48.7235 39.2642 50.1895 39.0762C52.8201 38.813 55.6387 42.5378 55.6387 42.5378L58.9837 46.2629C59.6227 46.639 59.9982 46.2251 60.0732 45.962C60.2612 45.3974 59.7354 44.7951 59.7354 44.7951C59.7354 44.7951 58.1946 42.914 57.3676 42.0864C56.5788 41.2585 54.2485 39.0388 54.2485 39.0388C53.3464 37.4585 55.0376 36.9692 55.9768 36.8184C59.021 36.5172 62.3654 35.6897 64.8464 38.3987Z" fill="#85878C"/>
<path d="M64.9212 68.9136C66.8753 68.9136 68.4543 67.3333 68.4543 65.3766C68.4543 63.42 66.8753 61.8023 64.9212 61.8023C62.9673 61.8023 61.389 63.4199 61.389 65.3766C61.3889 67.3334 62.9673 68.9136 64.9212 68.9136ZM44.665 30.2707C46.469 31.3998 48.7235 32.1521 50.5278 33.4318L47.446 34.8989L42.0346 32.0771L42.1097 26.3204L44.8907 24.8525C45.1908 26.3957 44.7028 28.5777 44.665 30.2707ZM42.4854 38.1728L36.8857 29.7817L39.2158 28.1262L44.8529 36.4042L42.4854 38.1728Z" fill="white"/>
</g>
<defs>
<clipPath id="clip0_384_4160">
<rect width="87" height="87" fill="white" transform="translate(16.9214 16.5)"/>
</clipPath>
</defs>
</svg>
