<svg width="121" height="120" viewBox="0 0 121 120" fill="none" xmlns="http://www.w3.org/2000/svg">
<path d="M25.9515 57.9099L28.2606 54H34.0433L27.2092 65.9954H21.4266L24.4137 60.6382C23.3682 60.5665 22.3185 60.5744 21.2743 60.662C19.7512 60.8138 18.351 62.1187 17.7172 63.248L16.2089 65.9954H10.4214L17.2554 54H23.0381L20.5815 58.1851C21.6967 58.0028 22.8258 57.9123 23.9568 57.9146C25.077 57.9004 25.9515 57.9099 25.9515 57.9099Z" fill="#A5A5A5"/>
<path d="M56.3583 65.9953H62.4701L76.9783 54H69.7905L61.8314 60.3393L61.6054 54H56.1372L56.3583 65.9953Z" fill="#A5A5A5"/>
<path d="M48.5956 54C46.1752 54.0502 43.808 54.6953 41.7174 55.8743C40.8081 56.4813 39.9324 57.1338 39.0938 57.8292L29.759 65.9954H35.1634L36.7061 64.5149C37.8625 63.6682 39.2788 63.2189 40.7299 63.2385C42.474 63.2385 44.0363 63.3856 44.0363 63.3856L42.8228 65.9954H47.3723L53.1648 54H48.5956ZM45.24 60.7806H40.9165L42.5968 59.2005C43.5306 58.3828 44.515 57.6206 45.5446 56.9182C46.1237 56.6045 46.7938 56.4844 47.4509 56.5765L45.24 60.7806Z" fill="#A5A5A5"/>
<path d="M86.9518 54C84.5314 54.0502 82.1642 54.6953 80.0736 55.8743C79.1643 56.4813 78.2886 57.1338 77.45 57.8292L68.1152 65.9954H73.5196L75.0623 64.5149C76.2187 63.6682 77.635 63.2189 79.0861 63.2385C80.8302 63.2385 82.3925 63.3856 82.3925 63.3856L81.179 65.9954H85.7383L91.5308 54H86.9518ZM83.5962 60.7806H79.2728L80.953 59.2005C81.8868 58.3828 82.8713 57.6206 83.9008 56.9182C84.4799 56.6045 85.15 56.4844 85.8071 56.5765L83.5962 60.7806Z" fill="#A5A5A5"/>
<path d="M97.8636 61.8954C97.8636 61.8954 100.35 57.5774 100.9 56.6759C101.618 55.5637 102.621 54.6499 103.813 54.0234H96.6796C96.6796 54.0234 92.5625 61.103 91.9581 62.1279C91.2752 63.2904 91.3195 64.7044 92.4986 65.4494C93.2749 65.9476 95.6282 65.9998 95.6282 65.9998H107.474L110.421 62.8728H98.1437C98.0552 62.83 97.977 62.7698 97.9142 62.6959C97.8513 62.6221 97.8052 62.5363 97.7788 62.4442C97.7524 62.3521 97.7463 62.2556 97.7609 62.1611C97.7755 62.0666 97.8105 61.976 97.8636 61.8954Z" fill="#A5A5A5"/>
</svg>
