<svg width="204" height="26" viewBox="0 0 204 26" fill="none" xmlns="http://www.w3.org/2000/svg">
<path d="M31.61 8.24002L36.31 0H48.08L34.17 25.28H22.4L28.48 13.99C26.352 13.8387 24.2154 13.8555 22.09 14.04C18.99 14.36 16.14 17.11 14.85 19.49L11.78 25.28H0L13.91 0H25.68L20.68 8.82001C22.9497 8.43583 25.248 8.24513 27.55 8.25C29.83 8.22 31.61 8.24002 31.61 8.24002Z" fill="#A5A5A5"/>
<path d="M93.4998 25.28H105.94L135.47 0H120.84L104.64 13.36L104.18 0H93.0498L93.4998 25.28Z" fill="#A5A5A5"/>
<path d="M77.6999 0C72.7734 0.105862 67.9552 1.46531 63.6999 3.95001C61.8492 5.22926 60.0668 6.60447 58.3599 8.07001L39.3599 25.28H50.3599L53.4999 22.16C55.8537 20.3755 58.7364 19.4287 61.6899 19.47C65.2399 19.47 68.4199 19.78 68.4199 19.78L65.9499 25.28H75.2099L86.9999 0H77.6999ZM70.8699 14.29H62.0699L65.4899 10.96C67.3906 9.23659 69.3943 7.6303 71.4899 6.15002C72.6685 5.48891 74.0325 5.23579 75.3699 5.43002L70.8699 14.29Z" fill="#A5A5A5"/>
<path d="M155.77 0C150.844 0.105862 146.025 1.46531 141.77 3.95001C139.92 5.22931 138.137 6.60451 136.43 8.07001L117.43 25.28H128.43L131.57 22.16C133.924 20.3755 136.807 19.4287 139.76 19.47C143.31 19.47 146.49 19.78 146.49 19.78L144.02 25.28H153.3L165.09 0H155.77ZM148.94 14.29H140.14L143.56 10.96C145.461 9.23663 147.465 7.63034 149.56 6.15002C150.739 5.48891 152.103 5.23579 153.44 5.43002L148.94 14.29Z" fill="#A5A5A5"/>
<path d="M177.98 16.6398C177.98 16.6398 183.04 7.5398 184.16 5.6398C185.621 3.29587 187.664 1.37007 190.09 0.0498047H175.57C175.57 0.0498047 167.19 14.9698 165.96 17.1298C164.57 19.5798 164.66 22.5598 167.06 24.1298C168.64 25.1798 173.43 25.2898 173.43 25.2898H197.54L203.54 18.6998H178.55C178.37 18.6095 178.211 18.4825 178.083 18.3269C177.955 18.1713 177.861 17.9906 177.807 17.7964C177.754 17.6023 177.741 17.399 177.771 17.1998C177.801 17.0006 177.872 16.8098 177.98 16.6398Z" fill="#A5A5A5"/>
</svg>
