<svg width="121" height="120" viewBox="0 0 121 120" fill="none" xmlns="http://www.w3.org/2000/svg">
<g clip-path="url(#clip0_384_4152)">
<path d="M35.801 56.4568V67.9995H30.3867V57.9022C30.3867 57.9022 30.1703 56.4374 28.5783 56.4374H25.7596V67.9995H20.4969V56.4374H15.7429V67.9995H10.4214V52H30.1703C35.6912 52 35.801 56.4568 35.801 56.4568ZM55.3472 52H68.2075L62.3185 56.4374H55.3477V52M40.9849 58.0169H48.8329V57.2835C48.8329 57.2835 48.8329 56.2366 46.9458 56.2366H36.9525V52H48.5991C54.6733 52 54.0961 57.2068 54.0961 57.2068V64.4133L70.4661 52H84.8731C91.4146 52 92.2397 55.6626 92.2397 60.0873C92.2397 63.2526 91.7924 67.9995 85.248 67.9995H73.3262L73.316 55.5628L56.8531 67.9995L40.9849 67.9959C40.1977 67.9959 35.8044 68.2577 35.8044 62.8442C35.8044 57.6947 40.1977 58.0169 40.9849 58.0169M78.7877 63.5621H83.3701C86.2963 63.5621 86.9143 62.6366 86.9143 60.123C86.9143 57.6021 86.2963 56.4378 83.3701 56.4378H78.7877V63.5621ZM42.5973 63.9954H48.7401L48.7435 61.651H42.6007C42.095 61.651 41.1118 61.651 41.1118 62.7932C41.1118 63.9516 42.0916 63.9954 42.5973 63.9954M71.7716 63.5621V68H59.0942L64.8558 63.5621H71.7716ZM97.2957 58.0169H105.148V57.2835C105.148 57.2835 105.148 56.2366 103.257 56.2366H93.2637V52H104.914C110.981 52 110.407 57.2068 110.407 57.2068V67.9959H97.2952C96.509 67.9959 92.1157 68.2577 92.1157 62.8442C92.1157 57.6947 96.5094 58.0169 97.2957 58.0169M98.9081 63.9954H105.048L105.055 61.651H98.912C98.4068 61.651 97.4202 61.651 97.4202 62.7932C97.4202 63.9516 98.4029 63.9954 98.9081 63.9954" fill="#A5A5A5"/>
</g>
<defs>
<clipPath id="clip0_384_4152">
<rect width="100" height="16" fill="white" transform="translate(10.4214 52)"/>
</clipPath>
</defs>
</svg>
