<svg width="121" height="120" viewBox="0 0 121 120" fill="none" xmlns="http://www.w3.org/2000/svg">
<g clip-path="url(#clip0_384_4156)">
<path fill-rule="evenodd" clip-rule="evenodd" d="M19.9568 60.3062C19.9568 60.1773 19.9612 59.924 19.9612 59.924C16.2793 59.3269 13.6184 57.6883 13.5449 55.7618C12.6384 56.9302 12.124 58.2682 12.124 59.6939C12.124 63.889 16.5803 67.3263 22.2444 67.6327C20.9323 66.778 19.9568 63.8203 19.9568 60.3062ZM10.4214 59.9999C10.4214 55.3059 16.0741 51.5 23.0477 51.5C30.021 51.5 35.6739 55.3059 35.6739 59.9999C35.6739 64.694 30.0209 68.5 23.0477 68.5C16.0741 68.5 10.4214 64.6939 10.4214 59.9999ZM25.9639 57.7791C28.5836 57.3556 30.4173 56.3838 30.4173 55.2529C30.4173 53.7351 27.1175 52.5062 23.0477 52.5062C18.9776 52.5062 15.678 53.7352 15.678 55.2529C15.678 56.3838 17.5114 57.3556 20.1314 57.7791C20.5564 54.837 21.7018 52.7267 23.0477 52.7267C24.3938 52.7267 25.5389 54.8369 25.9639 57.7791ZM23.8509 67.6326C29.5148 67.3263 33.9717 63.8889 33.9717 59.6938C33.9717 58.2682 33.4568 56.9302 32.5503 55.7617C32.4766 57.6882 29.8164 59.3268 26.1341 59.9239C26.1341 59.9239 26.1387 60.1772 26.1387 60.3061C26.1387 63.8202 25.1625 66.7779 23.8509 67.6326H23.8509ZM24.7976 57.923C24.518 56.0359 23.84 54.7039 23.0477 54.7039C22.2553 54.7039 21.5774 56.0359 21.2975 57.923C22.4801 58.0233 23.6454 58.0249 24.7976 57.923ZM21.161 60.0777C21.2072 62.8102 22.0338 64.9899 23.0477 64.9899C24.0611 64.9899 24.8879 62.8103 24.9347 60.0777C23.6394 60.194 22.3748 60.1939 21.161 60.0777Z" fill="#A5A5A5"/>
<path fill-rule="evenodd" clip-rule="evenodd" d="M67.4193 66.2019H70.1055V61.5503L74.7265 53.9519H71.6338L68.7624 59.1008L65.8915 53.9519H62.7978L67.4193 61.5503V66.2019ZM50.1018 60.0003C50.1018 56.4125 52.9168 53.5039 56.3891 53.5039C59.8612 53.5039 62.676 56.4124 62.676 60.0003C62.676 63.5886 59.8612 66.4968 56.3891 66.4968C52.9168 66.4968 50.1018 63.5886 50.1018 60.0003ZM56.3891 64.1146C58.3273 64.1146 59.8993 62.2724 59.8993 60.0003C59.8993 57.7284 58.3274 55.886 56.3891 55.886C54.4507 55.886 52.8787 57.7284 52.8787 60.0003C52.8787 62.2723 54.4507 64.1146 56.3891 64.1146ZM45.7292 66.2019H43.0803V56.2107H39.3848V53.9519H49.4243V56.2107H45.7292V66.2019ZM101.455 63.4457L100.437 66.2019H97.3434L102.234 53.9518H105.53L110.421 66.2019H107.328L106.309 63.4457L101.455 63.4457ZM103.894 56.8951H103.871L102.215 61.3784H105.549L103.894 56.8951ZM94.556 66.2019H91.9073V56.2107H88.2117V53.9519H98.2509V56.2107H94.556V66.2019ZM74.849 60.0003C74.849 56.4125 77.6642 53.5039 81.1353 53.5039C84.6082 53.5039 87.4229 56.4124 87.4229 60.0003C87.4229 63.5886 84.6082 66.4968 81.1353 66.4968C77.6642 66.4968 74.849 63.5886 74.849 60.0003ZM81.1353 64.1146C83.0744 64.1146 84.6463 62.2724 84.6463 60.0003C84.6463 57.7284 83.0744 55.886 81.1353 55.886C79.1975 55.886 77.6259 57.7284 77.6259 60.0003C77.6259 62.2723 79.1975 64.1146 81.1353 64.1146Z" fill="#A5A5A5"/>
</g>
<defs>
<clipPath id="clip0_384_4156">
<rect width="100" height="17" fill="white" transform="translate(10.4214 51.5)"/>
</clipPath>
</defs>
</svg>
