<svg width="136" height="32" viewBox="0 0 136 32" fill="none" xmlns="http://www.w3.org/2000/svg">
<path d="M78.9002 28.2856C78.9002 28.5437 78.9818 28.693 79.1314 28.693C79.2538 28.6794 79.3626 28.6251 79.4578 28.5572L121.845 1.08634C122.561 0.586449 123.419 0.329405 124.293 0.353061H133.608C135.036 0.353061 136.002 1.30361 136.002 2.72944V20.4911C136.002 22.6367 135.526 23.886 133.622 25.0266L122.321 31.8163C122.209 31.8944 122.077 31.9412 121.94 31.9521C121.804 31.9521 121.668 31.8434 121.668 31.4496V10.7276C121.668 10.4832 121.6 10.3203 121.437 10.3203C121.318 10.334 121.205 10.381 121.111 10.456L90.1328 30.5534C89.4257 31.0287 88.5961 31.2867 87.753 31.2731H67.2188C65.7774 31.2731 64.8255 30.3225 64.8255 28.8831V3.28619C64.8255 3.09608 64.7439 2.91955 64.5807 2.91955C64.4616 2.93464 64.3489 2.98155 64.2543 3.05534L43.8153 15.3039C43.6113 15.4396 43.5569 15.5347 43.5569 15.6298C43.5569 15.7112 43.5977 15.7927 43.7337 15.9421L58.3388 30.5127C58.5292 30.7028 58.6652 30.8521 58.6652 31.0151C58.6652 31.1509 58.4476 31.2595 58.1892 31.2595H44.9984C43.9649 31.2595 43.1626 31.1101 42.605 30.5534L33.7522 21.7269C33.7187 21.6868 33.6772 21.654 33.6304 21.6307C33.5836 21.6073 33.5325 21.5938 33.4802 21.5911C33.3842 21.5955 33.2908 21.6235 33.2083 21.6725L18.4128 30.5534C17.5152 31.0966 16.9033 31.2459 16.0194 31.2459H2.40699C0.951916 31.2595 0 30.2954 0 28.8696V11.4473C0 9.28823 0.475958 8.05252 2.39339 6.91186L13.762 0.095055C13.8512 0.0367298 13.9546 0.00386005 14.0612 0C14.2379 0 14.3331 0.176531 14.3331 0.57033V23.8995C14.3331 24.144 14.3875 24.2526 14.5643 24.2526C14.6867 24.239 14.7955 24.1847 14.9043 24.1168L53.3073 1.0456C54.0416 0.543171 54.9391 0.298744 55.8367 0.339482H76.5068C77.9347 0.339482 78.9002 1.29003 78.9002 2.71586L78.8866 28.2856H78.9002Z" fill="#131E29"/>
</svg>
