<svg width="121" height="120" viewBox="0 0 121 120" fill="none" xmlns="http://www.w3.org/2000/svg">
<g clip-path="url(#clip0_384_4164)">
<path fill-rule="evenodd" clip-rule="evenodd" d="M30.7752 48.4417C30.7752 42.0594 43.5539 36.8857 59.318 36.8857C75.0818 36.8857 87.8608 42.0594 87.8608 48.4417C87.8608 54.8239 75.0818 59.9976 59.318 59.9976C43.5542 59.9976 30.7752 54.8242 30.7752 48.4417ZM65.6841 49.4535C65.6802 49.4345 65.6708 49.4172 65.657 49.4037C65.6432 49.3903 65.6257 49.3814 65.6068 49.3782C64.7853 49.2567 63.9602 49.1614 63.1329 49.0923C63.0841 49.0838 63.0497 49.038 63.0818 48.9298C65.7199 46.1203 66.7218 42.5453 65.388 39.7482C65.3895 39.7355 65.3935 39.7232 65.3997 39.712C65.4059 39.7008 65.4142 39.6909 65.4242 39.683C65.4341 39.675 65.4455 39.6692 65.4577 39.6657C65.4699 39.6622 65.4827 39.6612 65.4953 39.6627C74.5732 40.7772 81.2012 44.2861 81.2012 48.4417C81.2012 53.4943 71.4041 57.5903 59.3183 57.5903C47.2326 57.5903 37.4351 53.4946 37.4351 48.4417C37.4351 44.0617 44.7986 40.4002 54.6331 39.5032C54.6809 39.5048 54.7212 39.542 54.7238 39.6183L52.5886 51.519C52.5487 51.7281 52.5549 51.9435 52.6069 52.1499C52.6589 52.3563 52.7553 52.5484 52.8892 52.7127C53.0232 52.8769 53.1914 53.0092 53.3817 53.0999C53.5721 53.1907 53.7799 53.2378 53.9903 53.2377L54.0667 53.2417C55.9712 53.1413 58.0177 52.5397 59.9508 51.4101C60.4986 51.09 61.0258 50.7351 61.5293 50.3476C61.5438 50.3356 61.5615 50.3282 61.5801 50.3263C61.5987 50.3245 61.6175 50.3284 61.634 50.3374C62.2778 50.7713 62.6483 51.2792 62.6483 51.8226C62.6483 52.5607 61.9645 53.2341 60.8397 53.745C59.5328 54.3384 57.6306 54.7114 55.5126 54.7114C53.7176 54.7114 52.0777 54.4433 50.8053 53.9959C50.793 53.9937 50.7803 53.994 50.7681 53.9967C50.7559 53.9995 50.7443 54.0046 50.7341 54.0119C50.7239 54.0192 50.7152 54.0284 50.7085 54.0391C50.7018 54.0498 50.6972 54.0617 50.6951 54.0742L50.5138 55.0831C50.5107 55.1071 50.5166 55.1314 50.5304 55.1512C50.5442 55.171 50.5648 55.1849 50.5882 55.19C53.1762 55.7996 56.1525 56.1463 59.3203 56.1463C63.2609 56.1463 66.4563 54.8525 66.4563 53.2575C66.4563 52.6367 65.9734 52.0621 65.1518 51.5917C64.4319 51.2344 63.9785 50.7713 64.0897 50.4607C64.205 50.1387 64.8937 50.0871 65.7117 50.3101C65.7582 50.3163 65.8031 50.288 65.8196 50.2038L65.6841 49.4535ZM59.318 42.1696C59.318 42.2321 59.3161 42.2943 59.3122 42.3552C59.4162 44.4759 58.1207 47.313 55.7537 49.7088C55.2839 50.1852 54.7835 50.6296 54.2558 51.0394C54.235 51.0528 54.2098 51.0575 54.1856 51.0522C54.1362 51.0417 54.104 50.994 54.1128 50.9354L56.4327 38.0104C56.4314 37.9865 56.4214 37.9639 56.4047 37.9471C56.3879 37.9302 56.3656 37.9202 56.342 37.919C43.5565 38.5275 33.6294 43.0065 33.6294 48.4417C33.6294 54.292 45.1305 59.0344 59.318 59.0344C73.5059 59.0344 85.007 54.292 85.007 48.4417C85.007 42.5913 73.5062 37.8489 59.318 37.8489C58.8685 37.8489 58.4213 37.8538 57.9728 37.8634C57.9516 37.8635 57.931 37.8707 57.9142 37.884C57.8975 37.8973 57.8857 37.9159 57.8805 37.9367L57.6092 39.445C57.6027 39.4854 57.6215 39.5239 57.6547 39.544C58.1511 39.7746 58.5718 40.1446 58.8666 40.61C59.1615 41.0754 59.3181 41.6167 59.318 42.1696ZM32.7158 65.7755V79.9292H40.48V83.114H27.9214V65.7755H32.7158ZM51.4748 76.0884L49.2349 69.7739L46.9956 76.0884H51.4748ZM52.2808 65.7831L58.7905 83.1094H53.8037L52.3702 79.018H46.0999L44.6667 83.1094H40.665L47.1146 65.7831H52.2808ZM64.1014 79.9193H66.2509C67.535 79.9193 69.2373 79.6926 70.342 78.2019C71.446 76.7121 71.4766 74.969 71.4766 74.2621C71.4766 73.3522 71.357 71.5091 70.0736 70.2206C68.8785 69.0591 67.3257 68.9578 66.1615 68.9578H64.1014V79.9193ZM59.3232 65.7755H66.3403C68.3712 65.7755 71.4464 65.9775 73.8059 68.0236C75.7169 69.6653 76.6126 72.3426 76.6126 74.4137C76.6126 75.9288 76.1355 79.0354 73.5075 81.1321C71.4168 82.7989 69.0583 83.1022 66.8483 83.1022H59.3235V65.7755H59.3232ZM85.6056 76.0805L83.3664 69.7663L81.1268 76.0805H85.6056ZM86.412 65.7755L92.9214 83.1019H87.9346L86.5017 79.0101H80.2311L78.7972 83.1019H74.7958L81.2461 65.7752H86.412V65.7755Z" fill="#A5A5A5"/>
</g>
<defs>
<clipPath id="clip0_384_4164">
<rect width="65" height="47" fill="white" transform="translate(27.9214 36.5)"/>
</clipPath>
</defs>
</svg>
