<svg width="121" height="120" viewBox="0 0 121 120" fill="none" xmlns="http://www.w3.org/2000/svg">
<g clip-path="url(#clip0_384_4158)">
<path d="M68.4362 69.2142C68.4362 69.4077 68.4962 69.5198 68.6062 69.5198C68.6962 69.5096 68.7762 69.4688 68.8462 69.4179L100.013 48.8148C100.54 48.4398 101.171 48.2471 101.813 48.2648H108.663C109.713 48.2648 110.423 48.9777 110.423 50.0471V63.3684C110.423 64.9775 110.073 65.9145 108.673 66.77L100.363 71.8622C100.281 71.9208 100.184 71.9559 100.083 71.964C99.9835 71.964 99.8835 71.8826 99.8835 71.5872V56.0457C99.8835 55.8624 99.8335 55.7402 99.7135 55.7402C99.6257 55.7505 99.5425 55.7858 99.4735 55.842L76.6955 70.915C76.1756 71.2715 75.5656 71.465 74.9457 71.4548H59.847C58.7871 71.4548 58.0872 70.7419 58.0872 69.6624V50.4646C58.0872 50.3221 58.0272 50.1897 57.9072 50.1897C57.8196 50.201 57.7367 50.2362 57.6672 50.2915L42.6385 59.4779C42.4885 59.5797 42.4485 59.651 42.4485 59.7223C42.4485 59.7834 42.4785 59.8445 42.5785 59.9566L53.3176 70.8845C53.4576 71.0271 53.5576 71.1391 53.5576 71.2613C53.5576 71.3632 53.3976 71.4446 53.2076 71.4446H43.5085C42.7485 71.4446 42.1586 71.3326 41.7486 70.915L35.2392 64.2951C35.2145 64.2651 35.184 64.2405 35.1496 64.223C35.1152 64.2055 35.0776 64.1954 35.0392 64.1933C34.9686 64.1966 34.8999 64.2176 34.8392 64.2544L23.9602 70.915C23.3002 71.3224 22.8503 71.4345 22.2003 71.4345H12.1912C11.1213 71.4446 10.4214 70.7215 10.4214 69.6522V56.5855C10.4214 54.9662 10.7714 54.0394 12.1812 53.1839L20.5405 48.0713C20.6061 48.0275 20.6821 48.0029 20.7605 48C20.8905 48 20.9605 48.1324 20.9605 48.4277V65.9247C20.9605 66.108 21.0005 66.1895 21.1304 66.1895C21.2204 66.1793 21.3004 66.1385 21.3804 66.0876L49.6179 48.7842C50.1579 48.4074 50.8178 48.2241 51.4777 48.2546H66.6764C67.7263 48.2546 68.4362 48.9675 68.4362 50.0369L68.4263 69.2142H68.4362Z" fill="#A5A5A5"/>
</g>
<defs>
<clipPath id="clip0_384_4158">
<rect width="100" height="24" fill="white" transform="translate(10.4214 48)"/>
</clipPath>
</defs>
</svg>
