<svg width="130" height="28" viewBox="0 0 130 28" fill="none" xmlns="http://www.w3.org/2000/svg">
<path d="M27.9674 1.38337C21.0505 1.38337 15.4617 7.02751 15.4617 13.889C15.4617 20.8059 21.1059 26.3947 27.9674 26.3947C34.8842 26.3947 40.473 20.7505 40.473 13.889C40.473 6.97218 34.8842 1.38337 27.9674 1.38337ZM27.9674 27.778C20.2759 27.778 14.0784 21.5252 14.0784 13.889C14.0784 6.19749 20.3312 0 27.9674 0C35.6589 0 41.8564 6.25282 41.8564 13.889C41.8564 21.5805 35.6589 27.778 27.9674 27.778Z" fill="white" fill-opacity="0.3"/>
<path d="M27.9673 5.14606C23.1532 5.14606 19.2244 9.07483 19.2244 13.8889C19.2244 18.7031 23.1532 22.6318 27.9673 22.6318C32.7814 22.6318 36.7102 18.7031 36.7102 13.8889C36.7102 9.07483 32.7814 5.14606 27.9673 5.14606ZM27.9673 24.0152C22.3785 24.0152 17.8411 19.4778 17.8411 13.8889C17.8411 8.30014 22.3785 3.7627 27.9673 3.7627C33.5561 3.7627 38.0936 8.30014 38.0936 13.8889C38.0936 19.4778 33.5561 24.0152 27.9673 24.0152Z" fill="white" fill-opacity="0.3"/>
<path d="M27.9672 8.79841C25.1451 8.79841 22.8764 11.0671 22.8764 13.8892C22.8764 16.7113 25.1451 18.98 27.9672 18.98C30.7893 18.98 33.058 16.7113 33.058 13.8892C33.058 11.0671 30.7893 8.79841 27.9672 8.79841ZM27.9672 20.3634C24.3704 20.3634 21.493 17.4306 21.493 13.8892C21.493 10.2925 24.4258 7.41504 27.9672 7.41504C31.564 7.41504 34.4414 10.3478 34.4414 13.8892C34.4414 17.486 31.564 20.3634 27.9672 20.3634Z" fill="white" fill-opacity="0.3"/>
<path d="M29.5717 13.7227C29.461 15.8254 26.4176 15.8254 26.307 13.7227C26.1963 11.62 29.461 11.62 29.5717 13.7227C29.627 14.5527 30.8997 14.5527 30.8444 13.7227C30.7337 12.0627 29.5717 10.9006 27.9117 10.79C26.2516 10.6793 25.0343 12.1733 24.9789 13.7227C24.8683 15.3828 26.3623 16.6001 27.9117 16.6555C29.5717 16.7661 30.7891 15.2721 30.8444 13.7227C30.8997 12.8927 29.627 12.948 29.5717 13.7227Z" fill="white" fill-opacity="0.3"/>
<path d="M13.889 1.38337C6.97218 1.38337 1.38337 7.02751 1.38337 13.889C1.38337 20.8059 7.02751 26.3947 13.889 26.3947C20.8059 26.3947 26.3947 20.7505 26.3947 13.889C26.3947 6.97218 20.7505 1.38337 13.889 1.38337ZM13.889 27.778C6.19749 27.778 0 21.5252 0 13.889C0 6.19749 6.25282 0 13.889 0C21.5805 0 27.778 6.25282 27.778 13.889C27.778 21.5805 21.5252 27.778 13.889 27.778Z" fill="white"/>
<path d="M13.8889 5.14606C9.07483 5.14606 5.14606 9.07483 5.14606 13.8889C5.14606 18.7031 9.07483 22.6318 13.8889 22.6318C18.7031 22.6318 22.6318 18.7031 22.6318 13.8889C22.6318 9.07483 18.7031 5.14606 13.8889 5.14606ZM13.8889 24.0152C8.30014 24.0152 3.7627 19.4778 3.7627 13.8889C3.7627 8.30014 8.30014 3.7627 13.8889 3.7627C19.4778 3.7627 24.0152 8.30014 24.0152 13.8889C24.0152 19.4778 19.4778 24.0152 13.8889 24.0152Z" fill="white"/>
<path d="M13.889 8.79841C11.0669 8.79841 8.79816 11.0671 8.79816 13.8892C8.79816 16.7113 11.0669 18.98 13.889 18.98C16.711 18.98 18.9797 16.7113 18.9797 13.8892C18.9797 11.0671 16.6557 8.79841 13.889 8.79841ZM13.889 20.3634C10.2922 20.3634 7.41479 17.4306 7.41479 13.8892C7.41479 10.2925 10.3475 7.41504 13.889 7.41504C17.4857 7.41504 20.3631 10.3478 20.3631 13.8892C20.3631 17.486 17.4304 20.3634 13.889 20.3634Z" fill="white"/>
<path d="M15.4936 13.7227C15.3829 15.8254 12.3395 15.8254 12.2288 13.7227C12.0628 11.62 15.3829 11.62 15.4936 13.7227C15.5489 14.5527 16.8216 14.5527 16.7663 13.7227C16.6556 12.0627 15.4936 10.9006 13.8336 10.79C12.1735 10.6793 10.9561 12.1733 10.9008 13.7227C10.7901 15.3828 12.2842 16.6001 13.8336 16.6555C15.4936 16.7661 16.711 15.2721 16.7663 13.7227C16.8216 12.8927 15.5489 12.948 15.4936 13.7227Z" fill="white"/>
<path d="M55.738 12.4899C55.1247 12.7516 54.4807 12.8824 53.806 12.8824C53.1314 12.8824 52.4874 12.7516 51.874 12.4899C51.2648 12.2241 50.7394 11.8689 50.2978 11.4245C49.8562 10.9759 49.5045 10.4442 49.2428 9.82948C48.9852 9.21058 48.8564 8.56261 48.8564 7.88556C48.8564 7.20435 48.9852 6.55638 49.2428 5.94163C49.5045 5.32273 49.8562 4.79106 50.2978 4.34662C50.7394 3.90217 51.2648 3.54911 51.874 3.28743C52.4874 3.02159 53.1314 2.88867 53.806 2.88867C54.4807 2.88867 55.1247 3.02159 55.738 3.28743C56.3513 3.54911 56.8788 3.90217 57.3204 4.34662C57.7661 4.79106 58.1198 5.32273 58.3815 5.94163C58.6431 6.55638 58.774 7.20435 58.774 7.88556C58.774 8.56676 58.6431 9.21681 58.3815 9.83571C58.1198 10.4505 57.7661 10.9801 57.3204 11.4245C56.8788 11.8689 56.3513 12.2241 55.738 12.4899ZM53.806 12.2282C54.3866 12.2282 54.9407 12.114 55.4681 11.8856C55.9997 11.6571 56.4576 11.3497 56.842 10.9634C57.2264 10.573 57.531 10.1099 57.7559 9.57403C57.9848 9.0382 58.0993 8.47538 58.0993 7.88556C58.0993 7.09636 57.9071 6.36738 57.5228 5.69864C57.1384 5.0299 56.6171 4.50238 55.9588 4.11609C55.3005 3.72564 54.5829 3.53042 53.806 3.53042C53.0332 3.53042 52.3177 3.72564 51.6594 4.11609C51.0051 4.50238 50.4859 5.0299 50.1015 5.69864C49.7212 6.36738 49.5311 7.09636 49.5311 7.88556C49.5311 8.6706 49.7212 9.3975 50.1015 10.0662C50.4859 10.7308 51.0051 11.2583 51.6594 11.6488C52.3177 12.0351 53.0332 12.2282 53.806 12.2282Z" fill="white"/>
<path d="M65.1845 6.62076C66.5993 6.62076 67.3066 7.49303 67.3066 9.23758V12.6519H66.6626V9.23135C66.6626 8.53353 66.5257 8.02263 66.2517 7.69864C65.9777 7.3705 65.5689 7.20643 65.025 7.20643C64.6775 7.20643 64.3279 7.31235 63.9762 7.52419C63.6246 7.73602 63.3241 8.02263 63.0747 8.384L63.0808 12.6519H62.4368V6.81391H63.0072L63.0747 7.61141V7.72979C63.3445 7.3975 63.6696 7.12959 64.0498 6.92605C64.4301 6.72252 64.8083 6.62076 65.1845 6.62076Z" fill="white"/>
<path d="M76.1705 9.38711C76.1705 9.69864 76.1623 9.88971 76.1459 9.96032H71.3742C71.3906 10.6332 71.6298 11.1877 72.0918 11.6239C72.558 12.0559 73.1263 12.2718 73.7969 12.2718C74.0831 12.2718 74.3591 12.2345 74.6249 12.1597C74.8907 12.0849 75.1053 12.006 75.2689 11.9229C75.4324 11.8357 75.6451 11.7111 75.9067 11.5491L75.8761 12.2033C75.6512 12.3279 75.4651 12.4255 75.3179 12.4961C75.1707 12.5668 74.9459 12.6436 74.6433 12.7267C74.3407 12.8098 74.0381 12.8513 73.7355 12.8513C72.8564 12.8513 72.1368 12.5522 71.5766 11.9541C71.0165 11.3518 70.7364 10.5875 70.7364 9.66126C70.7364 9.21681 70.81 8.80352 70.9572 8.42138C71.1085 8.03924 71.3109 7.71733 71.5644 7.45565C71.822 7.19397 72.1204 6.98836 72.4598 6.83883C72.8033 6.68929 73.1652 6.61453 73.5454 6.61453C74.3305 6.61453 74.9643 6.87829 75.4467 7.40581C75.9292 7.93332 76.1705 8.59376 76.1705 9.38711ZM71.3742 9.41204H75.5817C75.598 8.72252 75.4099 8.18047 75.0174 7.78587C74.6249 7.39127 74.1363 7.19397 73.5516 7.19397C72.93 7.19397 72.4148 7.40165 72.006 7.81702C71.6012 8.22824 71.3906 8.75991 71.3742 9.41204Z" fill="white"/>
<path d="M81.5751 12.6519V3.77341H78.7415V3.13789H85.0772V3.77341H82.2559V12.6519H81.5751Z" fill="white"/>
<path d="M94.8917 6.81391L92.4016 12.8887L90.5862 8.19085L88.7707 12.8762L86.2867 6.81391H86.943L88.7707 11.3747L90.5739 6.73291L92.4078 11.3871L94.2293 6.81391H94.8917Z" fill="white"/>
<path d="M100.499 12.8451C99.6197 12.8451 98.8817 12.5481 98.2847 11.9541C97.6877 11.356 97.3892 10.6166 97.3892 9.73602C97.3892 8.85544 97.6877 8.11609 98.2847 7.51796C98.8817 6.91567 99.6217 6.61453 100.505 6.61453C101.384 6.61453 102.122 6.91567 102.719 7.51796C103.32 8.11609 103.621 8.85544 103.621 9.73602C103.621 10.6166 103.32 11.356 102.719 11.9541C102.122 12.5481 101.382 12.8451 100.499 12.8451ZM100.511 12.2594C101.206 12.2594 101.793 12.0164 102.271 11.5304C102.75 11.0444 102.989 10.4463 102.989 9.73602C102.989 9.02159 102.748 8.42138 102.265 7.9354C101.787 7.44527 101.2 7.2002 100.505 7.2002C99.8057 7.2002 99.2149 7.44527 98.7324 7.9354C98.254 8.42138 98.0148 9.02159 98.0148 9.73602C98.0148 10.4505 98.254 11.0507 98.7324 11.5366C99.2149 12.0185 99.8078 12.2594 100.511 12.2594Z" fill="white"/>
<path d="M111.669 12.8824C110.769 12.8824 109.941 12.6623 109.185 12.222C108.432 11.7817 107.838 11.1794 107.4 10.4152C106.967 9.65087 106.75 8.81183 106.75 7.89802C106.75 7.20851 106.879 6.55638 107.136 5.94163C107.394 5.32273 107.741 4.79106 108.179 4.34662C108.621 3.90217 109.146 3.55118 109.755 3.29366C110.369 3.03197 111.015 2.90113 111.693 2.90113C112.151 2.90113 112.656 2.99667 113.208 3.18774C113.76 3.37465 114.222 3.60726 114.594 3.88556V4.62699C114.251 4.32377 113.801 4.06832 113.245 3.86063C112.693 3.6488 112.178 3.54288 111.699 3.54288C110.91 3.54288 110.189 3.73602 109.534 4.12232C108.88 4.50446 108.363 5.0299 107.983 5.69864C107.606 6.36323 107.418 7.09636 107.418 7.89802C107.418 8.69553 107.606 9.42657 107.983 10.0912C108.363 10.7558 108.88 11.2791 109.534 11.6613C110.189 12.0434 110.91 12.2345 111.699 12.2345C112.182 12.2345 112.703 12.1285 113.263 11.9167C113.824 11.7049 114.277 11.4432 114.625 11.1317L114.613 11.8856C114.241 12.1722 113.775 12.411 113.214 12.6021C112.658 12.789 112.143 12.8824 111.669 12.8824Z" fill="white"/>
<path d="M120.447 6.62076C121.269 6.62076 121.857 6.82844 122.213 7.24381C122.569 7.65918 122.747 8.2407 122.747 8.98836V12.6519H122.176L122.103 11.8544V11.8046C121.829 12.1244 121.502 12.3778 121.121 12.5647C120.745 12.7516 120.351 12.8451 119.938 12.8451C119.341 12.8451 118.87 12.6893 118.527 12.3778C118.188 12.0662 118.018 11.6322 118.018 11.0756C118.018 10.5107 118.224 10.0704 118.637 9.75472C119.054 9.43903 119.594 9.2812 120.257 9.2812C120.784 9.2812 121.399 9.34558 122.103 9.47434V8.98836C122.103 8.74329 122.08 8.5273 122.035 8.34038C121.994 8.15347 121.915 7.97071 121.796 7.7921C121.682 7.61349 121.504 7.47642 121.262 7.38088C121.025 7.2812 120.729 7.23135 120.373 7.23135C119.67 7.23135 118.944 7.45773 118.196 7.91048L118.251 7.25004C118.962 6.83052 119.694 6.62076 120.447 6.62076ZM120.103 12.2594C120.5 12.2594 120.87 12.1597 121.213 11.9603C121.561 11.7609 121.857 11.4868 122.103 11.1379V9.97901C121.457 9.8544 120.874 9.7921 120.355 9.7921C119.835 9.7921 119.422 9.89386 119.116 10.0974C118.809 10.2968 118.656 10.6062 118.656 11.0257C118.652 11.4079 118.776 11.709 119.03 11.9292C119.288 12.1493 119.645 12.2594 120.103 12.2594Z" fill="white"/>
<path d="M129.832 6.74537L129.856 7.36842C129.607 7.26873 129.323 7.21889 129.004 7.21889C128.685 7.21889 128.38 7.32273 128.09 7.53042C127.8 7.73395 127.55 8.02886 127.342 8.41515L127.348 12.6519H126.704V6.81391H127.274L127.342 7.67995C127.579 7.33519 127.845 7.07143 128.139 6.88867C128.438 6.70591 128.744 6.61453 129.059 6.61453C129.329 6.61453 129.587 6.65814 129.832 6.74537Z" fill="white"/>
<g opacity="0.5">
<path d="M50 18.3127H53.6335V23.7986H53.1184V18.8348H50.5151V23.7986H50V18.3127Z" fill="white"/>
<path d="M54.883 18.3127H57.8169V18.8535H55.3946V20.569H57.7961V21.106H55.3946V23.2578H57.7961V23.7986H54.883V18.3127Z" fill="white"/>
<path d="M58.6975 18.3127H59.7172C60.3019 18.3127 60.6964 18.3401 60.9005 18.3948C61.1929 18.4718 61.4319 18.631 61.6175 18.8721C61.8031 19.1108 61.8959 19.4116 61.8959 19.7746C61.8959 20.1401 61.8054 20.4422 61.6245 20.6809C61.4435 20.9171 61.1941 21.0762 60.8762 21.1582C60.6442 21.2179 60.2103 21.2477 59.5745 21.2477H59.2091V23.7986H58.6975V18.3127ZM59.2091 18.846V20.7107L60.0757 20.7219C60.4261 20.7219 60.6824 20.6883 60.8449 20.6212C61.0073 20.5516 61.1349 20.4409 61.2277 20.2893C61.3205 20.1351 61.3669 19.9636 61.3669 19.7746C61.3669 19.5907 61.3205 19.4228 61.2277 19.2712C61.1349 19.117 61.0119 19.0076 60.8588 18.943C60.708 18.8783 60.4597 18.846 60.114 18.846H59.2091Z" fill="white"/>
<path d="M62.9331 18.3127H63.9424C64.3484 18.3127 64.6605 18.3649 64.8786 18.4694C65.0967 18.5713 65.2684 18.7292 65.3937 18.943C65.5213 19.1568 65.5851 19.3942 65.5851 19.6553C65.5851 19.8989 65.5295 20.1215 65.4181 20.3228C65.3067 20.5217 65.1431 20.6833 64.9273 20.8077C65.1942 20.9046 65.3995 21.019 65.5434 21.1508C65.6872 21.28 65.7986 21.4379 65.8775 21.6244C65.9587 21.8084 65.9993 22.0085 65.9993 22.2248C65.9993 22.6649 65.8485 23.0378 65.5469 23.3436C65.2475 23.6469 64.845 23.7986 64.3392 23.7986H62.9331V18.3127ZM63.4343 18.8498V20.6063H63.7266C64.0816 20.6063 64.3426 20.5715 64.5097 20.5019C64.6768 20.4298 64.809 20.3179 64.9065 20.1662C65.0039 20.0121 65.0526 19.8418 65.0526 19.6553C65.0526 19.4042 64.9703 19.2078 64.8055 19.0661C64.6431 18.9219 64.3832 18.8498 64.0259 18.8498H63.4343ZM63.4343 21.1582V23.2616H64.0677C64.4413 23.2616 64.715 23.223 64.8891 23.146C65.0631 23.0664 65.2023 22.9433 65.3067 22.7768C65.4134 22.6102 65.4668 22.4299 65.4668 22.236C65.4668 21.9923 65.3926 21.7798 65.2441 21.5983C65.0956 21.4168 64.8914 21.2925 64.6315 21.2253C64.4575 21.1806 64.1547 21.1582 63.7231 21.1582H63.4343Z" fill="white"/>
<path d="M67.0086 18.3127H67.5202V20.6659H67.8892C68.5597 20.6659 69.0412 20.7008 69.3335 20.7704C69.6259 20.84 69.8614 21.0003 70.04 21.2515C70.2187 21.5001 70.308 21.822 70.308 22.2174C70.308 22.6052 70.221 22.9272 70.047 23.1833C69.873 23.4368 69.6514 23.6034 69.3822 23.683C69.1131 23.7601 68.6618 23.7986 68.0284 23.7986H67.0086V18.3127ZM67.5202 23.269H68.0667C68.6421 23.269 69.0168 23.2404 69.1908 23.1833C69.3672 23.1236 69.5064 23.0142 69.6085 22.8551C69.7129 22.6959 69.7651 22.4921 69.7651 22.2435C69.7651 21.97 69.7001 21.7475 69.5702 21.5759C69.4402 21.4044 69.2743 21.2999 69.0725 21.2626C68.8729 21.2229 68.4994 21.203 67.9518 21.203H67.5202V23.269ZM70.9101 18.3127H71.4217V23.7986H70.9101V18.3127Z" fill="white"/>
<path d="M76.6875 23.7986H76.1551V19.5956L72.7826 23.7986H72.6677V18.3127H73.1793V22.5903L76.5727 18.3127H76.6875V23.7986ZM73.4438 17H73.9032C73.9821 17.1293 74.0877 17.2262 74.22 17.2909C74.3522 17.3555 74.51 17.3879 74.6933 17.3879C74.8789 17.3879 75.0286 17.3593 75.1423 17.3021C75.256 17.2449 75.3638 17.1442 75.4659 17H75.9114C75.8604 17.2238 75.7293 17.4115 75.5181 17.5631C75.3093 17.7123 75.0332 17.7869 74.6898 17.7869C74.3487 17.7869 74.0703 17.7135 73.8545 17.5669C73.6387 17.4177 73.5018 17.2287 73.4438 17Z" fill="white"/>
<path d="M82.3571 18.1747C83.1321 18.1747 83.7806 18.452 84.3026 19.0064C84.8247 19.5608 85.0857 20.2433 85.0857 21.0538C85.0857 21.8568 84.8247 22.5381 84.3026 23.0975C83.7829 23.6569 83.1483 23.9366 82.3989 23.9366C81.6401 23.9366 80.9997 23.6581 80.4777 23.1012C79.9556 22.5443 79.6946 21.8705 79.6946 21.0799C79.6946 20.5528 79.8129 20.0643 80.0496 19.6143C80.2886 19.1643 80.6134 18.8125 81.0241 18.5589C81.4348 18.3028 81.8791 18.1747 82.3571 18.1747ZM82.3815 18.7118C82.0033 18.7118 81.6448 18.8174 81.306 19.0288C80.9673 19.2401 80.7027 19.5248 80.5125 19.8828C80.3222 20.2408 80.2271 20.6398 80.2271 21.0799C80.2271 21.7313 80.4371 22.282 80.857 22.732C81.2793 23.1795 81.7875 23.4033 82.3815 23.4033C82.7782 23.4033 83.1448 23.3001 83.4813 23.0937C83.82 22.8874 84.0834 22.6052 84.2713 22.2472C84.4616 21.8892 84.5567 21.4914 84.5567 21.0538C84.5567 20.6187 84.4616 20.2259 84.2713 19.8753C84.0834 19.5223 83.8177 19.2401 83.4743 19.0288C83.1309 18.8174 82.7666 18.7118 82.3815 18.7118Z" fill="white"/>
<path d="M86.1159 23.7986V18.3127H86.2273L89.6311 22.512V18.3127H90.1357V23.7986H90.0209L86.6449 19.6516V23.7986H86.1159Z" fill="white"/>
<path d="M91.3887 18.3127H91.9038V23.269H93.8702V23.7986H91.3887V18.3127Z" fill="white"/>
<path d="M94.608 18.3127H95.1196V23.7986H94.608V18.3127Z" fill="white"/>
<path d="M96.2995 23.7986V18.3127H96.4109L99.8147 22.512V18.3127H100.319V23.7986H100.204L96.8285 19.6516V23.7986H96.2995Z" fill="white"/>
<path d="M101.576 18.3127H104.51V18.8535H102.087V20.569H104.489V21.106H102.087V23.2578H104.489V23.7986H101.576V18.3127Z" fill="white"/>
<path d="M107.357 24.619H106.852V23.2877H107.27L109.278 18.3127H109.455L111.575 23.2877H111.975V24.619H111.47V23.7986H107.357V24.619ZM107.847 23.2877H110.969L109.368 19.4464L107.847 23.2877Z" fill="white"/>
<path d="M116.726 23.7986H116.193V19.5956L112.821 23.7986H112.706V18.3127H113.218V22.5903L116.611 18.3127H116.726V23.7986Z" fill="white"/>
<path d="M122.124 23.7986H121.567L119.872 19.5583L118.146 23.7986H117.589L119.816 18.3127H119.928L122.124 23.7986Z" fill="white"/>
<path d="M122.987 18.3127H125.921V18.8535H123.499V20.569H125.9V21.106H123.499V23.2578H125.9V23.7986H122.987V18.3127Z" fill="white"/>
<path d="M126.802 18.3127H127.821C128.406 18.3127 128.8 18.3401 129.005 18.3948C129.297 18.4718 129.536 18.631 129.722 18.8721C129.907 19.1108 130 19.4116 130 19.7746C130 20.1401 129.91 20.4422 129.729 20.6809C129.548 20.9171 129.298 21.0762 128.98 21.1582C128.748 21.2179 128.314 21.2477 127.679 21.2477H127.313V23.7986H126.802V18.3127ZM127.313 18.846V20.7107L128.18 20.7219C128.53 20.7219 128.787 20.6883 128.949 20.6212C129.111 20.5516 129.239 20.4409 129.332 20.2893C129.425 20.1351 129.471 19.9636 129.471 19.7746C129.471 19.5907 129.425 19.4228 129.332 19.2712C129.239 19.117 129.116 19.0076 128.963 18.943C128.812 18.8783 128.564 18.846 128.218 18.846H127.313Z" fill="white"/>
</g>
</svg>
