<svg width="130" height="28" viewBox="0 0 130 28" fill="none" xmlns="http://www.w3.org/2000/svg">
<path d="M27.9674 1.38337C21.0505 1.38337 15.4617 7.02751 15.4617 13.889C15.4617 20.8059 21.1059 26.3947 27.9674 26.3947C34.8842 26.3947 40.473 20.7505 40.473 13.889C40.473 6.97218 34.8842 1.38337 27.9674 1.38337ZM27.9674 27.778C20.2759 27.778 14.0784 21.5252 14.0784 13.889C14.0784 6.19749 20.3312 0 27.9674 0C35.6589 0 41.8564 6.25282 41.8564 13.889C41.8564 21.5805 35.6589 27.778 27.9674 27.778Z" fill="white" fill-opacity="0.3"/>
<path d="M27.9673 5.14606C23.1532 5.14606 19.2244 9.07483 19.2244 13.8889C19.2244 18.7031 23.1532 22.6318 27.9673 22.6318C32.7814 22.6318 36.7102 18.7031 36.7102 13.8889C36.7102 9.07483 32.7814 5.14606 27.9673 5.14606ZM27.9673 24.0152C22.3785 24.0152 17.8411 19.4778 17.8411 13.8889C17.8411 8.30014 22.3785 3.7627 27.9673 3.7627C33.5561 3.7627 38.0936 8.30014 38.0936 13.8889C38.0936 19.4778 33.5561 24.0152 27.9673 24.0152Z" fill="white" fill-opacity="0.3"/>
<path d="M27.9671 8.79841C25.145 8.79841 22.8763 11.0671 22.8763 13.8892C22.8763 16.7113 25.145 18.98 27.9671 18.98C30.7891 18.98 33.0579 16.7113 33.0579 13.8892C33.0579 11.0671 30.7891 8.79841 27.9671 8.79841ZM27.9671 20.3634C24.3703 20.3634 21.4929 17.4306 21.4929 13.8892C21.4929 10.2925 24.4257 7.41504 27.9671 7.41504C31.5638 7.41504 34.4412 10.3478 34.4412 13.8892C34.4412 17.486 31.5638 20.3634 27.9671 20.3634Z" fill="white" fill-opacity="0.3"/>
<path d="M29.5717 13.7227C29.461 15.8254 26.4176 15.8254 26.307 13.7227C26.1963 11.62 29.461 11.62 29.5717 13.7227C29.627 14.5527 30.8997 14.5527 30.8444 13.7227C30.7337 12.0627 29.5717 10.9006 27.9117 10.79C26.2516 10.6793 25.0343 12.1733 24.9789 13.7227C24.8683 15.3828 26.3623 16.6001 27.9117 16.6555C29.5717 16.7661 30.7891 15.2721 30.8444 13.7227C30.8997 12.8927 29.627 12.948 29.5717 13.7227Z" fill="white" fill-opacity="0.3"/>
<path d="M13.889 1.38337C6.97218 1.38337 1.38337 7.02751 1.38337 13.889C1.38337 20.8059 7.02751 26.3947 13.889 26.3947C20.8059 26.3947 26.3947 20.7505 26.3947 13.889C26.3947 6.97218 20.7505 1.38337 13.889 1.38337ZM13.889 27.778C6.19749 27.778 0 21.5252 0 13.889C0 6.19749 6.25282 0 13.889 0C21.5805 0 27.778 6.25282 27.778 13.889C27.778 21.5805 21.5252 27.778 13.889 27.778Z" fill="white"/>
<path d="M13.8889 5.14606C9.07483 5.14606 5.14606 9.07483 5.14606 13.8889C5.14606 18.7031 9.07483 22.6318 13.8889 22.6318C18.7031 22.6318 22.6318 18.7031 22.6318 13.8889C22.6318 9.07483 18.7031 5.14606 13.8889 5.14606ZM13.8889 24.0152C8.30014 24.0152 3.7627 19.4778 3.7627 13.8889C3.7627 8.30014 8.30014 3.7627 13.8889 3.7627C19.4778 3.7627 24.0152 8.30014 24.0152 13.8889C24.0152 19.4778 19.4778 24.0152 13.8889 24.0152Z" fill="white"/>
<path d="M13.889 8.79841C11.0669 8.79841 8.79816 11.0671 8.79816 13.8892C8.79816 16.7113 11.0669 18.98 13.889 18.98C16.711 18.98 18.9797 16.7113 18.9797 13.8892C18.9797 11.0671 16.6557 8.79841 13.889 8.79841ZM13.889 20.3634C10.2922 20.3634 7.41479 17.4306 7.41479 13.8892C7.41479 10.2925 10.3475 7.41504 13.889 7.41504C17.4857 7.41504 20.3631 10.3478 20.3631 13.8892C20.3631 17.486 17.4304 20.3634 13.889 20.3634Z" fill="white"/>
<path d="M15.4936 13.7227C15.3829 15.8254 12.3395 15.8254 12.2288 13.7227C12.0628 11.62 15.3829 11.62 15.4936 13.7227C15.5489 14.5527 16.8216 14.5527 16.7663 13.7227C16.6556 12.0627 15.4936 10.9006 13.8336 10.79C12.1735 10.6793 10.9561 12.1733 10.9008 13.7227C10.7901 15.3828 12.2842 16.6001 13.8336 16.6555C15.4936 16.7661 16.711 15.2721 16.7663 13.7227C16.8216 12.8927 15.5489 12.948 15.4936 13.7227Z" fill="white"/>
<path d="M55.738 18.4899C55.1247 18.7516 54.4807 18.8824 53.806 18.8824C53.1314 18.8824 52.4874 18.7516 51.874 18.4899C51.2648 18.2241 50.7394 17.8689 50.2978 17.4245C49.8562 16.9759 49.5045 16.4442 49.2428 15.8295C48.9852 15.2106 48.8564 14.5626 48.8564 13.8856C48.8564 13.2044 48.9852 12.5564 49.2428 11.9416C49.5045 11.3227 49.8562 10.7911 50.2978 10.3466C50.7394 9.90217 51.2648 9.54911 51.874 9.28743C52.4874 9.02159 53.1314 8.88867 53.806 8.88867C54.4807 8.88867 55.1247 9.02159 55.738 9.28743C56.3513 9.54911 56.8788 9.90217 57.3204 10.3466C57.7661 10.7911 58.1198 11.3227 58.3815 11.9416C58.6431 12.5564 58.774 13.2044 58.774 13.8856C58.774 14.5668 58.6431 15.2168 58.3815 15.8357C58.1198 16.4505 57.7661 16.9801 57.3204 17.4245C56.8788 17.8689 56.3513 18.2241 55.738 18.4899ZM53.806 18.2282C54.3866 18.2282 54.9407 18.114 55.4681 17.8856C55.9997 17.6571 56.4576 17.3497 56.842 16.9634C57.2264 16.573 57.531 16.1099 57.7559 15.574C57.9848 15.0382 58.0993 14.4754 58.0993 13.8856C58.0993 13.0964 57.9071 12.3674 57.5228 11.6986C57.1384 11.0299 56.6171 10.5024 55.9588 10.1161C55.3005 9.72564 54.5829 9.53042 53.806 9.53042C53.0332 9.53042 52.3177 9.72564 51.6594 10.1161C51.0051 10.5024 50.4859 11.0299 50.1015 11.6986C49.7212 12.3674 49.5311 13.0964 49.5311 13.8856C49.5311 14.6706 49.7212 15.3975 50.1015 16.0662C50.4859 16.7308 51.0051 17.2583 51.6594 17.6488C52.3177 18.0351 53.0332 18.2282 53.806 18.2282Z" fill="white"/>
<path d="M65.1845 12.6208C66.5993 12.6208 67.3066 13.493 67.3066 15.2376V18.6519H66.6626V15.2314C66.6626 14.5335 66.5257 14.0226 66.2517 13.6986C65.9777 13.3705 65.5689 13.2064 65.025 13.2064C64.6775 13.2064 64.3279 13.3123 63.9762 13.5242C63.6246 13.736 63.3241 14.0226 63.0747 14.384L63.0808 18.6519H62.4368V12.8139H63.0072L63.0747 13.6114V13.7298C63.3445 13.3975 63.6696 13.1296 64.0498 12.9261C64.4301 12.7225 64.8083 12.6208 65.1845 12.6208Z" fill="white"/>
<path d="M76.1705 15.3871C76.1705 15.6986 76.1623 15.8897 76.1459 15.9603H71.3742C71.3906 16.6332 71.6298 17.1877 72.0918 17.6239C72.558 18.0559 73.1263 18.2718 73.7969 18.2718C74.0831 18.2718 74.3591 18.2345 74.6249 18.1597C74.8907 18.0849 75.1053 18.006 75.2689 17.9229C75.4324 17.8357 75.6451 17.7111 75.9067 17.5491L75.8761 18.2033C75.6512 18.3279 75.4651 18.4255 75.3179 18.4961C75.1707 18.5668 74.9459 18.6436 74.6433 18.7267C74.3407 18.8098 74.0381 18.8513 73.7355 18.8513C72.8564 18.8513 72.1368 18.5522 71.5766 17.9541C71.0165 17.3518 70.7364 16.5875 70.7364 15.6613C70.7364 15.2168 70.81 14.8035 70.9572 14.4214C71.1085 14.0392 71.3109 13.7173 71.5644 13.4556C71.822 13.194 72.1204 12.9884 72.4598 12.8388C72.8033 12.6893 73.1652 12.6145 73.5454 12.6145C74.3305 12.6145 74.9643 12.8783 75.4467 13.4058C75.9292 13.9333 76.1705 14.5938 76.1705 15.3871ZM71.3742 15.412H75.5817C75.598 14.7225 75.4099 14.1805 75.0174 13.7859C74.6249 13.3913 74.1363 13.194 73.5516 13.194C72.93 13.194 72.4148 13.4017 72.006 13.817C71.6012 14.2282 71.3906 14.7599 71.3742 15.412Z" fill="white"/>
<path d="M81.5751 18.6519V9.77341H78.7415V9.13789H85.0772V9.77341H82.2559V18.6519H81.5751Z" fill="white"/>
<path d="M94.8917 12.8139L92.4016 18.8887L90.5862 14.1909L88.7707 18.8762L86.2867 12.8139H86.943L88.7707 17.3747L90.5739 12.7329L92.4078 17.3871L94.2293 12.8139H94.8917Z" fill="white"/>
<path d="M100.499 18.8451C99.6197 18.8451 98.8817 18.5481 98.2847 17.9541C97.6877 17.356 97.3892 16.6166 97.3892 15.736C97.3892 14.8554 97.6877 14.1161 98.2847 13.518C98.8817 12.9157 99.6217 12.6145 100.505 12.6145C101.384 12.6145 102.122 12.9157 102.719 13.518C103.32 14.1161 103.621 14.8554 103.621 15.736C103.621 16.6166 103.32 17.356 102.719 17.9541C102.122 18.5481 101.382 18.8451 100.499 18.8451ZM100.511 18.2594C101.206 18.2594 101.793 18.0164 102.271 17.5304C102.75 17.0444 102.989 16.4463 102.989 15.736C102.989 15.0216 102.748 14.4214 102.265 13.9354C101.787 13.4453 101.2 13.2002 100.505 13.2002C99.8057 13.2002 99.2149 13.4453 98.7324 13.9354C98.254 14.4214 98.0148 15.0216 98.0148 15.736C98.0148 16.4505 98.254 17.0507 98.7324 17.5366C99.2149 18.0185 99.8078 18.2594 100.511 18.2594Z" fill="white"/>
<path d="M111.669 18.8824C110.769 18.8824 109.941 18.6623 109.185 18.222C108.432 17.7817 107.838 17.1794 107.4 16.4152C106.967 15.6509 106.75 14.8118 106.75 13.898C106.75 13.2085 106.879 12.5564 107.136 11.9416C107.394 11.3227 107.741 10.7911 108.179 10.3466C108.621 9.90217 109.146 9.55118 109.755 9.29366C110.369 9.03197 111.015 8.90113 111.693 8.90113C112.151 8.90113 112.656 8.99667 113.208 9.18774C113.76 9.37465 114.222 9.60726 114.594 9.88556V10.627C114.251 10.3238 113.801 10.0683 113.245 9.86063C112.693 9.6488 112.178 9.54288 111.699 9.54288C110.91 9.54288 110.189 9.73602 109.534 10.1223C108.88 10.5045 108.363 11.0299 107.983 11.6986C107.606 12.3632 107.418 13.0964 107.418 13.898C107.418 14.6955 107.606 15.4266 107.983 16.0912C108.363 16.7558 108.88 17.2791 109.534 17.6613C110.189 18.0434 110.91 18.2345 111.699 18.2345C112.182 18.2345 112.703 18.1285 113.263 17.9167C113.824 17.7049 114.277 17.4432 114.625 17.1317L114.613 17.8856C114.241 18.1722 113.775 18.411 113.214 18.6021C112.658 18.789 112.143 18.8824 111.669 18.8824Z" fill="white"/>
<path d="M120.447 12.6208C121.269 12.6208 121.857 12.8284 122.213 13.2438C122.569 13.6592 122.747 14.2407 122.747 14.9884V18.6519H122.176L122.103 17.8544V17.8046C121.829 18.1244 121.502 18.3778 121.121 18.5647C120.745 18.7516 120.351 18.8451 119.938 18.8451C119.341 18.8451 118.87 18.6893 118.527 18.3778C118.188 18.0662 118.018 17.6322 118.018 17.0756C118.018 16.5107 118.224 16.0704 118.637 15.7547C119.054 15.439 119.594 15.2812 120.257 15.2812C120.784 15.2812 121.399 15.3456 122.103 15.4743V14.9884C122.103 14.7433 122.08 14.5273 122.035 14.3404C121.994 14.1535 121.915 13.9707 121.796 13.7921C121.682 13.6135 121.504 13.4764 121.262 13.3809C121.025 13.2812 120.729 13.2314 120.373 13.2314C119.67 13.2314 118.944 13.4577 118.196 13.9105L118.251 13.25C118.962 12.8305 119.694 12.6208 120.447 12.6208ZM120.103 18.2594C120.5 18.2594 120.87 18.1597 121.213 17.9603C121.561 17.7609 121.857 17.4868 122.103 17.1379V15.979C121.457 15.8544 120.874 15.7921 120.355 15.7921C119.835 15.7921 119.422 15.8939 119.116 16.0974C118.809 16.2968 118.656 16.6062 118.656 17.0257C118.652 17.4079 118.776 17.709 119.03 17.9292C119.288 18.1493 119.645 18.2594 120.103 18.2594Z" fill="white"/>
<path d="M129.832 12.7454L129.856 13.3684C129.607 13.2687 129.323 13.2189 129.004 13.2189C128.685 13.2189 128.38 13.3227 128.09 13.5304C127.8 13.7339 127.55 14.0289 127.342 14.4152L127.348 18.6519H126.704V12.8139H127.274L127.342 13.6799C127.579 13.3352 127.845 13.0714 128.139 12.8887C128.438 12.7059 128.744 12.6145 129.059 12.6145C129.329 12.6145 129.587 12.6581 129.832 12.7454Z" fill="white"/>
</svg>
