<svg width="160" height="34" viewBox="0 0 160 34" fill="none" xmlns="http://www.w3.org/2000/svg">
<path d="M34.4213 1.69323C25.9083 1.69323 19.0298 8.6016 19.0298 17C19.0298 25.4661 25.9764 32.3068 34.4213 32.3068C42.9343 32.3068 49.8129 25.3984 49.8129 17C49.8129 8.53387 42.9343 1.69323 34.4213 1.69323ZM34.4213 34C24.9548 34 17.3271 26.3466 17.3271 17C17.3271 7.58566 25.0229 0 34.4213 0C43.8878 0 51.5155 7.65339 51.5155 17C51.5155 26.4143 43.8878 34 34.4213 34Z" fill="white" fill-opacity="0.3"/>
<path d="M34.4212 6.2987C28.4961 6.2987 23.6607 11.1075 23.6607 16.9999C23.6607 22.8923 28.4961 27.7011 34.4212 27.7011C40.3463 27.7011 45.1817 22.8923 45.1817 16.9999C45.1817 11.1075 40.3463 6.2987 34.4212 6.2987ZM34.4212 29.3943C27.5427 29.3943 21.9581 23.8405 21.9581 16.9999C21.9581 10.1593 27.5427 4.60547 34.4212 4.60547C41.2997 4.60547 46.8843 10.1593 46.8843 16.9999C46.8843 23.8405 41.2997 29.3943 34.4212 29.3943Z" fill="white" fill-opacity="0.3"/>
<path d="M34.4211 10.7694C30.9478 10.7694 28.1555 13.5463 28.1555 17.0005C28.1555 20.4547 30.9478 23.2316 34.4211 23.2316C37.8944 23.2316 40.6867 20.4547 40.6867 17.0005C40.6867 13.5463 37.8944 10.7694 34.4211 10.7694ZM34.4211 24.9248C29.9943 24.9248 26.4529 21.3351 26.4529 17.0005C26.4529 12.5981 30.0624 9.07617 34.4211 9.07617C38.8478 9.07617 42.3893 12.6658 42.3893 17.0005C42.3893 21.4029 38.8478 24.9248 34.4211 24.9248Z" fill="white" fill-opacity="0.3"/>
<path d="M36.396 16.7969C36.2598 19.3706 32.514 19.3706 32.3778 16.7969C32.2416 14.2232 36.2598 14.2232 36.396 16.7969C36.4641 17.8129 38.0305 17.8129 37.9624 16.7969C37.8262 14.7651 36.396 13.3427 34.3528 13.2073C32.3097 13.0718 30.8114 14.9005 30.7433 16.7969C30.6071 18.8288 32.4459 20.3188 34.3528 20.3866C36.396 20.522 37.8943 18.6933 37.9624 16.7969C38.0305 15.781 36.4641 15.8487 36.396 16.7969Z" fill="white" fill-opacity="0.3"/>
<path d="M17.0942 1.69323C8.58114 1.69323 1.70261 8.6016 1.70261 17C1.70261 25.4661 8.64925 32.3068 17.0942 32.3068C25.6072 32.3068 32.4857 25.3984 32.4857 17C32.4857 8.53387 25.5391 1.69323 17.0942 1.69323ZM17.0942 34C7.62768 34 0 26.3466 0 17C0 7.58566 7.69579 0 17.0942 0C26.5607 0 34.1883 7.65339 34.1883 17C34.1883 26.4143 26.4926 34 17.0942 34Z" fill="white"/>
<path d="M17.0941 6.2987C11.169 6.2987 6.33359 11.1075 6.33359 16.9999C6.33359 22.8923 11.169 27.7011 17.0941 27.7011C23.0191 27.7011 27.8545 22.8923 27.8545 16.9999C27.8545 11.1075 23.0191 6.2987 17.0941 6.2987ZM17.0941 29.3943C10.2155 29.3943 4.63098 23.8405 4.63098 16.9999C4.63098 10.1593 10.2155 4.60547 17.0941 4.60547C23.9726 4.60547 29.5571 10.1593 29.5571 16.9999C29.5571 23.8405 23.9726 29.3943 17.0941 29.3943Z" fill="white"/>
<path d="M17.0942 10.7694C13.6209 10.7694 10.8286 13.5463 10.8286 17.0005C10.8286 20.4547 13.6209 23.2316 17.0942 23.2316C20.5675 23.2316 23.3598 20.4547 23.3598 17.0005C23.3598 13.5463 20.4994 10.7694 17.0942 10.7694ZM17.0942 24.9248C12.6674 24.9248 9.12598 21.3351 9.12598 17.0005C9.12598 12.5981 12.7355 9.07617 17.0942 9.07617C21.5209 9.07617 25.0624 12.6658 25.0624 17.0005C25.0624 21.4029 21.4528 24.9248 17.0942 24.9248Z" fill="white"/>
<path d="M19.0691 16.7969C18.9329 19.3706 15.1871 19.3706 15.0509 16.7969C14.8466 14.2232 18.9329 14.2232 19.0691 16.7969C19.1372 17.8129 20.7036 17.8129 20.6355 16.7969C20.4993 14.7651 19.0691 13.3427 17.026 13.2073C14.9828 13.0718 13.4845 14.9005 13.4164 16.7969C13.2802 18.8288 15.119 20.3188 17.026 20.3866C19.0691 20.522 20.5674 18.6933 20.6355 16.7969C20.7036 15.781 19.1372 15.8487 19.0691 16.7969Z" fill="white"/>
<path d="M68.6007 15.288C67.8458 15.6083 67.0532 15.7684 66.2228 15.7684C65.3925 15.7684 64.5999 15.6083 63.845 15.288C63.0952 14.9626 62.4485 14.5279 61.905 13.9839C61.3615 13.4348 60.9287 12.7841 60.6066 12.0316C60.2896 11.2741 60.131 10.481 60.131 9.65227C60.131 8.81848 60.2896 8.02536 60.6066 7.27292C60.9287 6.5154 61.3615 5.86464 61.905 5.32064C62.4485 4.77665 63.0952 4.3445 63.845 4.0242C64.5999 3.69882 65.3925 3.53613 66.2228 3.53613C67.0532 3.53613 67.8458 3.69882 68.6007 4.0242C69.3555 4.3445 70.0047 4.77665 70.5482 5.32064C71.0967 5.86464 71.5321 6.5154 71.8541 7.27292C72.1762 8.02536 72.3372 8.81848 72.3372 9.65227C72.3372 10.4861 72.1762 11.2817 71.8541 12.0392C71.5321 12.7917 71.0967 13.4399 70.5482 13.9839C70.0047 14.5279 69.3555 14.9626 68.6007 15.288ZM66.2228 14.9677C66.9374 14.9677 67.6193 14.8278 68.2685 14.5482C68.9227 14.2686 69.4864 13.8924 69.9594 13.4196C70.4325 12.9417 70.8074 12.3748 71.0842 11.7189C71.366 11.0631 71.5069 10.3742 71.5069 9.65227C71.5069 8.68629 71.2704 7.79404 70.7973 6.9755C70.3243 6.15697 69.6826 5.51129 68.8724 5.03847C68.0622 4.56057 67.179 4.32162 66.2228 4.32162C65.2717 4.32162 64.391 4.56057 63.5808 5.03847C62.7756 5.51129 62.1365 6.15697 61.6634 6.9755C61.1954 7.79404 60.9614 8.68629 60.9614 9.65227C60.9614 10.6132 61.1954 11.5029 61.6634 12.3214C62.1365 13.1349 62.7756 13.7805 63.5808 14.2584C64.391 14.7312 65.2717 14.9677 66.2228 14.9677Z" fill="white"/>
<path d="M80.2271 8.10417C81.9683 8.10417 82.839 9.17182 82.839 11.3071V15.4862H82.0464V11.2995C82.0464 10.4454 81.8778 9.82004 81.5406 9.42348C81.2034 9.02184 80.7002 8.82102 80.0309 8.82102C79.6031 8.82102 79.1728 8.95066 78.74 9.20995C78.3072 9.46924 77.9374 9.82004 77.6304 10.2624L77.6379 15.4862H76.8453V8.34058H77.5473L77.6304 9.31672V9.46161C77.9625 9.05489 78.3626 8.72697 78.8306 8.47785C79.2986 8.22873 79.7641 8.10417 80.2271 8.10417Z" fill="white"/>
<path d="M93.7483 11.4902C93.7483 11.8715 93.7382 12.1053 93.7181 12.1918H87.8452C87.8654 13.0154 88.1598 13.6941 88.7284 14.2279C89.3021 14.7567 90.0016 15.021 90.827 15.021C91.1792 15.021 91.5189 14.9753 91.846 14.8838C92.1731 14.7923 92.4374 14.6957 92.6387 14.594C92.84 14.4872 93.1016 14.3347 93.4237 14.1364L93.386 14.9372C93.1092 15.0897 92.8802 15.2092 92.699 15.2956C92.5179 15.382 92.2411 15.4761 91.8687 15.5777C91.4963 15.6794 91.1239 15.7303 90.7515 15.7303C89.6695 15.7303 88.7838 15.3642 88.0943 14.6321C87.4049 13.8949 87.0602 12.9595 87.0602 11.8257C87.0602 11.2817 87.1508 10.7758 87.3319 10.3081C87.5181 9.84038 87.7672 9.44636 88.0793 9.12607C88.3963 8.80577 88.7637 8.55411 89.1814 8.37108C89.6041 8.18805 90.0495 8.09654 90.5175 8.09654C91.4837 8.09654 92.2637 8.41938 92.8576 9.06506C93.4514 9.71073 93.7483 10.5191 93.7483 11.4902ZM87.8452 11.5207H93.0236C93.0438 10.6767 92.8123 10.0132 92.3292 9.53025C91.846 9.04726 91.2447 8.80577 90.525 8.80577C89.7601 8.80577 89.126 9.05997 88.6228 9.56838C88.1245 10.0717 87.8654 10.7225 87.8452 11.5207Z" fill="white"/>
<path d="M100.4 15.4862V4.61904H96.9127V3.84118H104.71V4.61904H101.238V15.4862H100.4Z" fill="white"/>
<path d="M116.79 8.34058L113.725 15.776L111.491 10.0259L109.256 15.7608L106.199 8.34058H107.007L109.256 13.9229L111.476 8.24144L113.733 13.9381L115.975 8.34058H116.79Z" fill="white"/>
<path d="M123.691 15.7226C122.609 15.7226 121.701 15.3591 120.966 14.6321C120.231 13.9 119.864 12.995 119.864 11.9172C119.864 10.8394 120.231 9.93443 120.966 9.20233C121.701 8.46514 122.611 8.09654 123.698 8.09654C124.78 8.09654 125.689 8.46514 126.424 9.20233C127.163 9.93443 127.533 10.8394 127.533 11.9172C127.533 12.995 127.163 13.9 126.424 14.6321C125.689 15.3591 124.778 15.7226 123.691 15.7226ZM123.706 15.0058C124.561 15.0058 125.284 14.7084 125.872 14.1135C126.461 13.5187 126.756 12.7866 126.756 11.9172C126.756 11.0428 126.459 10.3081 125.865 9.71327C125.276 9.11336 124.554 8.8134 123.698 8.8134C122.838 8.8134 122.111 9.11336 121.517 9.71327C120.928 10.3081 120.634 11.0428 120.634 11.9172C120.634 12.7917 120.928 13.5263 121.517 14.1212C122.111 14.7109 122.84 15.0058 123.706 15.0058Z" fill="white"/>
<path d="M137.439 15.7684C136.331 15.7684 135.312 15.4989 134.381 14.96C133.455 14.4211 132.723 13.6839 132.185 12.7485C131.651 11.813 131.384 10.786 131.384 9.66752C131.384 8.82356 131.543 8.02536 131.86 7.27292C132.177 6.5154 132.605 5.86464 133.143 5.32064C133.687 4.77665 134.334 4.34704 135.083 4.03183C135.838 3.71153 136.633 3.55139 137.469 3.55139C138.032 3.55139 138.654 3.66832 139.333 3.90219C140.013 4.13097 140.581 4.41568 141.039 4.75631V5.66382C140.617 5.29268 140.063 4.98001 139.379 4.7258C138.699 4.46652 138.065 4.33687 137.476 4.33687C136.505 4.33687 135.617 4.57328 134.812 5.0461C134.006 5.51384 133.37 6.15697 132.902 6.9755C132.439 7.78896 132.207 8.68629 132.207 9.66752C132.207 10.6437 132.439 11.5385 132.902 12.3519C133.37 13.1654 134.006 13.8059 134.812 14.2737C135.617 14.7414 136.505 14.9753 137.476 14.9753C138.07 14.9753 138.712 14.8456 139.401 14.5864C140.091 14.3271 140.649 14.0068 141.077 13.6255L141.062 14.5482C140.604 14.899 140.03 15.1914 139.341 15.4252C138.656 15.654 138.022 15.7684 137.439 15.7684Z" fill="white"/>
<path d="M148.242 8.10417C149.254 8.10417 149.978 8.35837 150.416 8.86678C150.854 9.37518 151.073 10.087 151.073 11.0021V15.4862H150.371L150.28 14.5101V14.4491C149.943 14.8406 149.541 15.1507 149.073 15.3795C148.61 15.6083 148.124 15.7226 147.616 15.7226C146.881 15.7226 146.302 15.532 145.879 15.1507C145.462 14.7694 145.253 14.2381 145.253 13.5568C145.253 12.8654 145.507 12.3265 146.015 11.9401C146.529 11.5537 147.193 11.3605 148.008 11.3605C148.657 11.3605 149.415 11.4393 150.28 11.5969V11.0021C150.28 10.7021 150.253 10.4378 150.197 10.209C150.147 9.98019 150.049 9.75649 149.903 9.53787C149.762 9.31926 149.543 9.15149 149.246 9.03455C148.954 8.91253 148.589 8.85153 148.152 8.85153C147.286 8.85153 146.393 9.12861 145.472 9.68277L145.54 8.8744C146.415 8.36091 147.316 8.10417 148.242 8.10417ZM147.819 15.0058C148.308 15.0058 148.763 14.8838 149.186 14.6397C149.614 14.3957 149.978 14.0602 150.28 13.6331V12.2146C149.485 12.0621 148.768 11.9859 148.129 11.9859C147.49 11.9859 146.982 12.1104 146.604 12.3595C146.227 12.6036 146.038 12.9823 146.038 13.4958C146.033 13.9636 146.186 14.3322 146.498 14.6016C146.815 14.8711 147.256 15.0058 147.819 15.0058Z" fill="white"/>
<path d="M159.793 8.25669L159.823 9.0193C159.516 8.89728 159.167 8.83627 158.774 8.83627C158.382 8.83627 158.007 8.96338 157.649 9.21758C157.292 9.4667 156.985 9.82767 156.728 10.3005L156.736 15.4862H155.943V8.34058H156.645L156.728 9.4006C157.02 8.97863 157.347 8.65579 157.71 8.43209C158.077 8.20839 158.455 8.09654 158.842 8.09654C159.174 8.09654 159.491 8.14992 159.793 8.25669Z" fill="white"/>
<g opacity="0.5">
<path d="M61.5385 22.4144H66.0105V29.129H65.3765V23.0534H62.1724V29.129H61.5385V22.4144Z" fill="white"/>
<path d="M67.5483 22.4144H71.1593V23.0763H68.1779V25.176H71.1336V25.8333H68.1779V28.4671H71.1336V29.129H67.5483V22.4144Z" fill="white"/>
<path d="M72.243 22.4144H73.4981C74.2177 22.4144 74.7032 22.4479 74.9545 22.5148C75.3143 22.6091 75.6085 22.8039 75.8369 23.0991C76.0654 23.3912 76.1796 23.7594 76.1796 24.2037C76.1796 24.6511 76.0682 25.0208 75.8455 25.313C75.6227 25.602 75.3158 25.7968 74.9245 25.8972C74.639 25.9703 74.1049 26.0068 73.3225 26.0068H72.8727V29.129H72.243V22.4144ZM72.8727 23.0671V25.3495L73.9393 25.3632C74.3705 25.3632 74.6861 25.3221 74.886 25.2399C75.0859 25.1547 75.2429 25.0193 75.3572 24.8337C75.4714 24.645 75.5285 24.435 75.5285 24.2037C75.5285 23.9785 75.4714 23.7731 75.3572 23.5875C75.2429 23.3988 75.0916 23.2649 74.9031 23.1858C74.7175 23.1067 74.4119 23.0671 73.9864 23.0671H72.8727Z" fill="white"/>
<path d="M77.4561 22.4144H78.6983C79.1981 22.4144 79.5822 22.4783 79.8506 22.6061C80.119 22.7309 80.3304 22.9241 80.4846 23.1858C80.6416 23.4475 80.7202 23.7381 80.7202 24.0577C80.7202 24.3559 80.6516 24.6283 80.5146 24.8747C80.3775 25.1182 80.1762 25.316 79.9106 25.4682C80.239 25.5868 80.4917 25.7268 80.6688 25.8881C80.8458 26.0463 80.9829 26.2396 81.08 26.4678C81.1799 26.693 81.2299 26.938 81.2299 27.2027C81.2299 27.7414 81.0443 28.1978 80.673 28.5721C80.3047 28.9434 79.8092 29.129 79.1867 29.129H77.4561V22.4144ZM78.0729 23.0717V25.2217H78.4327C78.8697 25.2217 79.1909 25.1791 79.3965 25.0938C79.6022 25.0056 79.7649 24.8687 79.8849 24.683C80.0048 24.4944 80.0648 24.2859 80.0648 24.0577C80.0648 23.7503 79.9634 23.5099 79.7606 23.3364C79.5607 23.1599 79.2409 23.0717 78.8011 23.0717H78.0729ZM78.0729 25.8972V28.4717H78.8525C79.3123 28.4717 79.6493 28.4245 79.8635 28.3302C80.0776 28.2328 80.249 28.0822 80.3775 27.8783C80.5088 27.6744 80.5745 27.4538 80.5745 27.2164C80.5745 26.9182 80.4831 26.658 80.3004 26.4359C80.1176 26.2137 79.8663 26.0616 79.5465 25.9794C79.3323 25.9246 78.9596 25.8972 78.4285 25.8972H78.0729Z" fill="white"/>
<path d="M82.4721 22.4144H83.1018V25.2947H83.5559C84.3812 25.2947 84.9737 25.3373 85.3335 25.4225C85.6934 25.5077 85.9832 25.704 86.2031 26.0113C86.423 26.3157 86.5329 26.7097 86.5329 27.1936C86.5329 27.6683 86.4258 28.0624 86.2117 28.3758C85.9975 28.6862 85.7248 28.8901 85.3935 28.9875C85.0622 29.0819 84.5068 29.129 83.7272 29.129H82.4721V22.4144ZM83.1018 28.4808H83.7743C84.4825 28.4808 84.9437 28.4458 85.1579 28.3758C85.3749 28.3028 85.5463 28.1689 85.6719 27.9742C85.8004 27.7794 85.8647 27.5299 85.8647 27.2256C85.8647 26.8908 85.7847 26.6184 85.6248 26.4085C85.4649 26.1985 85.2607 26.0707 85.0123 26.025C84.7667 25.9764 84.3069 25.952 83.633 25.952H83.1018V28.4808ZM87.274 22.4144H87.9037V29.129H87.274V22.4144Z" fill="white"/>
<path d="M94.3847 29.129H93.7293V23.9846L89.5785 29.129H89.4372V22.4144H90.0669V27.6501L94.2433 22.4144H94.3847V29.129ZM90.3924 20.8076H90.9578C91.0549 20.9659 91.1849 21.0845 91.3476 21.1637C91.5104 21.2428 91.7046 21.2823 91.9302 21.2823C92.1586 21.2823 92.3428 21.2473 92.4828 21.1774C92.6227 21.1074 92.7555 20.9841 92.8811 20.8076H93.4294C93.3666 21.0815 93.2053 21.3113 92.9454 21.4969C92.6884 21.6795 92.3486 21.7708 91.9259 21.7708C91.5061 21.7708 91.1634 21.681 90.8979 21.5014C90.6323 21.3189 90.4638 21.0876 90.3924 20.8076Z" fill="white"/>
<path d="M101.363 22.2455C102.316 22.2455 103.115 22.5848 103.757 23.2634C104.4 23.942 104.721 24.7774 104.721 25.7694C104.721 26.7523 104.4 27.5862 103.757 28.2709C103.117 28.9556 102.336 29.2979 101.414 29.2979C100.48 29.2979 99.692 28.9571 99.0494 28.2754C98.4069 27.5938 98.0856 26.7691 98.0856 25.8014C98.0856 25.1562 98.2313 24.5583 98.5226 24.0075C98.8167 23.4567 99.2165 23.026 99.722 22.7157C100.227 22.4022 100.774 22.2455 101.363 22.2455ZM101.393 22.9028C100.927 22.9028 100.486 23.0321 100.069 23.2908C99.652 23.5495 99.3264 23.8979 99.0923 24.3361C98.8581 24.7743 98.741 25.2627 98.741 25.8014C98.741 26.5987 98.9995 27.2727 99.5163 27.8235C100.036 28.3713 100.661 28.6452 101.393 28.6452C101.881 28.6452 102.332 28.5189 102.746 28.2663C103.163 28.0137 103.487 27.6683 103.719 27.2301C103.953 26.7919 104.07 26.305 104.07 25.7694C104.07 25.2369 103.953 24.7561 103.719 24.327C103.487 23.8949 103.16 23.5495 102.738 23.2908C102.315 23.0321 101.867 22.9028 101.393 22.9028Z" fill="white"/>
<path d="M105.989 29.129V22.4144H106.126L110.315 27.5542V22.4144H110.936V29.129H110.795L106.64 24.0531V29.129H105.989Z" fill="white"/>
<path d="M112.478 22.4144H113.112V28.4808H115.533V29.129H112.478V22.4144Z" fill="white"/>
<path d="M116.441 22.4144H117.07V29.129H116.441V22.4144Z" fill="white"/>
<path d="M118.522 29.129V22.4144H118.66L122.849 27.5542V22.4144H123.47V29.129H123.329L119.174 24.0531V29.129H118.522Z" fill="white"/>
<path d="M125.016 22.4144H128.627V23.0763H125.646V25.176H128.602V25.8333H125.646V28.4671H128.602V29.129H125.016V22.4144Z" fill="white"/>
<path d="M132.131 30.1333H131.51V28.5037H132.024L134.496 22.4144H134.714L137.323 28.5037H137.816V30.1333H137.194V29.129H132.131V30.1333ZM132.735 28.5037H136.578L134.607 23.802L132.735 28.5037Z" fill="white"/>
<path d="M143.663 29.129H143.007V23.9846L138.856 29.129H138.715V22.4144H139.345V27.6501L143.521 22.4144H143.663V29.129Z" fill="white"/>
<path d="M150.306 29.129H149.621L147.535 23.939L145.41 29.129H144.725L147.466 22.4144H147.603L150.306 29.129Z" fill="white"/>
<path d="M151.369 22.4144H154.98V23.0763H151.998V25.176H154.954V25.8333H151.998V28.4671H154.954V29.129H151.369V22.4144Z" fill="white"/>
<path d="M156.063 22.4144H157.318C158.038 22.4144 158.524 22.4479 158.775 22.5148C159.135 22.6091 159.429 22.8039 159.657 23.0991C159.886 23.3912 160 23.7594 160 24.2037C160 24.6511 159.889 25.0208 159.666 25.313C159.443 25.602 159.136 25.7968 158.745 25.8972C158.459 25.9703 157.925 26.0068 157.143 26.0068H156.693V29.129H156.063V22.4144ZM156.693 23.0671V25.3495L157.76 25.3632C158.191 25.3632 158.506 25.3221 158.706 25.2399C158.906 25.1547 159.063 25.0193 159.178 24.8337C159.292 24.645 159.349 24.435 159.349 24.2037C159.349 23.9785 159.292 23.7731 159.178 23.5875C159.063 23.3988 158.912 23.2649 158.723 23.1858C158.538 23.1067 158.232 23.0671 157.807 23.0671H156.693Z" fill="white"/>
</g>
</svg>
