<svg width="161" height="161" viewBox="0 0 161 161" fill="none" xmlns="http://www.w3.org/2000/svg">
<path d="M80.4122 160.917C124.784 160.917 160.739 124.917 160.739 80.494C160.739 36.0686 124.784 0 80.4122 0C36.0409 0 0.015625 36.0685 0.015625 80.4937C0.015625 124.917 36.0409 160.917 80.4122 160.917Z" fill="#A5A5A5"/>
<path d="M80.4122 158.899C123.671 158.899 158.723 123.804 158.723 80.4934C158.723 37.1823 123.671 2.01855 80.4122 2.01855C37.1536 2.01855 2.10205 37.1824 2.10205 80.4934C2.10205 123.804 37.1537 158.899 80.4122 158.899Z" fill="white"/>
<path d="M80.4121 156.53C122.349 156.53 156.428 122.482 156.428 80.4944C156.428 38.4366 122.349 4.38672 80.4121 4.38672C38.4748 4.38672 4.39673 38.4364 4.39673 80.4944C4.39689 122.482 38.475 156.53 80.4121 156.53Z" fill="#A5A5A5"/>
<path d="M80.4122 127.981C106.632 127.981 127.844 106.676 127.844 80.4937C127.844 54.2422 106.632 32.9349 80.4122 32.9349C54.1931 32.9349 32.9116 54.2422 32.9116 80.4937C32.9116 106.676 54.1931 127.981 80.4122 127.981ZM89.1757 12.0453C91.1916 14.901 91.4709 18.87 90.9144 22.2808C90.2893 25.4151 87.7852 27.3647 84.9333 28.2701C80.4821 28.827 75.0579 29.9408 71.0937 25.6938C68.8682 22.5601 68.8682 18.591 69.7019 14.622C70.8152 10.3748 75.6833 9.26076 79.6476 8.98145C83.1255 8.98177 86.6715 9.5391 89.1757 12.0453Z" fill="white"/>
<path d="M84.0974 15.527C84.3762 18.104 85.2112 22.073 83.2637 24.3012C81.525 25.5548 79.0911 26.0415 77.3521 24.8581C75.0572 22.6299 75.4047 19.2179 75.9616 16.363C76.2386 14.6915 77.3521 12.9509 79.0911 12.6727C80.9685 12.394 83.5422 13.2296 84.0974 15.527Z" fill="#A5A5A5"/>
<path d="M122.976 25.0665C124.158 28.4788 122.976 31.6125 121.306 34.3975C119.915 36.974 116.021 39.0622 113.934 38.715C109.344 37.8796 105.448 35.0247 100.928 32.2398L109.9 16.0146C114.491 18.521 120.124 19.9833 122.976 25.0665Z" fill="white"/>
<path d="M117.621 25.9026C117.899 28.4788 116.786 31.3338 114.49 33.0053C112.265 34.7458 107.675 31.3338 107.675 31.3338L112.751 21.9336C114.769 23.1171 117.064 23.6744 117.621 25.9026Z" fill="#A5A5A5"/>
<path d="M25.5396 41.221C23.87 43.1713 21.8531 44.9121 21.5752 47.4183C21.5752 48.2543 22.3396 49.2984 23.3133 49.1592C26.0962 46.861 28.9471 42.0571 32.9113 43.1713C34.9279 43.1713 36.8756 45.1905 37.4317 46.8608C38.6144 51.944 34.9279 56.2618 31.5203 59.6037L28.3912 57.654C30.686 55.6344 34.0243 52.5716 32.6325 49.4377C28.252 47.2789 27.5561 55.3564 23.0355 55.3564C21.0184 55.3564 18.3061 53.9635 17.6108 51.6662C17.6108 51.6662 17.3325 50.2732 17.3325 49.3679C17.2631 47.7663 17.9584 46.0255 18.7237 44.5633C19.558 43.1712 20.4626 42.057 20.4626 42.057L23.0356 39.2021L25.5396 41.221ZM17.3327 46.0255C16.7066 46.0954 15.5938 46.2349 14.8987 46.3042C15.0378 45.8168 15.6636 44.2855 15.6636 44.2855L17.8893 43.9374L16.8457 42.1263C17.3325 41.4302 17.6801 40.6643 18.1675 39.9682L19.4188 42.2657L17.3327 46.0255ZM144.466 49.6472L130.556 65.1743L127.914 59.5342L131.253 56.3308L127.496 49.8561L123.254 50.83L120.054 46.3042L140.432 42.892L144.466 49.6472Z" fill="white"/>
<path d="M133.477 53.4763L130.973 48.9506L139.527 47.2793L133.477 53.4763Z" fill="#A5A5A5"/>
<path d="M51.55 142.743L47.3079 140.027L48.2121 137.034L44.3863 134.179L41.6046 136.06C40.492 135.085 39.4485 134.11 38.4055 133.135L49.4634 124.917L55.1665 128.33L51.55 142.743ZM118.871 131.185C119.915 133.552 119.15 136.059 117.411 137.451C115.186 139.749 112.613 141.141 109.484 140.864C106.702 140.584 104.406 137.729 103.572 135.502C103.015 133.203 103.015 130.765 104.684 129.236C106.978 127.215 109.205 125.892 112.334 125.546C115.186 125.546 117.76 128.679 118.871 131.185Z" fill="white"/>
<path d="M49.3935 134.319L46.7512 132.438L50.507 129.305L49.3935 134.319ZM114.63 133.275C115.534 135.294 114.56 137.174 112.404 137.52C109.484 138.078 108.509 134.876 107.535 133.204C106.702 131.532 107.814 129.236 109.762 128.956C112.613 128.399 113.517 131.603 114.63 133.275Z" fill="#A5A5A5"/>
<path d="M66.433 142.814C66.3638 144.274 69.0761 145.249 70.0496 143.717C70.3973 142.673 71.3017 137.52 71.8582 134.387C73.3181 134.735 74.9876 135.084 76.0998 135.364C75.7527 137.728 75.4051 144.343 72.5534 146.852C70.6056 148.313 67.4765 147.478 65.4598 146.852C60.9387 145.249 61.704 141.49 61.704 141.49L63.7904 132.717L68.1024 133.62L66.433 142.814ZM92.3745 136.825L94.3915 146.921L89.9403 147.827L87.9234 137.66L84.4458 138.494L83.7506 135.43L95.2954 132.854L96.1303 135.919L92.3745 136.825Z" fill="white"/>
<path d="M88.6887 40.5255C100.79 53.5469 107.467 71.1632 102.25 89.824C102.25 89.824 100.72 94.2804 100.303 96.0911C99.9549 97.9014 100.025 99.2934 100.025 99.2934C100.58 100.478 102.389 100.826 103.572 100.547C104.753 99.3636 102.667 97.8319 103.849 96.3698C109.692 95.8125 114.56 99.9212 118.942 103.75C115.117 108.417 109.344 112.871 103.433 111.41C102.599 110.227 105.31 108.695 103.503 107.511L60.4524 107.44C59.2005 107.511 56.9057 111.202 55.5839 111.551C53.7065 111.968 50.5767 111.897 49.7422 111.411C47.9335 109.598 47.5165 106.677 46.3346 104.586C45.1519 102.01 39.7965 99.3639 40.7009 97.4144C41.1183 96.7181 51.4117 95.1861 58.0186 97.5529C60.5218 98.6678 63.0957 100.965 65.7381 100.268C65.8765 100.199 66.0858 100.13 66.2249 99.7818C66.9202 91.704 61.0784 82.7914 52.5237 78.6835C50.0199 77.4994 48.2124 77.2207 45.7778 77.4299C43.2046 77.5685 40.4922 77.8472 38.7542 76.5947C37.2931 75.4805 37.5715 71.7201 38.6841 68.0297C39.2402 66.3589 40.0055 64.5479 40.7706 63.0866C44.2482 55.4265 55.2367 63.5732 56.6966 64.3394C58.5751 65.3142 60.5218 67.4029 61.0784 64.6875C60.9392 62.9467 57.5316 61.2759 55.3061 60.0919C48.7684 56.6107 44.5957 57.4463 46.682 53.4769C47.3081 52.2936 49.3938 49.578 52.2459 47.1405C55.1668 44.5643 58.8521 42.1271 61.5651 41.7793C66.4332 41.2921 71.6492 48.1852 71.6492 48.1852L77.8395 55.0787C79.022 55.7748 79.7168 55.0087 79.8557 54.522C80.2036 53.4771 79.2305 52.3624 79.2305 52.3624C79.2305 52.3624 76.3791 48.8813 74.8487 47.3498C73.3889 45.8177 69.0766 41.71 69.0766 41.71C67.4071 38.7855 70.5369 37.8801 72.2749 37.6009C77.9085 37.0436 84.0975 35.5123 88.6887 40.5255Z" fill="#85878C"/>
<path d="M88.8271 96.9952C92.4433 96.9952 95.3654 94.0708 95.3654 90.4499C95.3654 86.829 92.4433 83.8353 88.8271 83.8353C85.2112 83.8353 82.2904 86.8289 82.2904 90.4499C82.2902 94.0711 85.2112 96.9952 88.8271 96.9952ZM51.3414 25.4838C54.6798 27.5733 58.852 28.9654 62.191 31.3335L56.4879 34.0486L46.4736 28.8267L46.6127 18.1734L51.7592 15.457C52.3144 18.3128 51.4113 22.3507 51.3414 25.4838ZM47.308 40.1072L36.9453 24.5788L41.2573 21.5151L51.6891 36.8343L47.308 40.1072Z" fill="white"/>
</svg>
