<svg width="224" height="114" viewBox="0 0 224 114" fill="none" xmlns="http://www.w3.org/2000/svg">
<path fill-rule="evenodd" clip-rule="evenodd" d="M141.1 0C188.6 3.6 223.6 15.9 223.6 30.5C223.6 42.3 200.8 52.5 167.1 58L176.6 69.2H158.9L112.3 13.9L81.1 50.8C90.5 51.5 100.6 52 111.1 52C116 52 120.9 51.9 125.6 51.7L135 61.4C127.5 61.8 119.8 62.1 111.8 62.1C98.2 62.1 85.2 61.4 73.2 60.2L64.7 70.2H47L57.2 58.1C23.1 52.7 0 42.4 0 30.5C0 16.2 33.6 4.10001 79.7 0.200012L73.9 10.3C40.9 13.6 17.8 21.3 17.8 30.2C17.8 38.3 36.7 45.3 64.8 49.1L103.4 3.39999H121.1L159.4 48.8C186.4 45 204.4 38.1 204.4 30.2C204.4 21.2 181.1 13.5 147.8 10.2L141.1 0Z" fill="#A5A5A5"/>
<path d="M66.4 103.9L71.5 105.5C70.7 108.4 69.4 110.5 67.6 111.9C65.8 113.3 63.5 114 60.7 114C57.2 114 54.4 112.8 52.1 110.4C49.9 108 48.7 104.8 48.7 100.7C48.7 96.3 49.8 93 52.1 90.6C54.3 88.2 57.3 87 61 87C64.2 87 66.8 87.9 68.8 89.8C70 90.9 70.9 92.5 71.5 94.6L66.3 95.8C66 94.4 65.4 93.4 64.4 92.6C63.4 91.8 62.2 91.4 60.8 91.4C58.9 91.4 57.3 92.1 56.1 93.5C54.9 94.9 54.3 97.1 54.3 100.3C54.3 103.6 54.9 106 56.1 107.4C57.3 108.8 58.8 109.5 60.7 109.5C62.1 109.5 63.3 109.1 64.3 108.2C65.2 107.3 65.9 105.8 66.4 103.9Z" fill="#A5A5A5"/>
<path d="M76 113.5V87.4004H81.3V97.7004H91.7V87.4004H97V113.5H91.7V102.1H81.3V113.5H76Z" fill="#A5A5A5"/>
<path d="M102.4 113.5V87.4004H121.8V91.8004H107.7V97.6004H120.8V102H107.7V109.1H122.3V113.5H102.4Z" fill="#A5A5A5"/>
<path d="M126.8 113.5V87.4004H137.9C140.7 87.4004 142.7 87.6004 144 88.1004C145.3 88.6004 146.3 89.4004 147 90.6004C147.8 91.8004 148.1 93.2004 148.1 94.7004C148.1 96.7004 147.5 98.3004 146.4 99.6004C145.2 100.9 143.5 101.7 141.2 102C142.3 102.7 143.3 103.4 144 104.2C144.7 105 145.7 106.4 147 108.4L150.2 113.5H143.9L140.1 107.8C138.7 105.8 137.8 104.5 137.3 104C136.8 103.5 136.3 103.1 135.7 102.9C135.1 102.7 134.3 102.6 133 102.6H132.1V113.5H126.8ZM132.1 98.5004H136C138.5 98.5004 140.1 98.4004 140.7 98.2004C141.3 98.0004 141.8 97.6004 142.2 97.1004C142.6 96.6004 142.7 95.9004 142.7 95.1004C142.7 94.2004 142.5 93.5004 142 93.0004C141.5 92.5004 140.9 92.1004 140 92.0004C139.6 91.9004 138.3 91.9004 136.1 91.9004H132.1V98.5004Z" fill="#A5A5A5"/>
<path d="M158.7 113.5V102.5L149.1 87.4004H155.3L161.4 97.7004L167.5 87.4004H173.5L163.9 102.6V113.5H158.7Z" fill="#A5A5A5"/>
</svg>
