<svg width="42" height="42" viewBox="0 0 42 42" fill="none" xmlns="http://www.w3.org/2000/svg">
<path d="M37.5 0H4.5C3.30653 0 2.16193 0.474106 1.31802 1.31802C0.474106 2.16193 0 3.30653 0 4.5V37.5C0 38.6935 0.474106 39.8381 1.31802 40.682C2.16193 41.5259 3.30653 42 4.5 42H37.5C38.6935 42 39.8381 41.5259 40.682 40.682C41.5259 39.8381 42 38.6935 42 37.5V4.5C42 3.30653 41.5259 2.16193 40.682 1.31802C39.8381 0.474106 38.6935 0 37.5 0ZM30 22.5H22.5C22 22.5 22.5 22.5 22 22.5C21.5 22.5 21.3978 22.5 21 22.5C20.6022 22.5 20.5 22.5 20 22.5C19.5 22.5 19 22.5 19.5 22.5H12C11.6022 22.5 11.2206 22.342 10.9393 22.0607C10.658 21.7794 10.5 21.3978 10.5 21C10.5 20.6022 10.658 20.2206 10.9393 19.9393C11.2206 19.658 11.6022 19.5 12 19.5H19.5H20C20.5 19.5 20 19.5 20.5 19.5C21 19.5 20.6022 19.5 21 19.5C21.3978 19.5 21.5 19.5 22 19.5C22.5 19.5 23 19.5 22.5 19.5H30C30.3978 19.5 30.7794 19.658 31.0607 19.9393C31.342 20.2206 31.5 20.6022 31.5 21C31.5 21.3978 31.342 21.7794 31.0607 22.0607C30.7794 22.342 30.3978 22.5 30 22.5Z" fill="#092449"/>
</svg>
