<svg width="42" height="43" viewBox="0 0 42 43" fill="none" xmlns="http://www.w3.org/2000/svg">
<path d="M37.5001 0.5H4.50012C3.30665 0.5 2.16206 0.974106 1.31814 1.81802C0.474228 2.66193 0.00012207 3.80653 0.00012207 5V38C0.00012207 39.1935 0.474228 40.3381 1.31814 41.182C2.16206 42.0259 3.30665 42.5 4.50012 42.5H37.5001C38.6936 42.5 39.8382 42.0259 40.6821 41.182C41.526 40.3381 42.0001 39.1935 42.0001 38V5C42.0001 3.80653 41.526 2.66193 40.6821 1.81802C39.8382 0.974106 38.6936 0.5 37.5001 0.5ZM30.0001 23H22.5001V30.5C22.5001 30.8978 22.3421 31.2794 22.0608 31.5607C21.7795 31.842 21.3979 32 21.0001 32C20.6023 32 20.2208 31.842 19.9395 31.5607C19.6582 31.2794 19.5001 30.8978 19.5001 30.5V23H12.0001C11.6023 23 11.2208 22.842 10.9395 22.5607C10.6582 22.2794 10.5001 21.8978 10.5001 21.5C10.5001 21.1022 10.6582 20.7206 10.9395 20.4393C11.2208 20.158 11.6023 20 12.0001 20H19.5001V12.5C19.5001 12.1022 19.6582 11.7206 19.9395 11.4393C20.2208 11.158 20.6023 11 21.0001 11C21.3979 11 21.7795 11.158 22.0608 11.4393C22.3421 11.7206 22.5001 12.1022 22.5001 12.5V20H30.0001C30.3979 20 30.7795 20.158 31.0608 20.4393C31.3421 20.7206 31.5001 21.1022 31.5001 21.5C31.5001 21.8978 31.3421 22.2794 31.0608 22.5607C30.7795 22.842 30.3979 23 30.0001 23Z" fill="#092449"/>
</svg>
