<svg width="32" height="32" viewBox="0 0 32 32" fill="none" xmlns="http://www.w3.org/2000/svg">
<circle cx="16" cy="16" r="16" fill="#E30613"/>
<path d="M21.3125 16.7765H10.6875C9.82599 16.7765 9.125 16.0755 9.125 15.214V13.6562C9.125 12.7947 9.82599 12.0938 10.6875 12.0938H21.3125C22.174 12.0938 22.875 12.7947 22.875 13.6562V15.214C22.875 16.0755 22.174 16.7765 21.3125 16.7765ZM10.6875 13.6562C10.6867 13.6562 10.6866 13.6562 10.6866 13.6562L10.6875 15.214H21.3125V13.6562H10.6875ZM22.875 9.86719C22.875 9.43567 22.5253 9.08594 22.0938 9.08594H9.90625C9.47473 9.08594 9.125 9.43567 9.125 9.86719C9.125 10.2987 9.47473 10.6484 9.90625 10.6484H22.0938C22.5253 10.6484 22.875 10.2987 22.875 9.86719ZM22.875 20.5703C22.875 20.1388 22.5253 19.7891 22.0938 19.7891H16.1562C15.7247 19.7891 15.375 20.1388 15.375 20.5703C15.375 21.0018 15.7247 21.3516 16.1562 21.3516H22.0938C22.5253 21.3516 22.875 21.0018 22.875 20.5703ZM12.25 22.9046H10.6875C9.82599 22.9046 9.125 22.2036 9.125 21.3421V19.7843C9.125 18.9227 9.82599 18.2218 10.6875 18.2218H12.25C13.1115 18.2218 13.8125 18.9227 13.8125 19.7843V21.3421C13.8125 22.2036 13.1115 22.9046 12.25 22.9046ZM10.6875 19.7843C10.6867 19.7843 10.6866 19.7843 10.6866 19.7843L10.6875 21.3421H12.25V19.7843H10.6875ZM26 22.875C26 22.4435 25.6503 22.0938 25.2188 22.0938C24.7872 22.0938 24.4375 22.4435 24.4375 22.875C24.4375 23.7365 23.7365 24.4375 22.875 24.4375H9.125C8.26349 24.4375 7.5625 23.7365 7.5625 22.875V9.125C7.5625 8.26349 8.26349 7.5625 9.125 7.5625H22.875C23.7365 7.5625 24.4375 8.26349 24.4375 9.125V18.9688C24.4375 19.4003 24.7872 19.75 25.2188 19.75C25.6503 19.75 26 19.4003 26 18.9688V9.125C26 7.40182 24.5982 6 22.875 6H9.125C7.40182 6 6 7.40182 6 9.125V22.875C6 24.5982 7.40182 26 9.125 26H22.875C24.5982 26 26 24.5982 26 22.875Z" fill="white"/>
</svg>
