<svg width="32" height="32" viewBox="0 0 32 32" fill="none" xmlns="http://www.w3.org/2000/svg">
<circle cx="16" cy="16" r="16" fill="#444444"/>
<path d="M15.6794 22.9448C14.8214 22.9448 14.0504 22.7438 13.3664 22.3418C12.6884 21.9398 12.1514 21.3818 11.7554 20.6678C11.3594 19.9478 11.1614 19.1168 11.1614 18.1748V14.4128C11.1614 13.3928 11.3594 12.5138 11.7554 11.7758C12.1514 11.0318 12.7094 10.4618 13.4294 10.0658C14.1494 9.6638 14.9954 9.4628 15.9674 9.4628C16.5974 9.4628 17.1974 9.5558 17.7674 9.7418C18.3374 9.9278 18.8594 10.2428 19.3334 10.6868L17.5874 12.4328C17.3714 12.2168 17.1224 12.0488 16.8404 11.9288C16.5584 11.8088 16.2674 11.7488 15.9674 11.7488C15.4994 11.7488 15.0914 11.8598 14.7434 12.0818C14.4014 12.2978 14.1344 12.5828 13.9424 12.9368C13.7564 13.2848 13.6634 13.6568 13.6634 14.0528V15.9788L13.2494 15.5288C13.6214 15.1508 14.0504 14.8628 14.5364 14.6648C15.0284 14.4608 15.5354 14.3588 16.0574 14.3588C16.8734 14.3588 17.5904 14.5418 18.2084 14.9078C18.8324 15.2738 19.3184 15.7748 19.6664 16.4108C20.0204 17.0468 20.1974 17.7728 20.1974 18.5888C20.1974 19.4048 19.9904 20.1428 19.5764 20.8028C19.1624 21.4568 18.6134 21.9788 17.9294 22.3688C17.2454 22.7528 16.4954 22.9448 15.6794 22.9448ZM15.6794 20.6048C16.0514 20.6048 16.3904 20.5148 16.6964 20.3348C17.0084 20.1548 17.2544 19.9118 17.4344 19.6058C17.6204 19.2998 17.7134 18.9608 17.7134 18.5888C17.7134 18.2168 17.6234 17.8778 17.4434 17.5718C17.2634 17.2598 17.0204 17.0138 16.7144 16.8338C16.4084 16.6478 16.0694 16.5548 15.6974 16.5548C15.3254 16.5548 14.9834 16.6478 14.6714 16.8338C14.3654 17.0138 14.1194 17.2598 13.9334 17.5718C13.7534 17.8778 13.6634 18.2168 13.6634 18.5888C13.6634 18.9488 13.7534 19.2818 13.9334 19.5878C14.1134 19.8938 14.3564 20.1398 14.6624 20.3258C14.9684 20.5118 15.3074 20.6048 15.6794 20.6048Z" fill="white"/>
</svg>
