<svg width="32" height="32" viewBox="0 0 32 32" fill="none" xmlns="http://www.w3.org/2000/svg">
<circle cx="16" cy="16" r="16" fill="#E30613"/>
<path d="M24.8029 21.6886C24.3419 24.1868 22.161 26 19.6172 26C16.7095 26 14.3438 23.6343 14.3438 20.7266C14.3438 17.8188 16.7095 15.4531 19.6172 15.4531C20.0994 15.4531 20.5776 15.5184 21.0382 15.6471C21.4539 15.763 21.6967 16.1939 21.5805 16.6096C21.4646 17.0252 21.0335 17.268 20.618 17.1519C20.2941 17.0616 19.9573 17.0156 19.6172 17.0156C17.571 17.0156 15.9062 18.6804 15.9062 20.7266C15.9062 22.7728 17.571 24.4375 19.6172 24.4375C21.4073 24.4375 22.9421 23.1622 23.2663 21.4051C23.3448 20.9808 23.7522 20.7002 24.1764 20.7786C24.6007 20.8569 24.8812 21.2643 24.8029 21.6886ZM13.25 24.4375H10.125C9.26349 24.4375 8.5625 23.7365 8.5625 22.875V12.6016H10.8672C12.3749 12.6016 13.6016 11.3749 13.6016 9.86719C13.6016 9.43567 13.2518 9.08594 12.8203 9.08594C12.3888 9.08594 12.0391 9.43567 12.0391 9.86719C12.0391 10.5134 11.5134 11.0391 10.8672 11.0391H8.69647C8.7688 10.8807 8.86905 10.7345 8.99524 10.6072L11.575 8.00455C11.8534 7.72363 12.24 7.5625 12.6355 7.5625H19.7299C20.5916 7.5625 21.2924 8.26349 21.2924 9.125V13.2656C21.2924 13.6971 21.6423 14.0469 22.0737 14.0469C22.5052 14.0469 22.8549 13.6971 22.8549 13.2656V9.125C22.8549 7.40182 21.4531 6 19.7299 6H12.6355C11.826 6 11.035 6.32974 10.4653 6.90454L7.88547 9.50723C7.31448 10.0834 7 10.8473 7 11.6584V22.875C7 24.5982 8.40182 26 10.125 26H13.25C13.6815 26 14.0312 25.6503 14.0312 25.2188C14.0312 24.7872 13.6815 24.4375 13.25 24.4375ZM18.6071 19.8226C18.3019 19.5175 17.8073 19.5175 17.5023 19.8226C17.1971 20.1277 17.1971 20.6223 17.5022 20.9274L18.6525 22.0777C18.9186 22.3438 19.269 22.4769 19.6193 22.4769C19.9674 22.4769 20.3154 22.3455 20.5811 22.0826L23.9949 18.7037C24.3016 18.4002 24.3041 17.9055 24.0006 17.5988C23.6971 17.2921 23.2024 17.2895 22.8957 17.5932L19.6201 20.8355L18.6071 19.8226Z" fill="white"/>
</svg>
