<svg width="55" height="55" viewBox="0 0 55 55" fill="none" xmlns="http://www.w3.org/2000/svg">
<circle cx="27.5" cy="27.5" r="27.5" fill="#E30613"/>
<path d="M35.4375 25.75C34.7471 25.75 34.1875 25.1904 34.1875 24.5C34.1875 24.1554 33.9071 23.875 33.5625 23.875C33.2179 23.875 32.9375 24.1554 32.9375 24.5C32.9375 25.1904 32.3779 25.75 31.6875 25.75C30.9971 25.75 30.4375 25.1904 30.4375 24.5C30.4375 22.7769 31.8394 21.375 33.5625 21.375C35.2856 21.375 36.6875 22.7769 36.6875 24.5C36.6875 25.1904 36.1279 25.75 35.4375 25.75ZM25.625 24.5C25.625 22.7769 24.2231 21.375 22.5 21.375C20.7769 21.375 19.375 22.7769 19.375 24.5C19.375 25.1904 19.9346 25.75 20.625 25.75C21.3154 25.75 21.875 25.1904 21.875 24.5C21.875 24.1554 22.1554 23.875 22.5 23.875C22.8446 23.875 23.125 24.1554 23.125 24.5C23.125 25.1904 23.6846 25.75 24.375 25.75C25.0654 25.75 25.625 25.1904 25.625 24.5ZM36.2788 41.6942C36.8693 41.3365 37.058 40.5679 36.7004 39.9774C36.3427 39.3869 35.574 39.1982 34.9836 39.5559C32.8839 40.8278 30.4691 41.5 28 41.5C20.5561 41.5 14.5 35.4439 14.5 28C14.5 20.5561 20.5561 14.5 28 14.5C35.4439 14.5 41.5 20.5561 41.5 28C41.5 30.6618 40.7084 33.2528 39.2109 35.4928C38.8272 36.0668 38.9814 36.843 39.5553 37.2267C40.1293 37.6104 40.9056 37.4561 41.2892 36.8822C43.0626 34.2296 44 31.1582 44 28C44 23.7262 42.3357 19.7083 39.3137 16.6863C36.2917 13.6643 32.2738 12 28 12C23.7262 12 19.7083 13.6643 16.6863 16.6863C13.6643 19.7083 12 23.7262 12 28C12 32.2738 13.6643 36.2917 16.6863 39.3137C19.7083 42.3357 23.7262 44 28 44C30.9258 44 33.7886 43.2027 36.2788 41.6942ZM33.375 30.1875C32.968 30.1875 32.6075 30.3829 32.3792 30.6841C32.3792 30.6841 30.7531 32.4375 28 32.4375C25.2469 32.4375 23.6208 30.6841 23.6208 30.6841C23.3925 30.3829 23.032 30.1875 22.625 30.1875C21.9346 30.1875 21.375 30.7471 21.375 31.4375C21.375 31.7932 21.5243 32.1134 21.7627 32.341C21.9888 32.5917 24.2064 34.9375 28 34.9375C31.7936 34.9375 34.0112 32.5917 34.2372 32.341C34.4757 32.1134 34.625 31.7932 34.625 31.4375C34.625 30.7471 34.0654 30.1875 33.375 30.1875Z" fill="white"/>
</svg>
