<svg width="281" height="47" viewBox="0 0 281 47" fill="none" xmlns="http://www.w3.org/2000/svg">
<path fill-rule="evenodd" clip-rule="evenodd" d="M0 1.07299V31.5294C0.0943339 40.0622 5.81193 46.999 21.1836 46.999H42.6613V38.5542H21.182C14.0654 38.2568 14.2204 31.4462 14.2204 31.4462V1.07299H0ZM95.0502 19.146H62.2364C63.7362 9.75129 70.0645 9.51623 70.0645 9.51623H95.0486V0.479734H69.62C69.62 0.479734 45.9198 0.33101 45.9198 24.036C45.9198 47.7378 69.62 46.9974 69.62 46.9974H95.0486V38.5526H70.0645C70.0645 38.5526 63.5395 38.3095 62.1709 28.4799H95.0486V19.146H95.0502ZM156.868 46.8503L135.982 23.043L155.387 0.924282H139.24L127.846 13.7698L116.578 0.924282H99.9876L119.614 23.0526L98.5054 46.8503H115.095L127.838 32.3241L140.722 46.8503H156.868ZM276.482 0H237.745C237.745 0 222.785 -4.57505e-06 222.785 13.3333C222.785 26.6649 237.745 27.4053 242.486 27.4053H259.521C259.521 27.4053 265.297 28.1489 265.297 32.1466C265.297 36.1476 261.297 37.6283 259.669 37.6283H226.19V46.9639H265.448C265.448 46.9639 281 47.2613 281 32.5944C281 17.9275 264.408 18.5191 263.372 18.5191H243.081C243.081 18.5191 237.426 18.065 237.747 12.8887C238.044 8.14739 245.895 8.74067 245.895 8.74067H276.483V0H276.482ZM188.884 46.8951C217.214 46.8951 216.38 29.9511 216.38 29.9511V0.785152H201.796V28.1457C201.796 28.1457 201.381 38.4247 188.605 38.4247C175.83 38.4247 175.412 28.1457 175.412 28.1457V0.785152H160.831V29.9511C160.831 29.9511 159.998 46.8951 188.327 46.8951H188.884Z" fill="#A5A5A5"/>
</svg>
