<svg width="151" height="26" viewBox="0 0 151 26" fill="none" xmlns="http://www.w3.org/2000/svg">
<path d="M123.19 20.3003H106.25C105.25 20.3003 104.82 19.9903 104.82 19.0103V1.65029C104.82 0.940285 104.55 0.900285 104.02 0.900285H98.37C97.8 0.900285 97.61 0.900285 97.61 1.65029V18.4103C97.61 23.9903 99.61 25.8003 105.04 25.8003H123.27C123.94 25.8003 123.94 25.5803 123.94 25.0103V21.1203C123.94 20.5603 123.94 20.3003 123.19 20.3003ZM92.25 0.900285H74C69 0.900285 66 2.49029 66 7.73029V18.9803C66 24.2203 69 25.8003 74.06 25.8003H92.25C92.97 25.8003 92.93 25.5803 92.93 25.0503V21.1603C92.93 20.6303 92.93 20.4103 92.25 20.4103H74.37C73.57 20.4103 73.16 20.1103 73.16 19.3103V15.9003H91.76C92.48 15.9003 92.44 15.6703 92.44 15.1503V11.3103C92.44 10.7503 92.44 10.5603 91.76 10.5603H73.16V7.39029C73.16 6.60029 73.57 6.30029 74.37 6.30029H92.25C92.97 6.30029 92.93 6.07029 92.93 5.51029V1.65029C92.93 1.13029 93 0.900285 92.25 0.900285ZM61.24 0.900285H43C38 0.900285 34.93 2.49029 34.93 7.73029V18.9803C34.93 24.2203 38.02 25.8003 43 25.8003H61.24C61.95 25.8003 61.95 25.5803 61.95 25.0503V21.1603C61.95 20.6303 61.95 20.4103 61.24 20.4103H43.39C42.6 20.4103 42.18 20.1103 42.18 19.3103V15.9003H60.74C61.46 15.9003 61.46 15.6703 61.46 15.1503V11.3103C61.46 10.7503 61.46 10.5603 60.74 10.5603H42.18V7.39029C42.18 6.60029 42.6 6.30029 43.39 6.30029H61.24C61.95 6.30029 61.95 6.07029 61.95 5.51029V1.65029C62 1.13029 62 0.900285 61.24 0.900285ZM29.54 0.900285H8.11C3.05 0.900285 0 2.49029 0 7.73029V18.9803C0 24.2203 3.05 25.8003 8.11 25.8003H29.54C30.26 25.8003 30.22 25.5803 30.22 25.0503V11.3103C30.22 10.7503 30.22 10.5603 29.54 10.5603H11.84C11.13 10.5603 11.17 10.7503 11.17 11.3103V15.1703C11.17 15.6903 11.17 15.9203 11.84 15.9203H23V20.4103H8.41C7.65 20.4103 7.21 20.1103 7.21 19.3103V7.39029C7.21 6.60029 7.65 6.30029 8.41 6.30029H29.54C30.26 6.30029 30.22 6.07029 30.22 5.51029V1.65029C30.22 1.13029 30.26 0.900285 29.54 0.900285ZM150.06 0.900285H143.53C143.136 0.864153 142.74 0.920367 142.372 1.06446C142.004 1.20855 141.674 1.43653 141.41 1.73029L132.41 11.5803L123.46 1.73029C123.187 1.4364 122.851 1.20882 122.476 1.06497C122.102 0.921109 121.699 0.864779 121.3 0.900285H114.78C114.26 0.900285 114.02 1.17029 114.67 1.84029L128.81 17.3903V25.0903C128.81 25.8003 129.04 25.8003 129.61 25.8003H135.26C135.79 25.8003 136.02 25.8003 136.02 25.0903V17.3903L150.2 1.84029C150.81 1.17029 150.62 0.900285 150.06 0.900285Z" fill="#0070B2"/>
</svg>
