<svg width="166" height="27" viewBox="0 0 166 27" fill="none" xmlns="http://www.w3.org/2000/svg">
<path d="M42.1302 7.52086V26.9992H33.1424V9.96003C33.1424 9.96003 32.7832 7.48811 30.1405 7.48811H25.4614V26.9992H16.7254V7.48811H8.83366V26.9992H0V0H32.7832C41.9478 0 42.1302 7.52086 42.1302 7.52086ZM74.5768 0H95.9249L86.1492 7.48811H74.5776V0M50.7355 10.1535H63.7632V8.91598C63.7632 8.91598 63.7632 7.14923 60.6306 7.14923H44.0416V0H63.3749C73.4581 0 72.5 8.78652 72.5 8.78652V20.9474L99.6742 0H123.59C134.449 0 135.818 6.18057 135.818 13.6474C135.818 18.9887 135.076 26.9992 124.212 26.9992H104.422L104.405 6.01227L77.0766 26.9992L50.7355 26.9931C49.4286 26.9931 42.1359 27.4348 42.1359 18.2995C42.1359 9.60973 49.4286 10.1535 50.7355 10.1535M113.488 19.5111H121.095C125.952 19.5111 126.978 17.9492 126.978 13.7075C126.978 9.45361 125.952 7.48887 121.095 7.48887H113.488V19.5111ZM53.412 20.2422H63.609L63.6147 16.2861H53.4177C52.5783 16.2861 50.9462 16.2861 50.9462 18.2135C50.9462 20.1683 52.5726 20.2422 53.4121 20.2422M101.841 19.5111V27H80.7969L90.3611 19.5111H101.841ZM144.211 10.1535H157.246V8.91598C157.246 8.91598 157.246 7.14923 154.106 7.14923H137.518V0H156.857C166.928 0 165.976 8.78652 165.976 8.78652V26.9931H144.211C142.905 26.9931 135.613 27.4348 135.613 18.2995C135.613 9.60973 142.906 10.1535 144.211 10.1535M146.888 20.2422H157.08L157.091 16.2861H146.894C146.056 16.2861 144.418 16.2861 144.418 18.2135C144.418 20.1683 146.049 20.2422 146.888 20.2422" fill="#0080C5"/>
</svg>
