<svg width="300" height="38" viewBox="0 0 300 38" fill="none" xmlns="http://www.w3.org/2000/svg">
<path d="M300 0.482372V7.31287H285.76V37.3821H276.16V7.31287H261.928V0.482372H300ZM266.027 30.544V37.3821H235.523V0.482372H245.117V30.544H266.027ZM81.2425 30.544V37.3821H49.1946V0.482372H80.6375V7.31668H58.7953V15.4257H78.7539V22.0431H58.7953V30.544H81.2425ZM31.9989 23.6757C36.1082 21.4456 38.6463 17.0581 38.6463 12.4539C38.6463 8.61808 37.528 5.63852 35.1797 3.67888C32.4552 1.41858 28.7146 0.482372 22.4016 0.482372H0.391943L0 2.70469C0 2.70469 0.391943 3.37061 0.848576 4.16591C1.52972 5.34174 1.47264 5.68806 1.47264 6.47198V37.3821H11.0771V25.5668H23.0067L29.4071 37.3821H39.9744L31.9989 23.6757ZM27.1468 17.686C26.409 18.4053 25.5296 18.7554 24.1711 18.7554H11.0771V7.50694H21.4199C24.4983 7.50694 26.1422 7.85322 27.2495 8.75503C28.3379 9.62275 28.863 10.9507 28.863 12.9029C28.863 14.9273 28.3226 16.5482 27.1468 17.686ZM121.434 0.4748V24.9542C119.196 22.1344 116.845 19.4175 112.872 15.049C109.637 11.5026 102.902 4.21926 99.4394 0.482372H90.1735L89.7854 2.70469C89.7854 2.70469 90.1811 3.37061 90.634 4.16591C91.1477 5.04501 91.2504 5.45974 91.2656 5.93544V37.3821L99.8922 37.3554V12.9103C101.612 15.2049 104.679 18.7323 106.723 20.9471C110.794 25.3497 116.944 32.2182 121.731 37.3819H130.019V0.48222L121.438 0.474609L121.434 0.4748ZM215.42 0.482372V23.0477C215.42 25.563 214.914 27.0623 213.689 28.2114C212.132 29.6535 209.568 30.3461 205.861 30.3461C202.102 30.3461 199.469 29.6535 197.924 28.2114C196.698 27.0623 196.192 25.5592 196.192 23.0477V0.482372H185.511L185.118 2.70469C185.118 2.70469 185.518 3.37061 185.964 4.16591C186.451 5.01453 186.564 5.42553 186.588 5.8859V23.394C186.588 33.0404 193.126 37.9491 205.729 37.9491H205.995C218.609 37.9491 224.801 33.1773 224.801 23.394V0.482372H215.413H215.42ZM165.229 0.482372H153.234C149.597 7.99398 143.268 21.8566 137.347 37.386H146.979C147.747 35.2855 148.562 33.1393 149.38 30.9932H169.08C169.909 33.1393 170.72 35.2855 171.485 37.386H181.123C175.195 21.8566 168.866 7.99398 165.229 0.482372ZM152.139 24.0371C154.661 17.7507 157.192 11.8031 159.232 7.1911C161.271 11.8031 163.809 17.7507 166.328 24.0371H152.139Z" fill="#1D1B19"/>
</svg>
