<svg width="32" height="32" viewBox="0 0 32 32" fill="none" xmlns="http://www.w3.org/2000/svg">
<circle opacity="0.2" cx="16" cy="16" r="16" fill="white"/>
<path d="M16 6C10.3925 6 6 10.3925 6 16C6 21.6075 10.3925 26 16 26C21.6075 26 26 21.6075 26 16C26 10.3925 21.6075 6 16 6ZM16 24.4375C11.2687 24.4375 7.5625 20.7313 7.5625 16C7.5625 11.2687 11.2687 7.5625 16 7.5625C20.7313 7.5625 24.4375 11.2687 24.4375 16C24.4375 20.7313 20.7313 24.4375 16 24.4375Z" fill="white" fill-opacity="0.5"/>
<path d="M16 8.96875C12.123 8.96875 8.96875 12.123 8.96875 16C8.96875 19.877 12.123 23.0312 16 23.0312C19.877 23.0312 23.0312 19.877 23.0312 16C23.0312 12.123 19.877 8.96875 16 8.96875ZM16 21.4688C12.9845 21.4688 10.5312 19.0155 10.5312 16C10.5312 12.9845 12.9845 10.5312 16 10.5312C19.0155 10.5312 21.4688 12.9845 21.4688 16C21.4688 19.0155 19.0155 21.4688 16 21.4688Z" fill="white" fill-opacity="0.5"/>
<path d="M16.7812 12.0938H15.2188V16.4829L18.7756 18.2613L19.4744 16.8637L16.7812 15.5171V12.0938Z" fill="white" fill-opacity="0.5"/>
</svg>
