<svg width="32" height="32" viewBox="0 0 32 32" fill="none" xmlns="http://www.w3.org/2000/svg">
<circle opacity="0.2" cx="16" cy="16" r="16" fill="white" fill-opacity="0.5"/>
<g clip-path="url(#clip0_525_4792)">
<path d="M20.6875 18.9688C21.119 18.9688 21.4688 18.619 21.4688 18.1875C21.4688 17.756 21.119 17.4062 20.6875 17.4062C20.256 17.4062 19.9062 17.756 19.9062 18.1875C19.9062 18.619 20.256 18.9688 20.6875 18.9688Z" fill="white" fill-opacity="0.5"/>
<path d="M20.6875 13.5C18.1028 13.5 16 15.6028 16 18.1875C16 19.9925 17.083 21.3126 18.1304 22.5893C19.0436 23.7025 19.9062 24.754 19.9062 26H21.4688C21.4688 24.754 22.3314 23.7025 23.2446 22.5893C24.2992 21.3037 25.375 19.98 25.375 18.1875C25.375 15.6028 23.2722 13.5 20.6875 13.5ZM22.0366 21.5983C21.5589 22.1805 21.0739 22.7718 20.6875 23.414C20.3011 22.7718 19.816 22.1805 19.3384 21.5982C18.4251 20.485 17.5625 19.4335 17.5625 18.1875C17.5625 16.4644 18.9644 15.0625 20.6875 15.0625C22.4106 15.0625 23.8125 16.4644 23.8125 18.1875C23.8125 19.4316 22.9595 20.4734 22.0366 21.5983Z" fill="white" fill-opacity="0.5"/>
<path d="M13.6562 20.0679L8.1875 17.3336V11.268L12.875 13.6118V17.4479H14.4375V13.6118L19.125 11.268V12.1353C19.6246 12.0062 20.1482 11.9375 20.6875 11.9375V9.52105L13.6562 6L6.625 9.52105V18.2992L13.6562 21.8148L15.1591 21.0634C14.9268 20.6083 14.7339 20.12 14.6061 19.593L13.6562 20.0679ZM18.1593 10.0039L13.6562 12.2554L9.15316 10.0039L13.6562 7.75238L18.1593 10.0039Z" fill="white" fill-opacity="0.5"/>
</g>
<defs>
<clipPath id="clip0_525_4792">
<rect width="20" height="20" fill="white" transform="translate(6 6)"/>
</clipPath>
</defs>
</svg>
