<svg width="32" height="32" viewBox="0 0 32 32" fill="none" xmlns="http://www.w3.org/2000/svg">
<circle cx="16" cy="16" r="16" fill="#444444"/>
<path d="M15.3122 22.9448C14.6582 22.9448 14.0432 22.8098 13.4672 22.5398C12.8972 22.2698 12.4052 21.8948 11.9912 21.4148C11.5772 20.9348 11.2802 20.3768 11.1002 19.7408L13.4582 19.1108C13.5362 19.4168 13.6742 19.6808 13.8722 19.9028C14.0762 20.1248 14.3102 20.2988 14.5742 20.4248C14.8442 20.5448 15.1202 20.6048 15.4022 20.6048C15.7742 20.6048 16.1132 20.5148 16.4192 20.3348C16.7312 20.1548 16.9772 19.9118 17.1572 19.6058C17.3432 19.2998 17.4362 18.9608 17.4362 18.5888C17.4362 18.2168 17.3432 17.8778 17.1572 17.5718C16.9772 17.2658 16.7312 17.0228 16.4192 16.8428C16.1132 16.6628 15.7742 16.5728 15.4022 16.5728C14.9462 16.5728 14.5742 16.6508 14.2862 16.8068C13.9982 16.9568 13.7822 17.1008 13.6382 17.2388L11.5682 16.6088L11.9642 9.7148H19.0382V12.0008H13.3142L14.1782 11.1908L13.9082 15.6368L13.4942 15.1328C13.8182 14.8688 14.1872 14.6768 14.6012 14.5568C15.0152 14.4368 15.4022 14.3768 15.7622 14.3768C16.5782 14.3768 17.2952 14.5598 17.9132 14.9258C18.5372 15.2858 19.0232 15.7838 19.3712 16.4198C19.7252 17.0498 19.9022 17.7728 19.9022 18.5888C19.9022 19.4048 19.6892 20.1428 19.2632 20.8028C18.8372 21.4568 18.2762 21.9788 17.5802 22.3688C16.8842 22.7528 16.1282 22.9448 15.3122 22.9448Z" fill="white"/>
</svg>
