<svg width="32" height="32" viewBox="0 0 32 32" fill="none" xmlns="http://www.w3.org/2000/svg">
<circle cx="16" cy="16" r="16" fill="#E30613"/>
<g clip-path="url(#clip0_318_7937)">
<path d="M25.2188 19.7891C25.6503 19.7891 26 19.4393 26 19.0078V13.845C26 13.6157 25.8993 13.3979 25.7244 13.2495L18.108 6.78324C16.9489 5.79936 15.2587 5.79005 14.089 6.76142L6.28213 13.244C6.10345 13.3924 6 13.6126 6 13.845V22.9141C6 24.6372 7.40182 26.0391 9.125 26.0391H22.875C24.5982 26.0391 26 24.6372 26 22.9141C26 22.4826 25.6503 22.1328 25.2188 22.1328C24.7872 22.1328 24.4375 22.4826 24.4375 22.9141C24.4375 23.7756 23.7365 24.4766 22.875 24.4766V15.8438C22.875 15.4122 22.5253 15.0625 22.0938 15.0625H9.90625C9.47473 15.0625 9.125 15.4122 9.125 15.8438V24.4766C8.26349 24.4766 7.5625 23.7756 7.5625 22.9141V14.2118L15.0872 7.96351C15.6721 7.47782 16.5171 7.4824 17.0966 7.97434L24.4375 14.2066V19.0078C24.4375 19.4393 24.7872 19.7891 25.2188 19.7891ZM10.6875 19.7891H21.3125V21.3516H10.6875V19.7891ZM21.3125 16.625V18.2266H10.6875V16.625H21.3125ZM10.6875 22.9141H21.3125V24.4766H10.6875V22.9141Z" fill="white"/>
</g>
<defs>
<clipPath id="clip0_318_7937">
<rect width="20" height="20" fill="white" transform="translate(6 6)"/>
</clipPath>
</defs>
</svg>
