<svg width="151" height="25" viewBox="0 0 151 25" fill="none" xmlns="http://www.w3.org/2000/svg">
<path d="M123.19 19.3999H106.25C105.25 19.3999 104.82 19.0899 104.82 18.1099V0.749895C104.82 0.0398947 104.55 -0.000105293 104.02 -0.000105293H98.37C97.8 -0.000105293 97.61 -0.000105321 97.61 0.749895V17.5099C97.61 23.0899 99.61 24.8999 105.04 24.8999H123.27C123.94 24.8999 123.94 24.6799 123.94 24.1099V20.2199C123.94 19.6599 123.94 19.3999 123.19 19.3999V19.3999ZM92.25 -0.000105293H74C69 -0.000105293 66 1.58989 66 6.82989V18.0799C66 23.3199 69 24.8999 74.06 24.8999H92.25C92.97 24.8999 92.93 24.6799 92.93 24.1499V20.2599C92.93 19.7299 92.93 19.5099 92.25 19.5099H74.37C73.57 19.5099 73.16 19.2099 73.16 18.4099V14.9999H91.76C92.48 14.9999 92.44 14.7699 92.44 14.2499V10.4099C92.44 9.84989 92.44 9.65989 91.76 9.65989H73.16V6.48989C73.16 5.69989 73.57 5.39989 74.37 5.39989H92.25C92.97 5.39989 92.93 5.16989 92.93 4.60989V0.749895C92.93 0.229895 93 -0.000105293 92.25 -0.000105293V-0.000105293ZM61.24 -0.000105293H43C38 -0.000105293 34.93 1.58989 34.93 6.82989V18.0799C34.93 23.3199 38.02 24.8999 43 24.8999H61.24C61.95 24.8999 61.95 24.6799 61.95 24.1499V20.2599C61.95 19.7299 61.95 19.5099 61.24 19.5099H43.39C42.6 19.5099 42.18 19.2099 42.18 18.4099V14.9999H60.74C61.46 14.9999 61.46 14.7699 61.46 14.2499V10.4099C61.46 9.84989 61.46 9.65989 60.74 9.65989H42.18V6.48989C42.18 5.69989 42.6 5.39989 43.39 5.39989H61.24C61.95 5.39989 61.95 5.16989 61.95 4.60989V0.749895C62 0.229895 62 -0.000105293 61.24 -0.000105293ZM29.54 -0.000105293H8.11C3.05 -0.000105293 0 1.58989 0 6.82989V18.0799C0 23.3199 3.05 24.8999 8.11 24.8999H29.54C30.26 24.8999 30.22 24.6799 30.22 24.1499V10.4099C30.22 9.84989 30.22 9.65989 29.54 9.65989H11.84C11.13 9.65989 11.17 9.84989 11.17 10.4099V14.2699C11.17 14.7899 11.17 15.0199 11.84 15.0199H23V19.5099H8.41C7.65 19.5099 7.21 19.2099 7.21 18.4099V6.48989C7.21 5.69989 7.65 5.39989 8.41 5.39989H29.54C30.26 5.39989 30.22 5.16989 30.22 4.60989V0.749895C30.22 0.229895 30.26 -0.000105293 29.54 -0.000105293V-0.000105293ZM150.06 -0.000105293H143.53C143.136 -0.0362379 142.74 0.0199766 142.372 0.164066C142.004 0.308156 141.674 0.536144 141.41 0.829895L132.41 10.6799L123.46 0.829895C123.187 0.536009 122.851 0.308434 122.476 0.164576C122.102 0.0207184 121.699 -0.0356116 121.3 -0.000105293H114.78C114.26 -0.000105293 114.02 0.269895 114.67 0.939895L128.81 16.4899V24.1899C128.81 24.8999 129.04 24.8999 129.61 24.8999H135.26C135.79 24.8999 136.02 24.8999 136.02 24.1899V16.4899L150.2 0.939895C150.81 0.269895 150.62 -0.000105293 150.06 -0.000105293Z" fill="#A5A5A5"/>
</svg>
