<svg width="121" height="120" viewBox="0 0 121 120" fill="none" xmlns="http://www.w3.org/2000/svg">
<g clip-path="url(#clip0_384_4150)">
<path d="M86.1991 60.0004C86.1991 74.2465 74.6673 85.7782 60.4213 85.7782V60.0004H86.1991ZM60.4213 34.2227V60.0004H34.6436C34.6436 45.7544 46.1753 34.2227 60.4213 34.2227Z" fill="#A5A5A5"/>
<path d="M60.4213 34.2227C74.6674 34.2227 86.1991 45.7544 86.1991 60.0004H60.4213V34.2227ZM34.6436 60.0004H60.4213V85.7782C46.1753 85.7782 34.6436 74.2464 34.6436 60.0004Z" fill="white"/>
<path d="M60.4214 34.2222V35.6356C73.8547 35.6356 84.7858 46.5642 84.7858 60H86.1992C86.1992 45.7642 74.6572 34.2222 60.4214 34.2222ZM60.4214 84.3644C46.9881 84.3644 36.057 73.4358 36.057 60H34.6436C34.6436 74.2358 46.1856 85.7778 60.4214 85.7778M60.4214 16.5C36.3977 16.5 16.9214 35.9763 16.9214 60C16.9214 84.0237 36.3977 103.5 60.4214 103.5C84.4451 103.5 103.921 84.0237 103.921 60C103.921 35.9763 84.4451 16.5 60.4214 16.5ZM101.093 60C101.093 82.461 82.885 100.671 60.4214 100.671C37.9578 100.671 19.7501 82.461 19.7501 60C19.7501 37.539 37.9604 19.3287 60.4214 19.3287C82.8824 19.3287 101.093 37.539 101.093 60Z" fill="#A5A5A5"/>
<path d="M41.8318 39.0145C43.2219 37.5604 44.0089 35.8805 42.6188 34.2767C41.8625 33.4063 40.5925 33.2159 39.5397 33.6448L39.435 33.6854L39.4682 33.5941C39.6241 33.1804 39.7237 31.8608 38.5917 30.9498C38.0398 30.5057 37.3473 30.3408 36.6472 30.4118C35.3414 30.5438 34.3372 31.4294 31.6031 34.4568C30.7778 35.3704 29.5768 36.8118 28.8562 37.7456L36.3661 44.8206C38.8549 42.085 39.8694 41.0674 41.8318 39.0145ZM32.0324 37.2838C33.5451 35.4465 35.1524 33.7793 35.8806 33.1195C36.1106 32.9114 36.361 32.7033 36.6651 32.6221C37.1582 32.4876 37.6667 32.8353 37.7817 33.3377C37.8967 33.8427 37.5773 34.3224 37.2221 34.7182C36.4223 35.614 33.4889 38.6617 33.4889 38.6617L32.0324 37.2838ZM34.9735 40.0549C34.9735 40.0549 37.8303 37.0554 38.7629 36.0962C39.1334 35.7155 39.3711 35.4846 39.6266 35.3603C39.9562 35.2004 40.3165 35.1674 40.6385 35.3806C40.9553 35.5912 41.101 35.9541 41.0218 36.3144C40.9272 36.7433 40.5746 37.1518 40.2833 37.464C39.8898 37.8827 36.5015 41.4836 36.4964 41.4887L34.9735 40.0549ZM61.2799 30.5768L63.6844 25.2274L63.8377 24.7529L63.7942 25.2477L64.0472 32.3963C64.8904 32.4749 65.7618 32.5917 66.6203 32.7338L66.2294 22.1467C65.0284 22.0148 63.8326 21.9209 62.6367 21.8701L60.268 27.7092L60.1837 28.1432L60.0993 27.7092L57.7332 21.8701C56.5373 21.9209 55.3414 22.0148 54.1405 22.1467L53.7495 32.7338C54.6081 32.5917 55.4794 32.4775 56.3227 32.3963L56.5756 25.2477L56.5322 24.7529L56.6855 25.2274L59.09 30.5768H61.2799H61.2799ZM81.2492 41.6435C81.8395 42.2728 82.6904 43.2879 83.1682 43.9045L91.9685 38.3572C91.529 37.7862 90.8288 36.9184 90.305 36.3068L84.732 39.9661L84.3513 40.2909L84.6349 39.8798L87.0956 35.0024L85.3555 33.2743L80.4417 35.7181L80.0278 35.9997L80.3574 35.6216L84.0446 30.0896C83.3956 29.5414 82.7721 29.039 81.9774 28.4299L76.3916 37.162C77.0994 37.7025 78.0321 38.4968 78.6275 39.0373L83.8862 36.3271L84.2235 36.0809L83.9756 36.4159L81.2492 41.6435Z" fill="#A5A5A5"/>
</g>
<defs>
<clipPath id="clip0_384_4150">
<rect width="87" height="87" fill="white" transform="translate(16.9214 16.5)"/>
</clipPath>
</defs>
</svg>
