<svg width="228" height="58" viewBox="0 0 228 58" fill="none" xmlns="http://www.w3.org/2000/svg">
<path d="M31.8044 0.0473639C24.3185 0.188777 15.3073 1.49402 10.0728 4.6433C6.69787 6.69663 2.54893 10.8754 1.27591 17.3097C7.41482e-05 23.7426 0.589356 30.0072 1.84687 36.45C3.10156 42.89 5.61799 50.0993 12.5865 53.8142C19.5563 57.5277 24.2297 57.9675 33.7809 57.9406C43.332 57.9689 48.0054 57.5277 54.9753 53.8142C61.9438 50.0993 64.4588 42.89 65.7149 36.4486C66.971 30.0086 67.5603 23.7426 66.2858 17.3097C65.0128 10.8754 60.8639 6.69663 57.4889 4.64472C50.6868 0.890188 43.2052 0.171808 35.756 0.0473639C34.3998 0.0558488 33.0577 0.0318085 31.8016 0.0473639H31.8044ZM41.5487 1.77826C44.3118 2.04271 51.2267 2.58149 56.4034 5.67562C61.5772 8.77116 63.8921 12.7067 64.8577 17.4808C65.8248 22.2549 65.7403 28.2919 64.401 35.9339C63.0617 43.5758 59.3146 49.9338 54.2323 52.6108C49.1487 55.2877 42.6962 56.7047 33.7809 56.5675C24.8655 56.7047 18.413 55.2877 13.3294 52.6108C8.2472 49.9338 4.50005 43.5744 3.16077 35.9339C1.82149 28.2919 1.73691 22.2549 2.704 17.4808C3.66969 12.7067 5.98312 8.77116 11.1584 5.67562C16.3336 2.58149 23.2485 2.04271 26.0131 1.77826C31.1728 1.34837 36.4524 1.31584 41.5487 1.77826ZM32.0666 3.10755C27.8232 3.15987 23.2838 3.68169 20.1752 4.35199C16.6226 5.11562 15.4088 5.38714 12.3454 7.22551C9.28197 9.06389 5.51649 12.8057 4.36048 18.5683C3.20447 24.3309 3.74018 29.9436 4.87927 35.7118C6.01836 41.4815 8.30218 47.9384 14.6264 51.2645C25.1376 56.7556 42.6878 56.5378 52.9354 51.2645C59.2596 47.9384 61.542 41.4801 62.6825 35.7118C63.823 29.9436 64.3573 24.3309 63.2013 18.5683C62.0453 12.8057 58.2784 9.06389 55.2164 7.22551C52.1529 5.38714 50.9391 5.11704 47.3865 4.35058C44.278 3.68169 39.7371 3.15987 35.4952 3.10614C34.3194 3.11604 33.1549 3.09482 32.0666 3.10614V3.10755ZM40.411 5.87926C41.5642 5.98673 43.5576 6.15218 45.8104 6.58774C46.1445 6.65703 46.332 6.7645 46.2587 7.08268C42.6356 15.9012 38.763 24.7226 34.7254 33.5411C34.1813 34.7092 33.4933 34.7545 32.935 33.7561C28.8608 24.8668 24.9557 15.9733 21.303 7.0841C21.2297 6.7645 21.4172 6.65703 21.7513 6.58915C24.0042 6.15218 25.9976 5.98673 27.1507 5.87784C31.5563 5.51441 36.0746 5.49037 40.411 5.87784V5.87926ZM18.1071 7.54794C18.3129 7.54086 18.382 7.67804 18.375 7.93682L18.3778 7.92834V22.7669C18.3778 27.4491 19.1405 29.6466 21.2058 33.4648L31.1023 51.7439C31.4393 52.3887 30.8909 52.3463 30.2959 52.3534C24.3947 52.0988 19.8778 50.9491 16.1969 49.0429C11.8055 46.769 8.57004 41.3698 7.41262 34.8817C6.25661 28.3923 6.1819 23.266 7.01789 19.2131C7.85247 15.1588 9.85152 11.8158 14.3205 9.18692C15.4342 8.53217 16.6438 8.01177 17.866 7.59602C17.9433 7.5685 18.0239 7.55185 18.1057 7.54652L18.1071 7.54794ZM49.4547 7.54794C49.5364 7.55281 49.617 7.56899 49.6943 7.59602C50.918 8.01177 52.1262 8.53217 53.2413 9.18692C57.7102 11.8158 59.7093 15.1588 60.5439 19.2131C61.3799 23.266 61.3051 28.3923 60.1491 34.8817C58.9931 41.3698 55.7549 46.769 51.3663 49.0429C47.684 50.9491 43.1657 52.0988 37.2658 52.3534C36.6709 52.3463 36.1225 52.3887 36.4608 51.7439L46.356 33.4648C48.4199 29.6466 49.184 27.4491 49.184 22.7669V7.92834L49.1868 7.93682C49.1797 7.67804 49.2488 7.54086 49.4547 7.54652V7.54794ZM132.102 4.4835V6.76875H118.942V13.1592L123.622 13.2016V10.1598C123.617 9.73843 123.954 9.59984 124.511 9.6451H145.22C145.461 9.64227 146.017 9.69742 146.026 10.1118V13.1592L150.71 13.1168L150.684 9.34106C150.697 7.68652 149.437 6.92289 148.051 6.89602H137.21V4.4835H132.102ZM169.249 4.67724L164.823 12.9711H169.103L170.772 9.91661H188.94V7.44187L172.512 7.33299L174.361 4.71401L169.249 4.67724ZM205.114 4.67724L203.154 7.58753L194.8 7.6144V10.1358L200.617 10.1316C200.978 10.1287 201.154 10.3437 201.016 10.5699L196.7 17.0113C196.076 18.0394 196.173 19.6727 197.933 19.7024L209.924 19.7448L209.959 24.0466H194.414V26.7646L209.924 26.7971L209.958 33.1042H214.664L214.698 26.7971L227.822 26.7646V24.0466H214.664L214.698 19.7448L226.017 19.7123V17.3847L214.724 17.3748L214.665 12.6614H209.956L209.972 17.338L203.264 17.2645C202.184 17.321 202.014 16.7879 202.358 16.283L206.563 10.1726L227.306 10.1372V7.61581L208.558 7.58753L210.472 4.7027L205.114 4.67724ZM84.7763 5.02653V15.6849L79.7463 15.7655V18.482H84.7763V30.9745C84.8666 32.1313 85.6349 32.6828 86.7345 32.9373H95.3157V30.2547H90.211C89.8867 30.4951 89.3256 30.1288 89.3665 29.409V18.4071H94.5136C98.4045 24.1159 101.548 30.0991 113.155 32.9727L113.034 29.706C107.747 27.4066 102.404 25.226 99.1968 18.5329H113.161V15.8249H89.3256V5.0336L84.7763 5.02653ZM160.799 5.33199L155.903 5.36875C157.172 6.80551 158.2 7.99056 160.001 11.0069H164.172C163.161 9.13884 162.268 7.29339 160.799 5.33199ZM104.977 5.54128C100.798 8.40914 97.1809 11.0918 95.0183 13.2865L99.8707 13.3289C103.862 9.88126 107.712 7.99763 111.599 5.71097L104.977 5.54128ZM129.938 12.2796L127.491 15.8715H118.071V18.5018H125.424C125.607 18.6758 125.375 18.9855 125.134 19.3008L123.302 22.1927C123.006 22.7357 122.981 23.2915 123.646 23.884L130.828 27.2129C131.127 27.3614 131.458 27.5042 130.863 27.7941C127.481 28.7189 123.748 29.5476 118.071 29.8503V33.1056C124.936 32.3999 131.449 31.4595 135.923 29.2676C136.031 29.1771 136.073 29.0301 136.575 29.2676C141.33 30.6987 145.986 32.25 151.434 33.0321V29.8503C147.714 29.1378 144.031 28.2391 140.4 27.1577C140.108 26.9838 140.118 26.7802 140.31 26.5581C143.473 24.3988 145.088 21.5252 146.384 18.5032H151.434V15.8729H133.093C132.942 15.7881 132.66 15.8079 132.823 15.4996L135.106 12.7166C135.219 12.5653 135.233 12.4309 135.252 12.2796H129.938ZM170.551 12.4663V14.859H187.578V12.4663H170.551ZM160.836 13.6994L156.158 13.7715C157.488 15.5109 158.817 17.1697 160.147 19.8467C160.399 20.6954 160.361 21.6045 160.038 22.4289C159.006 26.141 157.768 29.5802 156.447 32.9062L160.799 32.9416C162.17 29.2436 163.172 25.5456 164.063 21.8477C164.472 19.6162 164.035 19.2711 163.701 18.3915C162.887 16.6366 161.938 15.0655 160.836 13.6994ZM167.132 17.3832V19.9061L181.324 19.9556C182.043 19.9018 182.181 20.3444 182.232 20.8648L182.267 27.1945C182.349 30.143 185.959 32.9472 189.513 33.0391L189.577 30.0765C187.631 29.6042 186.657 27.5212 186.654 26.2852V19.5554C186.629 18.6701 185.903 17.5374 184.479 17.4087L167.132 17.3832ZM130.456 18.5032H141.713C141.064 21.2014 139.035 23.5814 135.789 25.7309C133.266 24.929 130.784 24.0016 128.354 22.9521C127.63 22.5491 127.725 22.146 128.019 21.7444L130.456 18.5032ZM88.515 38.1894C83.8247 38.1894 79.9183 39.7082 79.9183 45.7055C80.0254 51.717 85.1161 53.1962 88.8505 53.1962H95.9685V50.2449L89.5512 50.2859C88.109 50.2859 84.6057 49.7627 84.6057 45.731C84.5014 41.5381 88.2711 41.1746 89.7768 41.1746H95.9685V38.2134L88.515 38.1894ZM174.483 38.1894C172.138 38.2149 165.887 38.9177 165.887 45.7055C165.887 52.1554 170.803 53.1962 174.419 53.1962H183.777C184.003 53.1962 184.19 53.0322 184.19 52.7621V44.7086C184.19 44.5318 184.075 44.4088 183.89 44.4088L176.778 44.3932V47.1593H179.816C180.171 47.1593 180.26 47.5552 180.212 47.5552V49.8956C180.212 50.1106 180.134 50.2718 179.854 50.2548L174.567 50.2859C173.631 50.2859 170.573 49.7386 170.573 45.6419C170.573 41.391 173.497 41.1746 174.794 41.1746H184.225V38.2134L174.483 38.1894ZM127.802 38.2134L121.458 53.1651L125.124 53.1962L129.98 41.589C130.136 41.21 130.637 41.2567 130.784 41.6455L135.815 53.199H140.496L134.533 39.5427C133.94 38.3124 133.358 38.2149 132.235 38.2149L127.802 38.2134ZM145.955 38.2134H143.992L144.022 53.1679L147.484 53.2004V44.4484C147.601 44.4724 147.755 44.2419 148.351 44.6973L156.979 52.277C157.398 52.6772 158.07 53.1962 159.237 53.1962H161.148C161.415 53.1962 161.651 52.9742 161.651 52.5697L161.686 38.2149H158.19L158.18 46.2783C158.18 47.0942 157.56 47.1154 156.986 46.5399L148.393 39.1128C147.917 38.6844 147.449 38.2134 145.955 38.2134ZM194.236 38.2134L187.892 53.1651L191.558 53.1962L196.414 41.5876C196.569 41.2086 197.071 41.2552 197.218 41.6441L202.248 53.1976H206.928L200.965 39.5413C200.374 38.311 199.792 38.2134 198.668 38.2134H194.236ZM212.267 38.2134H210.305L210.334 53.1679L213.797 53.2004V44.4484C213.915 44.4724 214.067 44.2419 214.665 44.6973L223.293 52.277C223.71 52.6772 224.384 53.1962 225.551 53.1962H227.462C227.729 53.1962 227.965 52.9742 227.965 52.5697L228 38.2149H224.504L224.493 46.2783C224.493 47.0942 223.874 47.1154 223.3 46.5399L214.706 39.1128C214.229 38.6844 213.761 38.2134 212.267 38.2134ZM100.702 38.2134V53.199H104.887V46.9613H113.616V53.1976H117.982V38.2163H113.616V43.8375H104.887V38.2163L100.702 38.2134Z" fill="#A5A5A5"/>
<path d="M85.2176 5.28906V5.33431H85.2655V5.28906H85.2176ZM85.1006 5.29189C85.0853 5.29185 85.0701 5.29423 85.0555 5.29896C85.0437 5.30244 85.0327 5.30821 85.0231 5.31593C85.0147 5.32285 85.008 5.33154 85.0033 5.34139C84.999 5.35022 84.9966 5.35985 84.9963 5.36967C84.9963 5.38805 85.0005 5.40219 85.0104 5.41351C85.0232 5.42717 85.04 5.43654 85.0583 5.44038C85.0754 5.44537 85.0928 5.44915 85.1105 5.45169C85.126 5.45452 85.1387 5.45876 85.1429 5.46442C85.1499 5.47007 85.1528 5.47856 85.1528 5.48704C85.1528 5.50118 85.1471 5.51108 85.1359 5.51674C85.1219 5.52391 85.1064 5.52732 85.0907 5.52664C85.0743 5.52614 85.0581 5.52279 85.0428 5.51674C85.0267 5.51097 85.0115 5.50287 84.9977 5.4927H84.9949V5.54078C85.0237 5.55543 85.0556 5.56272 85.0879 5.56199C85.1158 5.56385 85.1436 5.55639 85.1669 5.54078C85.1763 5.53407 85.1839 5.52514 85.1891 5.51478C85.1942 5.50443 85.1968 5.49296 85.1965 5.48138C85.1968 5.47309 85.1955 5.46482 85.1926 5.45704C85.1897 5.44927 85.1852 5.44216 85.1796 5.43613C85.1665 5.42427 85.1504 5.41641 85.133 5.41351C85.1163 5.40896 85.0994 5.40519 85.0823 5.40219C85.071 5.39984 85.0604 5.39501 85.0513 5.38805C85.0442 5.38381 85.0414 5.37532 85.0414 5.36543C85.0408 5.35969 85.042 5.3539 85.0447 5.34885C85.0475 5.34379 85.0517 5.33971 85.0569 5.33714C85.0695 5.33075 85.0837 5.32782 85.0978 5.32866C85.1291 5.32884 85.1597 5.33871 85.1852 5.35694V5.31169C85.1584 5.29857 85.129 5.2918 85.0992 5.29189H85.1006ZM85.1669 5.37674V5.41492H85.2204V5.6228L85.219 5.65391C85.2182 5.66185 85.2158 5.66955 85.212 5.67654C85.2089 5.68262 85.2039 5.68757 85.1979 5.69068C85.1825 5.69632 85.1657 5.69681 85.1499 5.69209C85.1438 5.69047 85.1376 5.68858 85.1316 5.68643H85.1288V5.72886C85.1449 5.73298 85.1615 5.73488 85.1781 5.73452C85.1896 5.73492 85.2009 5.733 85.2116 5.72887C85.2223 5.72473 85.232 5.71848 85.2402 5.71047C85.2557 5.69633 85.2627 5.67229 85.2627 5.6426V5.37815L85.1669 5.37674ZM85.3812 5.38522C85.3525 5.38458 85.324 5.38839 85.2966 5.39654V5.44038H85.2994C85.3257 5.43074 85.3532 5.42502 85.3812 5.42341L85.4093 5.42482L85.4305 5.43189C85.4366 5.43559 85.4415 5.44099 85.4446 5.44745C85.4488 5.45452 85.4502 5.46159 85.4502 5.47149V5.47856L85.3797 5.48421C85.3604 5.48632 85.3414 5.49108 85.3234 5.49835C85.3088 5.50418 85.2961 5.51398 85.2867 5.52664C85.2776 5.54096 85.2732 5.55776 85.274 5.57472C85.274 5.58561 85.2762 5.59639 85.2804 5.60644C85.2846 5.61648 85.2907 5.62559 85.2985 5.63322C85.3062 5.64086 85.3154 5.64687 85.3255 5.6509C85.3355 5.65494 85.3463 5.65693 85.3572 5.65674C85.3849 5.65715 85.4121 5.64874 85.4347 5.6327C85.4398 5.62886 85.445 5.62509 85.4502 5.62138V5.64967H85.4925V5.47431C85.4932 5.45983 85.4908 5.44537 85.4855 5.43189C85.481 5.42075 85.4737 5.411 85.4643 5.40361C85.4537 5.39644 85.4417 5.39162 85.4291 5.38947C85.4133 5.38624 85.3972 5.38482 85.3812 5.38522ZM85.4516 5.51391V5.58603C85.4402 5.59443 85.4279 5.60154 85.415 5.60724C85.4017 5.61316 85.3872 5.61606 85.3727 5.61573C85.3558 5.61573 85.3417 5.6129 85.3332 5.60583C85.3234 5.59734 85.3191 5.58603 85.3191 5.57189C85.3191 5.55775 85.3233 5.54785 85.3304 5.54078C85.3391 5.53257 85.3498 5.52673 85.3614 5.52381C85.3909 5.51975 85.4205 5.51645 85.4502 5.51391H85.4516Z" fill="#A5A5A5"/>
</svg>
