<svg width="135" height="135" viewBox="0 0 135 135" fill="none" xmlns="http://www.w3.org/2000/svg">
<path d="M67.5595 88.1584C100.637 88.1584 127.451 70.8864 127.451 49.5802C127.451 28.274 100.637 11.002 67.5595 11.002C34.4824 11.002 7.66802 28.274 7.66802 49.5802C7.66802 70.8864 34.4824 88.1584 67.5595 88.1584Z" fill="#A5A5A5"/>
<path d="M67.5595 88.1584C100.637 88.1584 127.451 70.8864 127.451 49.5802C127.451 28.274 100.637 11.002 67.5595 11.002C34.4824 11.002 7.66802 28.274 7.66802 49.5802C7.66802 70.8864 34.4824 88.1584 67.5595 88.1584Z" stroke="#DBDCDF" stroke-width="4"/>
<path d="M58.3674 58.9156L51.5805 62.0113L32.8868 62.0828L35.6015 67.941C35.6015 67.941 36.4588 69.5603 38.3877 69.4174H51.5805L58.296 66.4169L58.3674 58.9156ZM74.7275 70.6795C72.5366 70.2747 72.7033 68.1791 72.7033 68.1791V25.624L66.8451 25.5764L58.4389 29.458V33.6968C62.2015 31.7203 62.3205 35.0304 62.3205 35.0304L62.5587 68.5125C62.5587 70.7034 60.6536 70.7748 60.6536 70.7748L58.0579 70.7272L58.0102 74.204H77.1565L77.1088 70.8462L74.7275 70.6795ZM58.2722 48.2946H26.9333L29.5528 54.8196C30.553 56.4389 31.5532 56.2008 31.5532 56.2008H58.2722V48.2946ZM27.6239 45.5561H58.5103V37.6499H23.0041L25.6236 44.1749C26.6237 45.7942 27.6239 45.5561 27.6239 45.5561ZM84.0624 37.9833V36.7688L76.704 36.7212V45.7466L106.709 45.5799C109.424 45.4132 109.543 44.1987 109.543 44.1987L112.139 38.1262L84.0624 37.9833ZM83.4671 59.0584L76.6802 59.1775V66.2026L83.348 66.1549L87.6821 69.465L97.4219 69.5127C99.5652 69.2269 99.6128 67.8933 99.6128 67.8933L102.28 62.2733H87.8012L83.4671 59.0584ZM76.7516 56.0103L102.875 55.9627C104.376 56.0103 105.185 54.6767 105.185 54.6767L108.09 48.6042L76.704 48.4851L76.7516 56.0103ZM67.5595 15.8604C37.2447 15.8604 12.6689 30.9583 12.6689 49.5806C12.6689 68.2029 37.2447 83.277 67.5834 83.277C97.922 83.277 122.498 68.1791 122.498 49.5806C122.474 30.9583 97.8982 15.8604 67.5595 15.8604ZM67.5595 79.3477C40.0309 79.3477 17.7174 66.0121 17.7174 49.5806C17.7174 33.1491 40.0309 19.8134 67.5595 19.8134C95.0882 19.8134 117.402 33.1491 117.402 49.5806C117.402 66.0121 95.0882 79.3477 67.5595 79.3477Z" fill="url(#paint0_radial_203_1542)"/>
<path d="M46.9607 106.9L29.2433 106.662V101.566L49.1753 101.328L51.7234 95.5409H22.1944V125.07L29.3861 124.951V112.33H44.7936L46.9607 106.9ZM109.305 95.4219L101.899 114.116L97.3267 95.4933L90.6826 95.4219L86.2057 114.044L78.49 95.4457H71.3935L84.3006 124.951H90.7065L94.0166 109.734L97.5648 124.951L103.971 124.808L116.568 95.6124L109.305 95.4219ZM57.1768 95.4933L44.5078 124.999H51.6043L54.5334 118.116H68.7502L71.4412 125.07L79.0854 124.832L66.3689 95.4933H57.1768ZM56.9386 113.044L61.6537 101.994L66.5117 113.115L56.9386 113.044Z" fill="#A5A5A5"/>
<defs>
<radialGradient id="paint0_radial_203_1542" cx="0" cy="0" r="1" gradientUnits="userSpaceOnUse" gradientTransform="translate(67.5685 49.572) scale(45.5549 45.5549)">
<stop offset="0.1455" stop-color="#FCFCFC"/>
<stop offset="0.5322" stop-color="#EFEFEF"/>
<stop offset="1" stop-color="#D9D9D9"/>
</radialGradient>
</defs>
</svg>
