<svg width="203" height="203" viewBox="0 0 203 203" fill="none" xmlns="http://www.w3.org/2000/svg">
<path fill-rule="evenodd" clip-rule="evenodd" d="M101.5 194.044C50.3898 194.044 8.95593 152.609 8.95593 101.5C8.95593 50.3899 50.3898 8.95605 101.5 8.95605C152.611 8.95605 194.044 50.3899 194.044 101.5C194.044 152.609 152.611 194.044 101.5 194.044Z" fill="#A5A5A5"/>
<path fill-rule="evenodd" clip-rule="evenodd" d="M101.525 115.48L26.3897 146.578C42.2206 173.179 70.9082 189.41 101.845 189.25C132.704 189.169 161.311 172.775 176.981 146.097L101.525 115.48ZM88.5105 93.5165L100.484 14.2031C69.6255 14.6044 41.179 31.2388 25.7504 57.9982C10.2418 84.7575 10.0807 117.704 25.2691 144.625L88.5105 93.5165ZM114.141 94.5686L178.105 144.069C192.972 117.149 192.65 84.4426 177.142 57.8444C169.56 44.7665 158.722 33.8741 145.682 26.2276C132.642 18.581 117.844 14.4406 102.729 14.2094L114.141 94.5686Z" fill="white"/>
</svg>
