<svg width="377" height="62" viewBox="0 0 377 62" fill="none" xmlns="http://www.w3.org/2000/svg">
<g clip-path="url(#clip0_203_1257)">
<path fill-rule="evenodd" clip-rule="evenodd" d="M35.9485 32.1169C35.9485 31.6466 35.9652 30.723 35.9652 30.723C22.0842 28.5451 12.0528 22.569 11.7755 15.5431C8.35795 19.8043 6.41889 24.684 6.41889 29.8835C6.41889 45.1833 23.219 57.7196 44.5728 58.8368C39.626 55.7196 35.9485 44.9329 35.9485 32.1169ZM0 30.9998C0 13.8803 21.3109 0 47.601 0C73.8905 0 95.2021 13.8803 95.2021 30.9998C95.2021 48.1193 73.8901 62 47.601 62C21.3109 62 0 48.1189 0 30.9998ZM58.5952 22.9004C68.4716 21.3558 75.3847 17.8115 75.3847 13.6872C75.3847 8.15169 62.9442 3.66949 47.601 3.66949C32.2568 3.66949 19.8173 8.15207 19.8173 13.6872C19.8173 17.8115 26.7293 21.3558 36.6068 22.9004C38.209 12.1704 42.527 4.47391 47.601 4.47391C52.6762 4.47391 56.993 12.17 58.5952 22.9004ZM50.6294 58.8364C71.9823 57.7196 88.7847 45.183 88.7847 29.8831C88.7847 24.684 86.8433 19.8043 83.4258 15.5427C83.1482 22.5687 73.1194 28.5447 59.2369 30.7226C59.2369 30.7226 59.2542 31.6462 59.2542 32.1165C59.2543 44.9325 55.5742 55.7193 50.6294 58.8364H50.6294ZM54.1984 23.4249C53.1444 16.5429 50.5881 11.6846 47.6011 11.6846C44.614 11.6846 42.0581 16.5429 41.0029 23.4249C45.4612 23.791 49.8545 23.7968 54.1984 23.4249ZM40.4882 31.2832C40.6626 41.2491 43.7787 49.1983 47.601 49.1983C51.4218 49.1983 54.5387 41.2495 54.7152 31.2832C49.8317 31.7074 45.0642 31.7071 40.4882 31.2832Z" fill="#A5A5A5"/>
<path fill-rule="evenodd" clip-rule="evenodd" d="M214.882 53.6169H225.009V36.6524L242.43 8.94037H230.771L219.946 27.7189L209.122 8.94037H197.459L214.882 36.6524V53.6169ZM149.595 30.9995C149.595 17.9146 160.208 7.30664 173.298 7.30664C186.388 7.30664 197 17.9142 197 30.9995C197 44.086 186.388 54.6924 173.298 54.6924C160.208 54.6924 149.595 44.086 149.595 30.9995ZM173.298 46.0045C180.605 46.0045 186.532 39.2859 186.532 30.9995C186.532 22.7136 180.606 15.9942 173.298 15.9942C165.99 15.9942 160.064 22.7136 160.064 30.9995C160.064 39.2855 165.99 46.0045 173.298 46.0045ZM133.11 53.6169H123.124V17.1784H109.192V8.94037H147.041V17.1784H133.11V53.6169ZM343.198 43.5648L339.357 53.6169H327.696L346.133 8.94002H358.561L377 53.6169H365.336L361.496 43.5648L343.198 43.5648ZM352.392 19.6744H352.305L346.063 36.0254H358.63L352.392 19.6744ZM317.187 53.6169H307.202V17.1784H293.27V8.94037H331.117V17.1784H317.187V53.6169ZM242.892 30.9995C242.892 17.9146 253.505 7.30664 266.591 7.30664C279.684 7.30664 290.296 17.9142 290.296 30.9995C290.296 44.086 279.684 54.6924 266.591 54.6924C253.505 54.6924 242.892 44.086 242.892 30.9995ZM266.591 46.0045C273.902 46.0045 279.828 39.2859 279.828 30.9995C279.828 22.7136 273.902 15.9942 266.591 15.9942C259.286 15.9942 253.361 22.7136 253.361 30.9995C253.361 39.2855 259.286 46.0045 266.591 46.0045Z" fill="#A5A5A5"/>
</g>
<defs>
<clipPath id="clip0_203_1257">
<rect width="377" height="62" fill="white"/>
</clipPath>
</defs>
</svg>
