<svg width="140" height="117" viewBox="0 0 140 117" fill="none" xmlns="http://www.w3.org/2000/svg">
<path d="M81.5833 63.1753C81.4722 63.2031 81.0278 63.2031 80.8333 63.2031H66.5V66.5324H81.0833C81.1944 66.5324 82.0556 66.5324 82.2222 66.5047C85.1944 66.2272 86.5556 63.758 86.5556 61.5939C86.5556 59.3743 85.1389 56.9882 82.4444 56.7385C81.9167 56.683 81.4722 56.683 81.2778 56.683H71.75C71.3333 56.683 70.8611 56.6553 70.6944 56.5998C69.9444 56.4056 69.6667 55.7397 69.6667 55.1848C69.6667 54.6854 69.9444 54.0195 70.7222 53.7976C70.9444 53.7421 71.1944 53.7143 71.7222 53.7143H85.4722V50.4404H71.5C70.9167 50.4404 70.4722 50.4682 70.1111 50.5237C67.7222 50.8566 66.0556 52.771 66.0556 55.2125C66.0556 57.2102 67.3056 59.5407 70.0556 59.9292C70.5556 59.9847 71.25 59.9847 71.5556 59.9847H80.8333C81 59.9847 81.4167 59.9847 81.5 60.0124C82.5556 60.1511 82.9167 60.928 82.9167 61.6216C82.9167 62.2875 82.5 63.0088 81.5833 63.1753Z" fill="#A5A5A5"/>
<path d="M54.4167 63.1753C54.3055 63.2031 53.8611 63.2031 53.6944 63.2031H39.3333V66.5324H53.9167C54.0278 66.5324 54.8889 66.5324 55.0555 66.5047C58.0278 66.2272 59.3889 63.758 59.3889 61.5939C59.3889 59.3743 57.9722 56.9882 55.2778 56.7385C54.75 56.683 54.3056 56.683 54.1111 56.683H44.5833C44.1667 56.683 43.6944 56.6553 43.5278 56.5998C42.7778 56.4056 42.5 55.7397 42.5 55.1848C42.5 54.6854 42.7778 54.0195 43.5556 53.7976C43.7778 53.7421 44.0278 53.7143 44.5556 53.7143H58.3055V50.4404H44.3333C43.75 50.4404 43.3056 50.4682 42.9444 50.5237C40.5556 50.8566 38.8889 52.771 38.8889 55.2125C38.8889 57.2102 40.1389 59.5407 42.8889 59.9292C43.3889 59.9847 44.0833 59.9847 44.3889 59.9847H53.6667C53.8333 59.9847 54.25 59.9847 54.3333 60.0124C55.3889 60.1511 55.75 60.928 55.75 61.6216C55.75 62.2875 55.3611 63.0088 54.4167 63.1753Z" fill="#A5A5A5"/>
<path d="M31.8611 50.3291H28.25V66.6153H31.8611V50.3291Z" fill="#A5A5A5"/>
<path d="M20.2778 66.6153V50.3291H16.6667V62.4813L4.63889 50.3291H0V66.6153H3.61111V54.4076L15.7222 66.6153H20.2778Z" fill="#A5A5A5"/>
<path d="M136.417 50.3291V62.4813L124.389 50.3291H119.75V66.6153H123.361V54.4076L135.444 66.6153H140V50.3291H136.417Z" fill="#A5A5A5"/>
<path d="M100.944 50.3291L90.7778 66.6153H95.1667L96.9722 63.7021H108.833L110.639 66.6153H115L104.833 50.3291H100.944ZM106.972 60.6224H98.8333L102.917 54.0747L106.972 60.6224Z" fill="#A5A5A5"/>
<path d="M20.0833 41.0901C27.3611 19.8653 47.4167 5.60446 70.0278 5.60446C92.6389 5.60446 112.722 19.8653 119.972 41.0901L120.028 41.2566H135.944V39.3422L129.333 38.5653C125.25 38.0937 124.389 36.2903 123.278 34.0152L123 33.4603C113.444 13.1511 92.6389 0 70.0278 0C47.3889 0 26.6111 13.1511 17.0556 33.5158L16.7778 34.0707C15.6667 36.3457 14.8056 38.1492 10.7222 38.6208L4.11111 39.3977V41.3121H20L20.0833 41.0901Z" fill="#A5A5A5"/>
<path d="M120.028 75.7152L119.972 75.8817C112.694 97.1065 92.6389 111.34 70.0278 111.34C47.4167 111.34 27.3333 97.0788 20.0833 75.854L20.0278 75.6875H4.13889V77.6019L10.75 78.3788C14.8333 78.8504 15.6944 80.6538 16.8056 82.9289L17.0833 83.4838C26.6389 103.849 47.4444 117 70.0555 117C92.6667 117 113.472 103.849 123.028 83.5115L123.306 82.9567C124.417 80.6816 125.278 78.8782 129.361 78.4065L135.972 77.6296V75.7152H120.028Z" fill="#A5A5A5"/>
</svg>
