<svg width="195" height="195" viewBox="0 0 195 195" fill="none" xmlns="http://www.w3.org/2000/svg">
<path d="M155.278 97.5004C155.278 129.431 129.431 155.278 97.4999 155.278V97.5004H155.278ZM97.4999 39.7227V97.5004H39.7222C39.7222 65.5697 65.5692 39.7227 97.4999 39.7227Z" fill="#A5A5A5"/>
<path d="M97.5 39.7227C129.431 39.7227 155.278 65.5697 155.278 97.5004H97.5V39.7227ZM39.7222 97.5004H97.5V155.278C65.5692 155.278 39.7222 129.431 39.7222 97.5004Z" fill="white"/>
<path d="M97.5 39.7222V42.8901C127.609 42.8901 152.11 67.3852 152.11 97.5H155.278C155.278 65.5922 129.408 39.7222 97.5 39.7222ZM97.5 152.11C67.3909 152.11 42.8901 127.615 42.8901 97.5H39.7222C39.7222 129.408 65.5922 155.278 97.5 155.278M97.5 0C43.6537 0 0 43.6537 0 97.5C0 151.346 43.6537 195 97.5 195C151.346 195 195 151.346 195 97.5C195 43.6537 151.346 0 97.5 0ZM188.66 97.5C188.66 147.844 147.849 188.66 97.5 188.66C47.1506 188.66 6.34025 147.844 6.34025 97.5C6.34025 47.1563 47.1563 6.34025 97.5 6.34025C147.844 6.34025 188.66 47.1563 188.66 97.5Z" fill="#A5A5A5"/>
<path d="M55.8338 50.4641C58.9495 47.205 60.7135 43.4396 57.5978 39.8449C55.9026 37.894 53.0561 37.4674 50.6965 38.4286L50.4616 38.5197L50.5361 38.3149C50.8855 37.3878 51.1088 34.4301 48.5716 32.3882C47.3345 31.3928 45.7824 31.0231 44.2131 31.1823C41.2865 31.4781 39.0357 33.4632 32.9075 40.2488C31.0575 42.2964 28.3657 45.5271 26.7506 47.6202L43.5831 63.4779C49.1615 57.3464 51.4353 55.0655 55.8338 50.4641ZM33.8696 46.585C37.2602 42.467 40.8627 38.7301 42.495 37.2513C43.0104 36.7849 43.5717 36.3185 44.2532 36.1364C45.3586 35.835 46.4983 36.6142 46.7561 37.7404C47.0138 38.8723 46.2979 39.9473 45.5018 40.8346C43.7091 42.8424 37.1342 49.6735 37.1342 49.6735L33.8696 46.585ZM40.4618 52.7961C40.4618 52.7961 46.8649 46.0731 48.9554 43.9231C49.7858 43.0699 50.3185 42.5523 50.8912 42.2736C51.63 41.9153 52.4376 41.8413 53.1592 42.3191C53.8694 42.7912 54.1958 43.6046 54.0183 44.4122C53.8064 45.3735 53.016 46.2892 52.3631 46.9888C51.4811 47.9273 43.8867 55.9984 43.8752 56.0097L40.4618 52.7961ZM99.4243 31.5521L104.814 19.5621L105.157 18.4985L105.06 19.6076L105.627 35.6302C107.517 35.8066 109.47 36.0682 111.394 36.3867L110.518 12.6571C107.826 12.3613 105.146 12.1509 102.466 12.0371L97.1563 25.1248L96.9673 26.0974L96.7783 25.1248L91.4748 12.0371C88.7945 12.1509 86.1141 12.3613 83.4222 12.6571L82.546 36.3867C84.4703 36.0682 86.4234 35.8122 88.3134 35.6302L88.8804 19.6076L88.783 18.4985L89.1267 19.5621L94.516 31.5521H99.4243H99.4243ZM144.183 56.3567C145.506 57.7673 147.413 60.0424 148.484 61.4245L168.209 48.9909C167.224 47.7112 165.655 45.7659 164.481 44.3952L151.989 52.597L151.136 53.3251L151.772 52.4036L157.287 41.4716L153.387 37.5982L142.373 43.0756L141.446 43.707L142.184 42.8595L150.449 30.46C148.994 29.2314 147.597 28.1052 145.815 26.7402L133.296 46.312C134.882 47.5235 136.973 49.3038 138.307 50.5153L150.094 44.4407L150.85 43.889L150.294 44.6398L144.183 56.3567Z" fill="#A5A5A5"/>
</svg>
