<svg width="300" height="38" viewBox="0 0 300 38" fill="none" xmlns="http://www.w3.org/2000/svg">
<path d="M300 0.00776279V6.83826H285.76V36.9074H276.16V6.83826H261.928V0.00776279H300ZM266.027 30.0694V36.9074H235.523V0.00776279H245.117V30.0694H266.027ZM81.2425 30.0694V36.9074H49.1946V0.00776279H80.6375V6.84207H58.7953V14.9511H78.7539V21.5685H58.7953V30.0694H81.2425ZM31.9989 23.201C36.1082 20.971 38.6463 16.5835 38.6463 11.9793C38.6463 8.14347 37.528 5.16391 35.1797 3.20427C32.4552 0.943974 28.7146 0.00776279 22.4016 0.00776279H0.391943L0 2.23008C0 2.23008 0.391943 2.896 0.848576 3.6913C1.52972 4.86713 1.47264 5.21345 1.47264 5.99737V36.9074H11.0771V25.0922H23.0067L29.4071 36.9074H39.9744L31.9989 23.201ZM27.1468 17.2114C26.409 17.9307 25.5296 18.2808 24.1711 18.2808H11.0771V7.03233H21.4199C24.4983 7.03233 26.1422 7.37861 27.2495 8.28042C28.3379 9.14814 28.863 10.4761 28.863 12.4282C28.863 14.4527 28.3226 16.0736 27.1468 17.2114ZM121.434 0.000190377V24.4796C119.196 21.6598 116.845 18.9429 112.872 14.5743C109.637 11.0279 102.902 3.74465 99.4394 0.00776279H90.1735L89.7854 2.23008C89.7854 2.23008 90.1811 2.896 90.634 3.6913C91.1477 4.5704 91.2504 4.98513 91.2656 5.46083V36.9074L99.8922 36.8808V12.4357C101.612 14.7302 104.679 18.2577 106.723 20.4725C110.794 24.8751 116.944 31.7436 121.731 36.9073H130.019V0.00761056L121.438 0L121.434 0.000190377ZM215.42 0.00776279V22.5731C215.42 25.0884 214.914 26.5877 213.689 27.7368C212.132 29.1789 209.568 29.8715 205.861 29.8715C202.102 29.8715 199.469 29.1789 197.924 27.7368C196.698 26.5877 196.192 25.0846 196.192 22.5731V0.00776279H185.511L185.118 2.23008C185.118 2.23008 185.518 2.896 185.964 3.6913C186.451 4.53992 186.564 4.95092 186.588 5.41129V22.9194C186.588 32.5657 193.126 37.4745 205.729 37.4745H205.995C218.609 37.4745 224.801 32.7027 224.801 22.9194V0.00776279H215.413H215.42ZM165.229 0.00776279H153.234C149.597 7.51937 143.268 21.382 137.347 36.9114H146.979C147.747 34.8109 148.562 32.6646 149.38 30.5185H169.08C169.909 32.6646 170.72 34.8109 171.485 36.9114H181.123C175.195 21.382 168.866 7.51937 165.229 0.00776279ZM152.139 23.5625C154.661 17.2761 157.192 11.3285 159.232 6.71649C161.271 11.3285 163.809 17.2761 166.328 23.5625H152.139Z" fill="#A5A5A5"/>
</svg>
