<svg width="121" height="120" viewBox="0 0 121 120" fill="none" xmlns="http://www.w3.org/2000/svg">
<path fill-rule="evenodd" clip-rule="evenodd" d="M10.4214 51.8881V62.9042C10.455 65.9906 12.4897 68.4997 17.96 68.4997H25.6034V65.4451H17.9595C15.4268 65.3376 15.482 62.8742 15.482 62.8742V51.8881H10.4214ZM44.2471 58.4251H32.5696C33.1033 55.0271 35.3554 54.942 35.3554 54.942H44.2465V51.6735H35.1972C35.1972 51.6735 26.763 51.6197 26.763 60.1939C26.763 68.7669 35.1972 68.4991 35.1972 68.4991H44.2465V65.4446H35.3554C35.3554 65.4446 33.0333 65.3566 32.5462 61.8012H44.2465V58.4251H44.2471ZM66.2462 68.4459L58.8134 59.8347L65.7193 51.8343H59.973L55.9183 56.4806L51.9081 51.8343H46.0042L52.9886 59.8382L45.4767 68.4459H51.3806L55.9155 63.1917L60.5005 68.4459H66.2462ZM108.813 51.5H95.0283C95.0283 51.5 89.7042 51.5 89.7042 56.3227C89.7042 61.1448 95.0283 61.4126 96.7154 61.4126H102.777C102.777 61.4126 104.833 61.6815 104.833 63.1275C104.833 64.5747 103.41 65.1102 102.83 65.1102H90.9162V68.4869H104.887C104.887 68.4869 110.421 68.5945 110.421 63.2895C110.421 57.9844 104.517 58.1984 104.148 58.1984H96.9271C96.9271 58.1984 94.9145 58.0341 95.0289 56.1619C95.1347 54.4469 97.9285 54.6615 97.9285 54.6615H108.814V51.5H108.813ZM77.6398 68.4621C87.7218 68.4621 87.4248 62.3334 87.4248 62.3334V51.784H82.235V61.6804C82.235 61.6804 82.0871 65.3983 77.5408 65.3983C72.9945 65.3983 72.8454 61.6804 72.8454 61.6804V51.784H67.6567V62.3334C67.6567 62.3334 67.3603 68.4621 77.4418 68.4621H77.6398Z" fill="#A5A5A5"/>
</svg>
