<svg width="204" height="26" viewBox="0 0 204 26" fill="none" xmlns="http://www.w3.org/2000/svg">
<path d="M31.61 8.53006L36.31 0.290039H48.08L34.17 25.5701H22.4L28.48 14.28C26.352 14.1287 24.2154 14.1455 22.09 14.3301C18.99 14.6501 16.14 17.4 14.85 19.78L11.78 25.5701H0L13.91 0.290039H25.68L20.68 9.11005C22.9497 8.72586 25.248 8.53517 27.55 8.54004C29.83 8.51004 31.61 8.53006 31.61 8.53006Z" fill="black"/>
<path d="M93.4998 25.57H105.94L135.47 0.290039H120.84L104.64 13.65L104.18 0.290039H93.0498L93.4998 25.57Z" fill="black"/>
<path d="M77.6999 0.290039C72.7734 0.395901 67.9552 1.75535 63.6999 4.24005C61.8492 5.5193 60.0668 6.89451 58.3599 8.36005L39.3599 25.5701H50.3599L53.4999 22.4501C55.8537 20.6656 58.7364 19.7188 61.6899 19.7601C65.2399 19.7601 68.4199 20.0701 68.4199 20.0701L65.9499 25.5701H75.2099L86.9999 0.290039H77.6999ZM70.8699 14.5801H62.0699L65.4899 11.2501C67.3906 9.52663 69.3943 7.92034 71.4899 6.44006C72.6685 5.77895 74.0325 5.52582 75.3699 5.72006L70.8699 14.5801Z" fill="black"/>
<path d="M155.77 0.290039C150.844 0.395901 146.025 1.75535 141.77 4.24005C139.92 5.51935 138.137 6.89455 136.43 8.36005L117.43 25.5701H128.43L131.57 22.4501C133.924 20.6656 136.807 19.7188 139.76 19.7601C143.31 19.7601 146.49 20.0701 146.49 20.0701L144.02 25.5701H153.3L165.09 0.290039H155.77ZM148.94 14.5801H140.14L143.56 11.2501C145.461 9.52667 147.465 7.92038 149.56 6.44006C150.739 5.77895 152.103 5.52582 153.44 5.72006L148.94 14.5801Z" fill="black"/>
<path d="M177.98 16.9298C177.98 16.9298 183.04 7.82984 184.16 5.92984C185.621 3.58591 187.664 1.66011 190.09 0.339844H175.57C175.57 0.339844 167.19 15.2598 165.96 17.4198C164.57 19.8698 164.66 22.8498 167.06 24.4198C168.64 25.4698 173.43 25.5799 173.43 25.5799H197.54L203.54 18.9898H178.55C178.37 18.8996 178.211 18.7726 178.083 18.617C177.955 18.4614 177.861 18.2806 177.807 18.0865C177.754 17.8923 177.741 17.6891 177.771 17.4898C177.801 17.2906 177.872 17.0998 177.98 16.9298Z" fill="black"/>
</svg>
