<svg width="162" height="116" viewBox="0 0 162 116" fill="none" xmlns="http://www.w3.org/2000/svg">
<path fill-rule="evenodd" clip-rule="evenodd" d="M7.11261 29.4731C7.11261 13.7212 38.961 0.952148 78.2501 0.952148C117.538 0.952148 149.387 13.7212 149.387 29.4731C149.387 45.225 117.538 57.9941 78.2501 57.9941C38.9618 57.9941 7.11261 45.2259 7.11261 29.4731ZM94.1163 31.9705C94.1067 31.9236 94.0831 31.8807 94.0487 31.8476C94.0143 31.8144 93.9706 31.7924 93.9236 31.7845C91.8762 31.4847 89.8199 31.2494 87.7578 31.079C87.6363 31.0579 87.5505 30.9451 87.6307 30.678C94.2054 23.7438 96.7027 14.9204 93.3784 8.01704C93.3821 7.98559 93.392 7.95517 93.4074 7.92754C93.4229 7.89991 93.4436 7.8756 93.4684 7.85599C93.4933 7.83639 93.5217 7.82188 93.5521 7.8133C93.5825 7.80471 93.6143 7.80222 93.6457 7.80596C116.271 10.5566 132.79 19.2168 132.79 29.4731C132.79 41.9435 108.372 52.0529 78.2509 52.0529C48.1294 52.0529 23.7111 41.9443 23.7111 29.4731C23.7111 18.6631 42.0633 9.62617 66.5739 7.4122C66.693 7.41626 66.7934 7.508 66.7999 7.69635L61.4782 37.0682C61.3787 37.5843 61.3943 38.116 61.5239 38.6254C61.6534 39.1347 61.8937 39.609 62.2276 40.0144C62.5614 40.4198 62.9805 40.7461 63.4549 40.9702C63.9294 41.1942 64.4473 41.3103 64.9717 41.3102L65.1621 41.32C69.9087 41.0723 75.0092 39.5874 79.8271 36.7995C81.1924 36.0094 82.5064 35.1336 83.7613 34.1771C83.7973 34.1474 83.8414 34.1292 83.8879 34.1247C83.9343 34.1202 83.9811 34.1297 84.0221 34.152C85.6267 35.2228 86.5501 36.4763 86.5501 37.8175C86.5501 39.6394 84.8459 41.3013 82.0425 42.5621C78.7855 44.0267 74.0445 44.9474 68.7658 44.9474C64.2921 44.9474 60.2049 44.2857 57.0337 43.1816C57.003 43.1761 56.9715 43.1767 56.9411 43.1835C56.9107 43.1903 56.8818 43.203 56.8563 43.2209C56.8308 43.2389 56.8091 43.2617 56.7924 43.2881C56.7757 43.3145 56.7644 43.344 56.7591 43.3748L56.3071 45.8648C56.2995 45.9241 56.3143 45.9841 56.3487 46.0329C56.383 46.0818 56.4344 46.1159 56.4926 46.1287C62.9427 47.6331 70.3606 48.4888 78.2557 48.4888C88.077 48.4888 96.0409 45.2957 96.0409 41.3589C96.0409 39.8269 94.8372 38.4086 92.7896 37.2476C90.9954 36.3659 89.8655 35.2228 90.1425 34.4564C90.43 33.6616 92.1464 33.5341 94.1852 34.0846C94.301 34.1 94.4128 34.0302 94.4541 33.8223L94.1163 31.9705ZM78.2501 13.9932C78.2501 14.1475 78.2452 14.3009 78.2355 14.4511C78.4947 19.6852 75.266 26.6876 69.3668 32.6005C68.1957 33.7762 66.9486 34.8733 65.6335 35.8845C65.5816 35.9178 65.5187 35.9292 65.4585 35.9161C65.3354 35.8902 65.2552 35.7724 65.2771 35.6279L71.0589 3.72793C71.0557 3.66895 71.0309 3.61323 70.9892 3.57155C70.9474 3.52986 70.8917 3.50516 70.8329 3.50223C38.9675 5.00419 14.226 16.0586 14.226 29.4731C14.226 43.9123 42.8903 55.617 78.2501 55.617C113.611 55.617 142.275 43.9123 142.275 29.4731C142.275 15.034 113.611 3.3293 78.2501 3.3293C77.1298 3.3293 76.0153 3.34148 74.8975 3.36503C74.8445 3.36526 74.7931 3.38319 74.7514 3.41598C74.7098 3.44877 74.6802 3.49455 74.6674 3.54607L73.9911 7.2685C73.9749 7.36836 74.0219 7.46335 74.1045 7.51287C75.3418 8.08202 76.3902 8.99519 77.1251 10.1439C77.8599 11.2926 78.2504 12.6286 78.2501 13.9932ZM11.9491 72.2546V107.187H31.3V115.048H0V72.2546H11.9491ZM58.7023 97.7076L53.1198 82.1229L47.5389 97.7076H58.7023ZM60.7111 72.2733L76.9354 115.036H64.5068L60.9339 104.938H45.3065L41.7344 115.036H31.7609L47.8354 72.2733H60.7111ZM90.1716 107.163H95.529C98.7293 107.163 102.972 106.603 105.725 102.924C108.477 99.2469 108.553 94.9448 108.553 93.2001C108.553 90.9544 108.255 86.4055 105.056 83.2254C102.078 80.3587 98.2076 80.1087 95.3062 80.1087H90.1716V107.163ZM78.263 72.2546H95.7517C100.813 72.2546 108.478 72.7531 114.358 77.803C119.121 81.855 121.353 88.4628 121.353 93.5743C121.353 97.3138 120.164 104.981 113.615 110.156C108.404 114.27 102.526 115.018 97.0178 115.018H78.2638V72.2546H78.263ZM143.767 97.6881L138.186 82.1042L132.604 97.6881H143.767ZM145.777 72.2546L162 115.017H149.571L146 104.919H130.372L126.798 115.017H116.825L132.902 72.2538H145.777V72.2546Z" fill="#005AA1"/>
</svg>
