<svg width="32" height="32" viewBox="0 0 32 32" fill="none" xmlns="http://www.w3.org/2000/svg">
<circle opacity="0.2" cx="16" cy="16" r="16" fill="white" fill-opacity="0.5"/>
<g clip-path="url(#clip0_525_4779)">
<path d="M12.0939 15.2188C11.6631 15.2188 11.3126 14.8683 11.3126 14.4375C11.3126 14.0067 11.6631 13.6562 12.0939 13.6562C12.372 13.6562 12.6315 13.8061 12.7711 14.0474L14.1234 13.2648C13.8407 12.7761 13.3931 12.4129 12.875 12.2289V11.3125H11.3125V12.2282C10.4033 12.5507 9.75012 13.4191 9.75012 14.4375C9.75012 15.7298 10.8015 16.7812 12.0939 16.7812C12.5247 16.7812 12.8751 17.1317 12.8751 17.5625C12.8751 17.9933 12.5247 18.3438 12.0939 18.3438C11.8157 18.3438 11.5563 18.1939 11.4167 17.9527L10.0643 18.7352C10.347 19.2238 10.7945 19.587 11.3125 19.771V20.6875H12.875V19.7719C13.7844 19.4494 14.4376 18.581 14.4376 17.5625C14.4376 16.2702 13.3862 15.2188 12.0939 15.2188Z" fill="white" fill-opacity="0.5"/>
<path d="M19.7923 13.6562L17.9693 8.1875H8.34375C7.05141 8.1875 6 9.23891 6 10.5312V21.4688C6 22.7611 7.05141 23.8125 8.34375 23.8125H20.0527L18.2298 18.3438L19.7923 13.6562ZM17.8848 22.25H8.34375C7.91297 22.25 7.5625 21.8995 7.5625 21.4688V10.5312C7.5625 10.1005 7.91297 9.75 8.34375 9.75H16.8432L18.1452 13.6562L16.5827 18.3438L17.8848 22.25Z" fill="white" fill-opacity="0.5"/>
<path d="M23.6563 8.1875H19.4474L21.2703 13.6562L19.7078 18.3438L21.5307 23.8125H23.6563C24.9486 23.8125 26 22.7611 26 21.4688V10.5312C26 9.23891 24.9486 8.1875 23.6563 8.1875ZM24.4375 21.4688C24.4375 21.8995 24.0871 22.25 23.6563 22.25H22.6569L21.3548 18.3438L22.9173 13.6562L21.6152 9.75H23.6563C24.0871 9.75 24.4375 10.1005 24.4375 10.5312V21.4688Z" fill="white" fill-opacity="0.5"/>
</g>
<defs>
<clipPath id="clip0_525_4779">
<rect width="20" height="20" fill="white" transform="translate(6 6)"/>
</clipPath>
</defs>
</svg>
