<svg width="32" height="32" viewBox="0 0 32 32" fill="none" xmlns="http://www.w3.org/2000/svg">
<circle opacity="0.2" cx="16" cy="16" r="16" fill="white"/>
<g clip-path="url(#clip0_525_4805)">
<path d="M17.5191 17.3867L16.7665 15.059L16.7611 15.043C16.5211 14.3548 15.8758 13.8927 15.1553 13.8927L9.72906 13.8931C9.00854 13.8931 8.3632 14.3552 8.12334 15.043L7.36368 17.3936C7.09451 17.5073 6.84698 17.6764 6.63492 17.896C6.22545 18.3194 6 18.8746 6 19.4591V23.3043C6 24.112 6.65712 24.7692 7.46484 24.7692C8.21054 24.7692 8.82738 24.209 8.91779 23.4875H15.9728C16.0632 24.209 16.6801 24.7692 17.4258 24.7692C18.1924 24.7692 18.8906 24.1582 18.8906 23.4875V19.4225C18.8906 18.5027 18.3224 17.7137 17.5191 17.3867ZM9.72917 15.3579L15.1553 15.3576C15.2501 15.3576 15.3401 15.4241 15.376 15.5202L15.9272 17.2252H8.95738L9.5083 15.5202C9.54412 15.4243 9.63407 15.3579 9.72917 15.3579ZM17.4258 21.2902C17.4258 21.6939 17.0972 22.0226 16.6934 22.0226H8.19727C7.7934 22.0226 7.46484 21.6939 7.46484 21.2902V19.4591C7.46484 19.0422 7.80027 18.6901 8.19727 18.6901H16.6934C17.0972 18.6901 17.4258 19.0186 17.4258 19.4225V21.2902ZM10.7974 19.6056H14.1299V21.0705H10.7974V19.6056ZM16.5103 20.338C16.5103 20.7424 16.1824 21.0705 15.7778 21.0705C15.3733 21.0705 15.0454 20.7424 15.0454 20.338C15.0454 19.9335 15.3733 19.6056 15.7778 19.6056C16.1824 19.6056 16.5103 19.9335 16.5103 20.338ZM9.88184 20.338C9.88184 20.7424 9.55396 21.0705 9.14941 21.0705C8.74487 21.0705 8.41699 20.7424 8.41699 20.338C8.41699 19.9335 8.74487 19.6056 9.14941 19.6056C9.55396 19.6056 9.88184 19.9335 9.88184 20.338ZM21.6372 16.2731C21.2327 16.2731 20.9048 15.945 20.9048 15.5407C20.9048 15.1361 21.2327 14.8083 21.6372 14.8083C22.0418 14.8083 22.3696 15.1361 22.3696 15.5407C22.3696 15.945 22.0418 16.2731 21.6372 16.2731ZM10.6143 11.4757C11.0188 11.4757 11.3467 11.8036 11.3467 12.2082C11.3467 12.6125 11.0188 12.9406 10.6143 12.9406C10.2097 12.9406 9.88184 12.6125 9.88184 12.2082C9.88184 11.8036 10.2097 11.4757 10.6143 11.4757ZM7.47572 13.3777C7.46851 13.3063 7.46484 13.2339 7.46484 13.1606V11.4757C7.46484 10.8912 7.69029 10.336 8.09976 9.91247C8.31411 9.69057 8.56485 9.52016 8.83756 9.40664L9.58944 7.16566C9.83034 6.47993 10.4746 6.01953 11.1939 6.01953H16.6201C17.3394 6.01953 17.9837 6.47993 18.2246 7.16566L18.3921 7.77677H16.8334C16.794 7.69014 16.7095 7.4838 16.6201 7.4838H11.1939C11.0972 7.4838 11.0056 7.55338 10.9712 7.65192L10.969 7.6581L10.4531 9.24184H12.9237C12.7921 9.44784 12.6827 9.67111 12.5996 9.90915L12.5912 9.93318L12.3413 10.7067H9.66211C9.26511 10.7067 8.92969 11.0588 8.92969 11.4757V12.5323C8.37579 12.6782 7.87386 12.9723 7.47572 13.3777ZM24.75 14.6251V18.6901C24.75 19.3608 24.0518 19.9718 23.2852 19.9718C22.5395 19.9718 21.9226 19.4116 21.8322 18.6901H20.2818C20.1717 18.149 19.9418 17.6512 19.6212 17.2252H22.5527C22.9566 17.2252 23.2852 16.8966 23.2852 16.4928V14.6251C23.2852 14.2213 22.9566 13.8927 22.5527 13.8927H17.8197C17.2457 12.9947 16.2473 12.4279 15.155 12.4279H21.771L21.2362 10.8707C21.2029 10.7755 21.1114 10.7067 21.0146 10.7067H15.5884C15.4922 10.7067 15.4011 10.7749 15.3663 10.8729L14.8336 12.4642L13.2851 12.4645L13.9827 10.3916C14.2226 9.70384 14.8679 9.24184 15.5884 9.24184H21.0146C21.7352 9.24184 22.3805 9.70384 22.6204 10.3916L23.3746 12.5879C24.1801 12.914 24.75 13.7041 24.75 14.6251ZM18.6985 16.2731L18.2248 14.8083H19.9893V16.2731H18.6985Z" fill="white" fill-opacity="0.5"/>
</g>
<defs>
<clipPath id="clip0_525_4805">
<rect width="20" height="20" fill="white" transform="translate(6 6)"/>
</clipPath>
</defs>
</svg>
