<svg width="134" height="74" viewBox="0 0 134 74" fill="none" xmlns="http://www.w3.org/2000/svg">
<path d="M82.1683 2.27487C70.7939 2.27487 61.6035 11.5563 61.6035 22.8397C61.6035 34.214 70.8849 43.4044 82.1683 43.4044C93.5426 43.4044 102.733 34.123 102.733 22.8397C102.733 11.4653 93.5426 2.27487 82.1683 2.27487ZM82.1683 45.6793C69.52 45.6793 59.3286 35.3969 59.3286 22.8397C59.3286 10.1914 69.611 0 82.1683 0C94.8165 0 105.008 10.2824 105.008 22.8397C105.008 35.4879 94.8165 45.6793 82.1683 45.6793Z" fill="white" fill-opacity="0.3"/>
<path d="M82.1684 8.46334C74.2518 8.46334 67.7912 14.924 67.7912 22.8405C67.7912 30.757 74.2518 37.2176 82.1684 37.2176C90.0849 37.2176 96.5455 30.757 96.5455 22.8405C96.5455 14.924 90.0849 8.46334 82.1684 8.46334ZM82.1684 39.4925C72.9779 39.4925 65.5164 32.031 65.5164 22.8405C65.5164 13.65 72.9779 6.18848 82.1684 6.18848C91.3588 6.18848 98.8204 13.65 98.8204 22.8405C98.8204 32.031 91.3588 39.4925 82.1684 39.4925Z" fill="white" fill-opacity="0.3"/>
<path d="M82.1681 14.4682C77.5274 14.4682 73.7966 18.199 73.7966 22.8397C73.7966 27.4805 77.5274 31.2113 82.1681 31.2113C86.8088 31.2113 90.5396 27.4805 90.5396 22.8397C90.5396 18.199 86.8088 14.4682 82.1681 14.4682ZM82.1681 33.4861C76.2534 33.4861 71.5217 28.6634 71.5217 22.8397C71.5217 16.9251 76.3444 12.1934 82.1681 12.1934C88.0828 12.1934 92.8145 17.0161 92.8145 22.8397C92.8145 28.7544 88.0828 33.4861 82.1681 33.4861Z" fill="white" fill-opacity="0.3"/>
<path d="M84.8064 22.5671C84.6245 26.0249 79.6198 26.0249 79.4378 22.5671C79.2558 19.1093 84.6245 19.1093 84.8064 22.5671C84.8974 23.932 86.9903 23.932 86.8993 22.5671C86.7173 19.8373 84.8064 17.9264 82.0766 17.7444C79.3468 17.5624 77.3449 20.0193 77.2539 22.5671C77.0719 25.2969 79.5288 27.2988 82.0766 27.3898C84.8064 27.5718 86.8083 25.115 86.8993 22.5671C86.9903 21.2022 84.8974 21.2932 84.8064 22.5671Z" fill="white" fill-opacity="0.3"/>
<path d="M59.0174 2.27487C47.6431 2.27487 38.4526 11.5563 38.4526 22.8397C38.4526 34.214 47.7341 43.4044 59.0174 43.4044C70.3917 43.4044 79.5822 34.123 79.5822 22.8397C79.5822 11.4653 70.3007 2.27487 59.0174 2.27487ZM59.0174 45.6793C46.3691 45.6793 36.1777 35.3969 36.1777 22.8397C36.1777 10.1914 46.4601 0 59.0174 0C71.6657 0 81.857 10.2824 81.857 22.8397C81.857 35.4879 71.5747 45.6793 59.0174 45.6793Z" fill="white"/>
<path d="M59.0173 8.46237C51.1007 8.46237 44.6401 14.923 44.6401 22.8395C44.6401 30.7561 51.1007 37.2167 59.0173 37.2167C66.9338 37.2167 73.3944 30.7561 73.3944 22.8395C73.3944 14.923 66.9338 8.46237 59.0173 8.46237ZM59.0173 39.4915C49.8268 39.4915 42.3652 32.03 42.3652 22.8395C42.3652 13.6491 49.8268 6.1875 59.0173 6.1875C68.2077 6.1875 75.6693 13.6491 75.6693 22.8395C75.6693 32.03 68.2077 39.4915 59.0173 39.4915Z" fill="white"/>
<path d="M59.0172 14.4682C54.3765 14.4682 50.6457 18.199 50.6457 22.8397C50.6457 27.4805 54.3765 31.2113 59.0172 31.2113C63.658 31.2113 67.3887 27.4805 67.3887 22.8397C67.3887 18.199 63.567 14.4682 59.0172 14.4682ZM59.0172 33.4861C53.1026 33.4861 48.3708 28.6634 48.3708 22.8397C48.3708 16.9251 53.1936 12.1934 59.0172 12.1934C64.9319 12.1934 69.6636 17.0161 69.6636 22.8397C69.6636 28.7544 64.8409 33.4861 59.0172 33.4861Z" fill="white"/>
<path d="M61.6558 22.5671C61.4738 26.0249 56.4691 26.0249 56.2872 22.5671C56.0142 19.1093 61.4738 19.1093 61.6558 22.5671C61.7468 23.932 63.8397 23.932 63.7487 22.5671C63.5667 19.8373 61.6558 17.9264 58.926 17.7444C56.1962 17.5624 54.1943 20.0193 54.1033 22.5671C53.9213 25.2969 56.3781 27.2988 58.926 27.3898C61.6558 27.5718 63.6577 25.115 63.7487 22.5671C63.8397 21.2022 61.7468 21.2932 61.6558 22.5671Z" fill="white"/>
<path d="M11.3163 73.3443C10.3077 73.7747 9.24872 73.9898 8.13928 73.9898C7.02983 73.9898 5.97082 73.7747 4.96224 73.3443C3.96038 72.9072 3.09635 72.3232 2.37017 71.5923C1.64399 70.8546 1.06574 69.9803 0.635408 68.9694C0.211803 67.9517 0 66.8861 0 65.7727C0 64.6525 0.211803 63.587 0.635408 62.5761C1.06574 61.5583 1.64399 60.684 2.37017 59.9532C3.09635 59.2223 3.96038 58.6417 4.96224 58.2114C5.97082 57.7742 7.02983 57.5557 8.13928 57.5557C9.24872 57.5557 10.3077 57.7742 11.3163 58.2114C12.3249 58.6417 13.1923 59.2223 13.9185 59.9532C14.6514 60.684 15.233 61.5583 15.6633 62.5761C16.0936 63.587 16.3088 64.6525 16.3088 65.7727C16.3088 66.8929 16.0936 67.9619 15.6633 68.9797C15.233 69.9906 14.6514 70.8615 13.9185 71.5923C13.1923 72.3232 12.3249 72.9072 11.3163 73.3443ZM8.13928 72.914C9.09407 72.914 10.0052 72.7262 10.8725 72.3505C11.7466 71.9748 12.4997 71.4694 13.1318 70.8341C13.7638 70.1921 14.2647 69.4305 14.6346 68.5493C15.0111 67.6682 15.1994 66.7427 15.1994 65.7727C15.1994 64.475 14.8833 63.2762 14.2513 62.1765C13.6193 61.0768 12.762 60.2093 11.6794 59.5741C10.5969 58.932 9.41682 58.611 8.13928 58.611C6.86846 58.611 5.69178 58.932 4.60923 59.5741C3.53341 60.2093 2.67947 61.0768 2.04743 62.1765C1.4221 63.2762 1.10944 64.475 1.10944 65.7727C1.10944 67.0637 1.4221 68.259 2.04743 69.3588C2.67947 70.4516 3.53341 71.3191 4.60923 71.9612C5.69178 72.5964 6.86846 72.914 8.13928 72.914Z" fill="white"/>
<path d="M26.8505 63.6929C29.177 63.6929 30.3402 65.1273 30.3402 67.9961V73.6107H29.2812V67.9858C29.2812 66.8383 29.056 65.9982 28.6055 65.4654C28.155 64.9258 27.4826 64.656 26.5883 64.656C26.0168 64.656 25.4419 64.8301 24.8636 65.1785C24.2854 65.5268 23.7912 65.9982 23.381 66.5924L23.3911 73.6107H22.3321V64.0105H23.2701L23.381 65.3219V65.5166C23.8248 64.9702 24.3593 64.5296 24.9847 64.1949C25.61 63.8602 26.2319 63.6929 26.8505 63.6929Z" fill="white"/>
<path d="M44.9163 68.242C44.9163 68.7543 44.9029 69.0685 44.876 69.1846H37.0292C37.0561 70.2911 37.4494 71.203 38.2092 71.9202C38.9757 72.6306 39.9104 72.9857 41.0131 72.9857C41.4838 72.9857 41.9376 72.9243 42.3747 72.8013C42.8117 72.6784 43.1647 72.5486 43.4337 72.412C43.7026 72.2685 44.0523 72.0636 44.4826 71.7972L44.4322 72.873C44.0624 73.078 43.7564 73.2385 43.5144 73.3546C43.2723 73.4707 42.9025 73.5971 42.4049 73.7337C41.9074 73.8703 41.4098 73.9386 40.9122 73.9386C39.4666 73.9386 38.2832 73.4468 37.362 72.4632C36.4408 71.4728 35.9802 70.216 35.9802 68.6928C35.9802 67.9619 36.1013 67.2823 36.3433 66.6539C36.5921 66.0255 36.9249 65.4961 37.3418 65.0658C37.7654 64.6355 38.2563 64.2974 38.8144 64.0515C39.3792 63.8056 39.9742 63.6826 40.5996 63.6826C41.8905 63.6826 42.9328 64.1164 43.7262 64.9838C44.5196 65.8513 44.9163 66.9373 44.9163 68.242ZM37.0292 68.283H43.9481C43.975 67.1491 43.6657 66.2577 43.0202 65.6088C42.3747 64.9599 41.5712 64.6355 40.6096 64.6355C39.5876 64.6355 38.7404 64.977 38.068 65.66C37.4023 66.3363 37.0561 67.2106 37.0292 68.283Z" fill="white"/>
<path d="M53.804 73.6107V59.0106H49.1443V57.9655H59.563V59.0106H54.9235V73.6107H53.804Z" fill="white"/>
<path d="M75.7023 64.0105L71.6075 74.0001L68.6221 66.2748L65.6367 73.9796L61.5519 64.0105H62.6311L65.6367 71.5104L68.6019 63.8773L71.6176 71.5309L74.6131 64.0105H75.7023Z" fill="white"/>
<path d="M84.9228 73.9284C83.4772 73.9284 82.2635 73.44 81.2818 72.4632C80.3001 71.4796 79.8093 70.2638 79.8093 68.8157C79.8093 67.3677 80.3001 66.1518 81.2818 65.1682C82.2635 64.1778 83.4805 63.6826 84.9329 63.6826C86.3785 63.6826 87.5922 64.1778 88.5739 65.1682C89.5623 66.1518 90.0565 67.3677 90.0565 68.8157C90.0565 70.2638 89.5623 71.4796 88.5739 72.4632C87.5922 73.44 86.3752 73.9284 84.9228 73.9284ZM84.943 72.9653C86.0861 72.9653 87.0509 72.5657 87.8376 71.7665C88.6243 70.9673 89.0177 69.9837 89.0177 68.8157C89.0177 67.6409 88.621 66.6539 87.8275 65.8547C87.0408 65.0487 86.076 64.6457 84.9329 64.6457C83.7831 64.6457 82.8115 65.0487 82.0181 65.8547C81.2314 66.6539 80.8381 67.6409 80.8381 68.8157C80.8381 69.9906 81.2314 70.9776 82.0181 71.7767C82.8115 72.5691 83.7865 72.9653 84.943 72.9653Z" fill="white"/>
<path d="M103.291 73.9898C101.812 73.9898 100.45 73.6278 99.2064 72.9038C97.9692 72.1797 96.9909 71.1893 96.2714 69.9325C95.5587 68.6757 95.2023 67.2959 95.2023 65.7932C95.2023 64.6594 95.4141 63.587 95.8377 62.5761C96.2613 61.5583 96.8329 60.684 97.5523 59.9532C98.2785 59.2223 99.1425 58.6451 100.144 58.2216C101.153 57.7913 102.215 57.5762 103.332 57.5762C104.085 57.5762 104.915 57.7333 105.823 58.0475C106.73 58.3548 107.49 58.7373 108.102 59.195V60.4142C107.537 59.9156 106.798 59.4955 105.883 59.154C104.975 58.8056 104.128 58.6315 103.342 58.6315C102.044 58.6315 100.857 58.9491 99.7813 59.5843C98.7055 60.2127 97.8549 61.0768 97.2296 62.1765C96.611 63.2694 96.3017 64.475 96.3017 65.7932C96.3017 67.1047 96.611 68.3069 97.2296 69.3997C97.8549 70.4926 98.7055 71.3533 99.7813 71.9817C100.857 72.6101 102.044 72.9243 103.342 72.9243C104.135 72.9243 104.992 72.7501 105.913 72.4017C106.835 72.0534 107.581 71.6231 108.153 71.1108L108.132 72.3505C107.52 72.8218 106.754 73.2146 105.833 73.5288C104.918 73.8361 104.071 73.9898 103.291 73.9898Z" fill="white"/>
<path d="M117.726 63.6929C119.078 63.6929 120.046 64.0344 120.631 64.7174C121.216 65.4005 121.508 66.3568 121.508 67.5862V73.6107H120.57L120.449 72.2993V72.2173C119.999 72.7433 119.461 73.1599 118.835 73.4673C118.217 73.7747 117.568 73.9284 116.889 73.9284C115.907 73.9284 115.134 73.6722 114.569 73.1599C114.011 72.6476 113.732 71.9338 113.732 71.0186C113.732 70.0896 114.072 69.3656 114.751 68.8465C115.437 68.3273 116.324 68.0678 117.413 68.0678C118.281 68.0678 119.293 68.1737 120.449 68.3854V67.5862C120.449 67.1832 120.412 66.8281 120.338 66.5207C120.271 66.2133 120.14 65.9128 119.945 65.6191C119.757 65.3253 119.464 65.0999 119.067 64.9428C118.677 64.7789 118.19 64.6969 117.605 64.6969C116.448 64.6969 115.255 65.0692 114.025 65.8137L114.115 64.7277C115.285 64.0378 116.489 63.6929 117.726 63.6929ZM117.161 72.9653C117.813 72.9653 118.422 72.8013 118.987 72.4735C119.558 72.1456 120.046 71.6948 120.449 71.121V69.2153C119.387 69.0104 118.429 68.9079 117.575 68.9079C116.721 68.9079 116.042 69.0753 115.537 69.41C115.033 69.7378 114.781 70.2467 114.781 70.9366C114.774 71.565 114.979 72.0602 115.396 72.4222C115.82 72.7842 116.408 72.9653 117.161 72.9653Z" fill="white"/>
<path d="M133.159 63.8978L133.2 64.9223C132.79 64.7584 132.322 64.6765 131.798 64.6765C131.273 64.6765 130.772 64.8472 130.295 65.1887C129.818 65.5234 129.407 66.0084 129.065 66.6436L129.075 73.6107H128.016V64.0105H128.954L129.065 65.4346C129.455 64.8677 129.892 64.434 130.376 64.1334C130.867 63.8329 131.371 63.6826 131.889 63.6826C132.332 63.6826 132.756 63.7543 133.159 63.8978Z" fill="white"/>
</svg>
