<svg width="32" height="32" viewBox="0 0 32 32" fill="none" xmlns="http://www.w3.org/2000/svg">
<circle cx="16" cy="16" r="16" fill="#E30613"/>
<g clip-path="url(#clip0_318_7809)">
<path d="M24.719 14.9922L21.829 13.9177L17.1409 9.59799C17.1207 9.57936 17.0997 9.5619 17.0779 9.54529C16.6111 9.19113 16.0577 8.99609 15.5196 8.99609H9.03906C8.1906 8.99609 7.17966 9.42326 6.87888 10.24L5.53006 13.7029C5.17825 14.4974 5 15.3409 5 16.2101V18.707C5 20.1285 6.15646 21.285 7.57812 21.285H8.37036C8.72519 22.2854 9.6804 23.0037 10.8008 23.0037C11.921 23.0037 12.8762 22.2854 13.231 21.285H15.3984C15.8729 21.285 16.2576 20.9003 16.2576 20.4258C16.2576 19.9511 15.8729 19.5664 15.3984 19.5664H13.231C12.8762 18.566 11.921 17.8477 10.8008 17.8477C9.6804 17.8477 8.72519 18.566 8.37036 19.5664H7.57812C7.10429 19.5664 6.71875 19.1809 6.71875 18.707V16.2101C6.71875 16.0225 6.7305 15.8365 6.75349 15.6526H11.7891C11.8035 15.6526 11.8176 15.651 11.832 15.6504C11.8463 15.651 11.8604 15.6526 11.875 15.6526H21.4354C21.472 15.6526 21.5077 15.6495 21.543 15.645L24.1223 16.6041C24.1236 16.6046 24.125 16.6051 24.1263 16.6056C24.815 16.8577 25.29 17.5393 25.2811 18.2632V18.2737V19.1367C25.2811 19.3736 25.0884 19.5664 24.8514 19.5664H23.4146C23.0598 18.566 22.1046 17.8477 20.9842 17.8477C19.5627 17.8477 18.4061 19.0041 18.4061 20.4258C18.4061 21.8473 19.5627 23.0037 20.9842 23.0037C22.1046 23.0037 23.0598 22.2854 23.4146 21.285H24.8514C26.0361 21.285 26.9998 20.3212 26.9998 19.1367V18.2784C27.0151 16.8183 26.0992 15.4983 24.719 14.9922ZM10.8008 19.5664C11.2746 19.5664 11.6602 19.9518 11.6602 20.4258C11.6602 20.8996 11.2746 21.285 10.8008 21.285C10.3269 21.285 9.94141 20.8996 9.94141 20.4258C9.94141 19.9518 10.3269 19.5664 10.8008 19.5664ZM16.0104 10.8934L19.3101 13.9338H12.6484V10.7148H15.5196C15.6756 10.7148 15.8488 10.778 16.0104 10.8934ZM9.03906 10.7148H10.9297V13.9338H7.28456L8.35257 11.1917C8.46217 10.9106 8.72972 10.7174 9.03151 10.7148H9.03906ZM20.9842 21.285C20.5104 21.285 20.1248 20.8996 20.1248 20.4258C20.1248 19.9518 20.5104 19.5664 20.9842 19.5664C21.458 19.5664 21.8436 19.9518 21.8436 20.4258C21.8436 20.8996 21.458 21.285 20.9842 21.285Z" fill="white"/>
</g>
<defs>
<clipPath id="clip0_318_7809">
<rect width="22" height="22" fill="white" transform="translate(5 5)"/>
</clipPath>
</defs>
</svg>
