<svg width="32" height="32" viewBox="0 0 32 32" fill="none" xmlns="http://www.w3.org/2000/svg">
<circle cx="16" cy="16" r="16" fill="#444444"/>
<path d="M10.9684 22.6568V20.5328L16.4044 15.7088C16.8124 15.3488 17.1004 15.0098 17.2684 14.6918C17.4364 14.3738 17.5204 14.0768 17.5204 13.8008C17.5204 13.4048 17.4394 13.0538 17.2774 12.7478C17.1154 12.4358 16.8874 12.1928 16.5934 12.0188C16.2994 11.8388 15.9544 11.7488 15.5584 11.7488C15.1444 11.7488 14.7784 11.8448 14.4604 12.0368C14.1484 12.2228 13.9054 12.4718 13.7314 12.7838C13.5574 13.0898 13.4764 13.4228 13.4884 13.7828H10.9684C10.9684 12.8948 11.1634 12.1268 11.5534 11.4788C11.9434 10.8308 12.4864 10.3298 13.1824 9.9758C13.8784 9.6218 14.6884 9.4448 15.6124 9.4448C16.4584 9.4448 17.2144 9.6308 17.8804 10.0028C18.5524 10.3688 19.0804 10.8818 19.4644 11.5418C19.8484 12.2018 20.0404 12.9668 20.0404 13.8368C20.0404 14.4788 19.9504 15.0128 19.7704 15.4388C19.5904 15.8588 19.3234 16.2488 18.9694 16.6088C18.6154 16.9628 18.1804 17.3648 17.6644 17.8148L14.1544 20.8928L13.9564 20.3528H20.0404V22.6568H10.9684Z" fill="white"/>
</svg>
