<svg width="32" height="32" viewBox="0 0 32 32" fill="none" xmlns="http://www.w3.org/2000/svg">
<circle cx="16" cy="16" r="16" fill="#444444"/>
<path d="M15.2227 22.9088C14.5747 22.9088 13.9567 22.7798 13.3687 22.5218C12.7807 22.2578 12.2677 21.8888 11.8297 21.4148C11.3977 20.9408 11.0887 20.3828 10.9027 19.7408L13.2787 19.1108C13.4047 19.5848 13.6507 19.9538 14.0167 20.2178C14.3887 20.4758 14.7907 20.6048 15.2227 20.6048C15.5947 20.6048 15.9337 20.5148 16.2397 20.3348C16.5517 20.1548 16.7977 19.9118 16.9777 19.6058C17.1637 19.2998 17.2567 18.9608 17.2567 18.5888C17.2567 18.0308 17.0647 17.5538 16.6807 17.1578C16.3027 16.7558 15.8167 16.5548 15.2227 16.5548C15.0427 16.5548 14.8687 16.5818 14.7007 16.6358C14.5327 16.6838 14.3707 16.7528 14.2147 16.8428L13.1167 14.9168L17.2387 11.4968L17.4187 12.0188H11.4067V9.7148H19.5067V12.0188L16.3027 15.1148L16.2847 14.4308C17.0287 14.5448 17.6557 14.8058 18.1657 15.2138C18.6817 15.6158 19.0717 16.1138 19.3357 16.7078C19.6057 17.2958 19.7407 17.9228 19.7407 18.5888C19.7407 19.4048 19.5337 20.1398 19.1197 20.7938C18.7057 21.4418 18.1567 21.9578 17.4727 22.3418C16.7887 22.7198 16.0387 22.9088 15.2227 22.9088Z" fill="white"/>
</svg>
