<svg width="32" height="32" viewBox="0 0 32 32" fill="none" xmlns="http://www.w3.org/2000/svg">
<circle cx="16" cy="16" r="16" fill="#E30613"/>
<path d="M19.7678 14.5938C19.7678 14.1623 19.4181 13.8125 18.9866 13.8125H10.9397C10.5082 13.8125 10.1584 14.1623 10.1584 14.5938C10.1584 15.0252 10.5082 15.375 10.9397 15.375H18.9866C19.4181 15.375 19.7678 15.0252 19.7678 14.5938Z" fill="white"/>
<path d="M10.9397 16.9375C10.5082 16.9375 10.1584 17.2873 10.1584 17.7188C10.1584 18.1502 10.5082 18.5 10.9397 18.5H15.8268C16.2583 18.5 16.6081 18.1502 16.6081 17.7188C16.6081 17.2873 16.2583 16.9375 15.8268 16.9375H10.9397Z" fill="white"/>
<path d="M12.7757 24.4375H10.1628C9.30128 24.4375 8.60034 23.7366 8.60034 22.875V9.125C8.60034 8.26344 9.30128 7.5625 10.1628 7.5625H19.7679C20.6294 7.5625 21.3304 8.26344 21.3304 9.125V13.9297C21.3304 14.3612 21.6801 14.7109 22.1116 14.7109C22.5431 14.7109 22.8929 14.3612 22.8929 13.9297V9.125C22.8929 7.40188 21.491 6 19.7679 6H10.1628C8.43972 6 7.03784 7.40188 7.03784 9.125V22.875C7.03784 24.5981 8.43972 26 10.1628 26H12.7757C13.2072 26 13.5569 25.6502 13.5569 25.2188C13.5569 24.7873 13.2072 24.4375 12.7757 24.4375Z" fill="white"/>
<path d="M24.2767 17.3114C23.3629 16.3976 21.876 16.3976 20.9627 17.3108L16.6736 21.5905C16.5825 21.6814 16.5153 21.7934 16.4779 21.9165L15.5438 24.9917C15.4609 25.2643 15.5331 25.5604 15.7321 25.7643C15.8811 25.9171 16.0836 26 16.2913 26C16.3608 26 16.431 25.9907 16.4999 25.9716L19.6532 25.0982C19.7829 25.0622 19.9012 24.9934 19.9965 24.8982L24.2767 20.626C25.1906 19.7122 25.1906 18.2253 24.2767 17.3114ZM19.0381 23.6472L17.4517 24.0867L17.9159 22.5582L20.81 19.6705L21.9151 20.7756L19.0381 23.6472ZM23.1724 19.5207L23.0211 19.6718L21.9162 18.5669L22.067 18.4164C22.3716 18.1118 22.8673 18.1118 23.1719 18.4164C23.4765 18.721 23.4765 19.2166 23.1724 19.5207Z" fill="white"/>
<path d="M18.9866 10.6875H10.9397C10.5082 10.6875 10.1584 11.0373 10.1584 11.4688C10.1584 11.9002 10.5082 12.25 10.9397 12.25H18.9866C19.4181 12.25 19.7678 11.9002 19.7678 11.4688C19.7678 11.0373 19.4181 10.6875 18.9866 10.6875Z" fill="white"/>
</svg>
