<svg width="32" height="32" viewBox="0 0 32 32" fill="none" xmlns="http://www.w3.org/2000/svg">
<circle cx="16" cy="16" r="16" fill="#E30613"/>
<path d="M21.8203 16.0391C20.5279 16.0391 19.4765 17.0905 19.4765 18.3829C19.4765 19.6752 20.5279 20.7266 21.8203 20.7266H25.1406C25.1538 20.7266 25.1668 20.7253 25.1798 20.7246C25.1928 20.7252 25.2056 20.7266 25.2187 20.7266C25.6502 20.7266 26 20.3768 26 19.9453V13.8125C26 12.7724 25.4888 11.85 24.7048 11.2817L22.047 6.92151C21.9387 6.7437 21.7638 6.61651 21.5612 6.56823C21.3586 6.51987 21.1452 6.55444 20.9682 6.66421L19.0082 7.87967L18.1243 6.38382C18.018 6.20397 17.8442 6.07421 17.6415 6.02343C17.439 5.97265 17.2244 6.00518 17.0459 6.11362L9.51988 10.6875H8.34375C7.91949 10.6875 7.57312 10.3476 7.56273 9.9258C7.57312 9.50401 7.91949 9.16408 8.34375 9.16408H9.78905C10.2205 9.16408 10.5703 8.81432 10.5703 8.38284C10.5703 7.95135 10.2205 7.60159 9.78905 7.60159H8.34375C7.23836 7.60159 6.30934 8.37088 6.06367 9.40217C6.02281 9.49694 6 9.60123 6 9.71096V9.90627V9.94533V22.875C6 24.5981 7.40187 26 9.12499 26H22.875C24.2222 26 25.4137 25.1417 25.8398 23.8644C25.9764 23.4551 25.7553 23.0126 25.346 22.8761C24.9367 22.7396 24.4942 22.9607 24.3577 23.37C24.1447 24.0085 23.5488 24.4375 22.875 24.4375H9.12499C8.26343 24.4375 7.5625 23.7366 7.5625 22.875V12.116C7.80699 12.2027 8.06992 12.25 8.34375 12.25H22.875C23.7365 12.25 24.4375 12.951 24.4375 13.8125V16.0391H21.8203ZM24.4375 19.1641H21.8203C21.3895 19.1641 21.039 18.8136 21.039 18.3828C21.039 17.952 21.3895 17.6016 21.8203 17.6016H24.4375V19.1641ZM12.5284 10.6876L17.1815 7.85971L18.0134 9.26756C18.0294 9.30604 18.0477 9.34397 18.0704 9.38053C18.0874 9.40791 18.1062 9.43342 18.1259 9.45795L18.8524 10.6876H12.5284ZM20.6674 10.6875L19.8033 9.22518L21.1226 8.40702L22.5128 10.6875H20.6674Z" fill="white"/>
</svg>
