<svg width="32" height="32" viewBox="0 0 32 32" fill="none" xmlns="http://www.w3.org/2000/svg">
<circle cx="16" cy="16" r="16" fill="#E30613"/>
<path d="M25.2188 6H6.78125C6.34977 6 6 6.34977 6 6.78125C6 7.21273 6.34977 7.5625 6.78125 7.5625H12.0951L11.9538 7.80727C11.8664 7.95867 11.8323 8.13508 11.8569 8.30816L12.0032 9.33418C12.0641 9.76137 12.4599 10.0581 12.8869 9.99734C13.3141 9.93645 13.611 9.54078 13.5501 9.11363L13.4419 8.3548L13.8993 7.5625H18.1007L18.5581 8.3548L18.4499 9.11363C18.389 9.54078 18.6859 9.93645 19.1131 9.99734C19.1505 10.0027 19.1876 10.0053 19.2244 10.0053C19.607 10.0053 19.9412 9.72395 19.9968 9.33422L20.1431 8.3082C20.1678 8.13508 20.1337 7.95871 20.0463 7.8073L19.9049 7.5625H25.2188C25.6502 7.5625 26 7.21273 26 6.78125C26 6.34977 25.6502 6 25.2188 6V6Z" fill="white"/>
<path d="M25.3606 21.425C25.0329 21.1443 24.5397 21.1824 24.259 21.51C24.1227 21.6692 23.9669 21.8074 23.796 21.922C23.3484 20.8918 22.3252 20.1701 21.1375 20.1701C19.8079 20.1701 18.6844 21.0747 18.3439 22.3039H14.389C14.0485 21.0747 12.925 20.1701 11.5954 20.1701C10.4081 20.1701 9.38513 20.8914 8.93731 21.921C8.32212 21.5067 7.92895 20.8018 7.92895 20.0349V20.0124C7.92895 18.7613 8.94681 17.7434 10.1979 17.7434H22.535C23.1984 17.7434 23.8268 18.0328 24.259 18.5373C24.5398 18.865 25.033 18.903 25.3606 18.6223C25.6883 18.3415 25.7263 17.8484 25.4456 17.5207C24.8922 16.8746 24.1479 16.4377 23.3316 16.2644L22.1252 13.327C21.5693 11.8341 20.1335 10.832 18.5476 10.832H14.1852C12.5993 10.832 11.1636 11.8341 10.6077 13.327L9.40146 16.2642C7.6697 16.6318 6.36646 18.1727 6.36646 20.0124V20.0348C6.36646 20.8798 6.63622 21.6812 7.14661 22.3524C7.55782 22.8931 8.11298 23.3187 8.73739 23.5775C8.97079 24.9512 10.1635 26.0001 11.5954 26.0001C12.925 26.0001 14.0485 25.0955 14.389 23.8664H18.3439C18.6843 25.0955 19.8078 26.0001 21.1375 26.0001C22.5691 26.0001 23.7618 24.9515 23.9954 23.5781C24.5527 23.3487 25.0483 22.9904 25.4456 22.5266C25.7263 22.1989 25.6883 21.7058 25.3606 21.425ZM12.0582 13.9079C12.0619 13.8989 12.0654 13.8899 12.0688 13.8808C12.3957 12.9918 13.2463 12.3945 14.1852 12.3945H18.5476C19.4866 12.3945 20.3371 12.9918 20.6641 13.8808C20.6675 13.8899 20.671 13.8989 20.6747 13.9079L21.6081 16.1809H18.8607V14.8157C18.8607 14.3843 18.5109 14.0345 18.0795 14.0345C17.648 14.0345 17.2982 14.3843 17.2982 14.8157V16.1809H11.1248L12.0582 13.9079ZM11.5954 24.4376C10.8582 24.4376 10.2585 23.8309 10.2585 23.0851C10.2585 22.3393 10.8582 21.7326 11.5954 21.7326C12.3325 21.7326 12.9322 22.3393 12.9322 23.0851C12.9322 23.8309 12.3325 24.4376 11.5954 24.4376ZM21.1375 24.4376C20.4004 24.4376 19.8006 23.8309 19.8006 23.0851C19.8006 22.3393 20.4004 21.7326 21.1375 21.7326C21.8747 21.7326 22.4744 22.3393 22.4744 23.0851C22.4744 23.8309 21.8747 24.4376 21.1375 24.4376Z" fill="white"/>
</svg>
