<svg width="55" height="55" viewBox="0 0 55 55" fill="none" xmlns="http://www.w3.org/2000/svg">
<circle cx="27.5" cy="27.5" r="27.5" fill="white"/>
<path d="M26.9906 34.77C26.1146 34.77 25.3346 34.593 24.6506 34.239C23.9726 33.879 23.4386 33.387 23.0486 32.763C22.6646 32.133 22.4726 31.416 22.4726 30.612C22.4726 29.928 22.6256 29.283 22.9316 28.677C23.2436 28.071 23.6906 27.576 24.2726 27.192L24.2186 27.948C23.7806 27.522 23.4356 27.072 23.1836 26.598C22.9376 26.124 22.8146 25.59 22.8146 24.996C22.8146 24.246 22.9916 23.592 23.3456 23.034C23.7056 22.476 24.1976 22.044 24.8216 21.738C25.4516 21.426 26.1746 21.27 26.9906 21.27C27.8066 21.27 28.5266 21.426 29.1506 21.738C29.7806 22.044 30.2726 22.476 30.6266 23.034C30.9866 23.592 31.1666 24.246 31.1666 24.996C31.1666 25.59 31.0496 26.124 30.8156 26.598C30.5816 27.066 30.2246 27.522 29.7446 27.966V27.21C30.3146 27.57 30.7526 28.056 31.0586 28.668C31.3706 29.28 31.5266 29.928 31.5266 30.612C31.5266 31.416 31.3316 32.133 30.9416 32.763C30.5516 33.387 30.0146 33.879 29.3306 34.239C28.6466 34.593 27.8666 34.77 26.9906 34.77ZM26.9906 32.466C27.5666 32.466 28.0346 32.31 28.3946 31.998C28.7546 31.686 28.9346 31.224 28.9346 30.612C28.9346 30.006 28.7546 29.544 28.3946 29.226C28.0346 28.902 27.5666 28.74 26.9906 28.74C26.4146 28.74 25.9496 28.902 25.5956 29.226C25.2416 29.544 25.0646 30.006 25.0646 30.612C25.0646 31.224 25.2416 31.686 25.5956 31.998C25.9496 32.31 26.4146 32.466 26.9906 32.466ZM26.9906 26.418C27.4586 26.418 27.8396 26.304 28.1336 26.076C28.4276 25.842 28.5746 25.482 28.5746 24.996C28.5746 24.51 28.4276 24.15 28.1336 23.916C27.8396 23.676 27.4586 23.556 26.9906 23.556C26.5226 23.556 26.1416 23.676 25.8476 23.916C25.5536 24.15 25.4066 24.51 25.4066 24.996C25.4066 25.482 25.5536 25.842 25.8476 26.076C26.1416 26.304 26.5226 26.418 26.9906 26.418Z" fill="#092449"/>
</svg>
